<?xml version="1.0" encoding="utf-8"?>
<!-- Generator: Adobe Illustrator 23.1.0, SVG Export Plug-In . SVG Version: 6.00 Build 0)  -->
<svg version="1.1" id="Layer_1" xmlns="http://www.w3.org/2000/svg" xmlns:xlink="http://www.w3.org/1999/xlink" x="0px" y="0px"
	 viewBox="0 0 1366 768" style="enable-background:new 0 0 1366 768;" xml:space="preserve">
<style type="text/css">
	.st0{fill:#0D081E;}
	.st1{fill:#060015;}
	.st2{fill:#FFFFFF;}
</style>
<path class="st0" d="M-11.4,0h2010.9c0,0-312.8,269.9-1021.5,273.2C269.3,276.5,309.4,768,309.4,768H-11.4V0z"/>
<path id="XMLID_11584_" class="st1" d="M61.5,768H277c18.7,0,31.3-19.3,23.7-36.4c-7.5-16.9-15.5-32.3-17.5-38.7
	c-5.5-17-8.7-31.7-31.7-20.7c-23.1,11-90.8,20.7-105.6,18.2c-14.7-2.4-33.5,1.2-59.7,18.2c-5.1,3.3-17.2,5.6-28.4,7.3
	c-12.7,1.9-22.1,12.7-22.2,25.6c0,0.2,0,0.4,0,0.5C35.6,756.4,47.2,768,61.5,768z"/>
<g id="XMLID_133_">
	<path id="XMLID_131_" class="st2" d="M262.4,563c-0.2,0.4-0.2,0.7-0.4,1.1C262.1,563.8,262.3,563.4,262.4,563
		C262.5,563,262.5,563,262.4,563L262.4,563z"/>
	<path id="XMLID_130_" class="st2" d="M279.1,513.3v-0.7C279,512.9,279,513.2,279.1,513.3z"/>
	<path id="XMLID_232_" class="st2" d="M281.5,463.8c0,0-0.1-3.6-0.2-6.1s-0.3-3.4-0.7-3.9c-0.4-0.6-0.2-2.9-0.4-3.4
		c-0.2-0.6-2.9-1.9-4.6-1.6c-1.8,0.2-2.8,2.5-3,3.1s-0.8,0.3-2.4,1.6c-1.6,1.1-7.3,7-7.3,7s-8.6,0.5-14.3,3.7s-6.5,6.1-6.5,6.1
		s-0.6,0.4-2.5,0.7c-2,0.3-4.7,1.3-7.9,5.2c-3.2,3.9-4.9,6.3-4.9,6.3s-0.2-0.2-4.5,0.8c-4.4,1-9.9,4.4-9.9,4.4s0.4,1.6,3.3,3.6
		c1.9,1.3,3.2,2.5,3.8,3.3c-1.4,0.7-2.7,1.4-3.8,2c-0.9,0.2-2,0.6-3.1,0.9c-1.4,0.2-2.5,0.4-3,0.6c-0.8,0.2,0.7,0,2.9,0.3
		c0,0-0.1,0-0.1,0.1c-1.3,0.2-2.9,0.6-4.7,1.1c0.8-0.1,2.1-0.4,3.8-0.7c-0.9,0.6-1.6,1.1-2.1,1.6c-0.7,0.3-1.4,0.7-1.6,0.9
		c-0.2,0.1,0.2,0.1,1,0.1c-0.2,0.2-0.2,0.6-0.3,0.7c0.4-0.4,0.8-0.7,1.2-1c0.5-0.1,0.9-0.1,1.3-0.2c-1.5,1.1-2.8,2.4-3.8,3.5
		c-1.4,1-3,2-5.1,3.1c0.9-0.3,2.5-1.1,4.3-2.2c-0.1,0.1-0.2,0.2-0.2,0.3c-0.7,0.5-1.6,1-2.4,1.6c0.5-0.2,1.1-0.7,2-1.1
		c-1.1,1.2-1.9,2.3-2.3,2.9c1.1-1.3,2.1-2.4,3-3.4c0.2-0.1,0.3-0.2,0.5-0.3c-0.1,0.1-0.2,0.2-0.2,0.2c-0.1,0-0.2,0.1-0.2,0.1
		c0.1,0,0.1,0,0.2,0c-0.4,0.5-0.8,1-1.2,1.5c-0.2,0.1-0.3,0.2-0.5,0.2c0.1,0,0.2-0.1,0.4-0.1c-0.5,0.7-0.9,1.2-1.2,1.6
		c-0.9,0.7-1.8,1.2-1.8,1.2s0,0.2,0.1,0.2c-0.4,0.3-0.9,0.7-1.4,1.1c0.4-0.2,0.9-0.6,1.5-1c0.1,0,0.1,0,0.2,0c0,0,0.1,0,0.1,0.1
		c-0.6,0.6-1.1,1.2-1.6,1.8c-0.5,0.2-1,0.5-1.6,0.7c0.3-0.1,0.8-0.2,1.3-0.4c-0.2,0.3-0.5,0.7-0.7,1.1c-0.4,0.2-0.8,0.4-1.2,0.6
		c0.2-0.1,0.7-0.2,1.1-0.4c-0.1,0.1-0.2,0.2-0.2,0.3c-1.1,0.9-2.4,1.9-3.9,2.8c0.7-0.2,2-0.9,3.4-2c-0.2,0.4-0.5,0.7-0.7,1.1
		c-1,0.7-2.1,1.3-3.5,2c0.7-0.2,1.8-0.8,3.2-1.6c-0.5,0.7-0.8,1.4-1.1,1.9s-0.7,0.9-0.8,1.2c0.2-0.3,0.6-0.7,0.8-1
		c0.1,0,0.2,0,0.3,0c-0.6,0.7-1.1,1.3-1.5,2c-1.1,0.8-2.2,1.8-3.7,2.8c0.7-0.3,1.8-1.1,3.2-2c-0.3,0.6-0.7,1.1-0.9,1.6
		c-0.3,0.2-0.7,0.6-1.1,0.9c0.2-0.2,0.6-0.3,1-0.6c-0.2,0.6-0.4,1-0.6,1.3c-0.5,0.2-1,0.4-1.6,0.6c0.5,0,1.1-0.2,2-0.6l0,0
		c-1,0.4-1.9,0.8-2.7,1.3c-0.7,0.2-1.5,0.3-2.3,0.5c-0.5-0.1-0.9-0.2-1.5-0.3c-0.1,0-0.2,0.1-0.2,0.1c-1.2,0.5-2.2,1.2-2.9,1.9
		c-0.9,0.3-2,0.7-3.3,1.1c0.6-0.1,1.6-0.2,2.8-0.7c-0.2,0.2-0.4,0.5-0.7,0.7c-2,0.6-2.9,1.3-4.2,2.1c-0.1,0-0.2,0.1-0.2,0.1
		c0.1,0,0.1,0,0.2,0c-1.6,1.1-3.6,2.4-8.8,3.5c-9.3,2-11.5,0.4-18.8,2.8c-7.3,2.4-26.8,8.1-31.4,10.1c-0.3,0.2-0.7,0.3-1.1,0.5
		c-5.5,2.4-10.2,6.4-13.2,11.6c-0.3,0.6-0.7,1.1-0.9,1.7c-1.7,3.3-3,6.9-3.8,10.9c-0.8,0.6-1.8,1.2-2.8,1.8c0.4-0.2,1-0.4,1.6-0.8
		l-0.5,0.2c0.4-0.2,0.9-0.5,1.6-0.9c0,0.1,0,0.2-0.1,0.2c-0.5,0.3-1.1,0.7-1.6,1.1c0.4-0.2,0.9-0.5,1.6-0.9c0,0.1-0.1,0.2-0.1,0.3
		l0,0c-0.1,0.1-0.2,0.2-0.2,0.2c-0.5,0.3-1,0.7-1.6,1c0.3-0.1,0.7-0.3,1.1-0.6c-0.1,0.1-0.2,0.2-0.2,0.2c-0.5,0.3-1.1,0.7-1.7,1.2
		c-0.1,0.1-0.1,0.1-0.2,0.1c-1,0.6-2.1,1.2-3.5,2c0.3-0.1,0.7-0.3,1.2-0.6l-0.3,0.2c0.2-0.1,0.3-0.1,0.5-0.2
		c-0.7,0.5-1.5,1.1-2.4,1.6c0.4-0.2,1-0.6,1.6-1l-0.5,0.3c0.2-0.1,0.4-0.2,0.7-0.4c0.3-0.1,0.8-0.3,1.4-0.6
		c-0.2,0.2-0.6,0.3-0.8,0.6c-0.2,0.2-0.5,0.2-0.7,0.4c0.1-0.1,0.2-0.1,0.3-0.2c-0.3,0.2-0.6,0.4-0.9,0.7c0.3-0.2,0.7-0.4,1.2-0.7
		c-0.1,0.1-0.2,0.1-0.2,0.2c-0.3,0.2-0.7,0.6-1.1,0.9c-0.3,0.3-0.7,0.7-1.1,1.5c0.2-0.5,0.7-0.8,1.1-1.2c0.4-0.3,1-0.7,1.7-1.2
		c0.1-0.1,0.2-0.1,0.3-0.2c-0.1,0.1-0.2,0.2-0.3,0.2c-0.1,0-0.1,0.1-0.1,0.1h0.1c-0.6,0.4-1.1,0.8-1.7,1.2c0.3-0.2,0.7-0.4,1.3-0.7
		c-0.4,0.3-0.9,0.7-1.3,1.1c0.5-0.5,1.2-1.1,2.2-1.7c-0.2,0.2-0.3,0.3-0.4,0.5c-0.1,0.1-0.2,0.1-0.2,0.2c0.1,0,0.2-0.1,0.2-0.1
		c-0.1,0.1-0.2,0.2-0.2,0.3c-0.1,0.1-0.2,0.2-0.2,0.2c-0.4,0.3-0.8,0.7-1.2,1.3c0.2-0.3,0.7-0.7,1.1-1c0,0.1-0.1,0.1-0.1,0.2
		c0.1-0.1,0.1-0.2,0.2-0.2c0.2-0.2,0.5-0.4,0.7-0.6c-0.4,0.6-0.7,1.1-0.8,1.5c-1.1,1.1-2.3,2.3-3.8,3.6c0.4-0.3,1-0.7,1.6-1.4
		l-0.5,0.4c0.6-0.5,1.6-1.3,2.8-2.5l0,0l0,0c0.2-0.2,0.3-0.3,0.5-0.5c0,0.1,0,0.1,0,0.1c-0.1,0.1-0.2,0.2-0.3,0.3
		c-0.7,0.6-1.4,1.2-2.3,2s-1.9,1.7-2.9,2.8c-0.2,0.2-0.6,0.4-0.8,0.6c0.2-0.1,0.4-0.2,0.7-0.3c-0.5,0.5-1,1-1.5,1.6
		c-0.3,0.2-0.3,0.3,0.1,0.2c0.2-0.1,0.2-0.2,0.4-0.2c-0.8,0.9-1.9,1.9-3,3.2c0.2-0.2,0.7-0.7,1.1-1.1l-0.3,0.3
		c0.6-0.5,1.7-1.6,3-2.8l-0.2,0.2c-0.8,0.8-1.7,1.7-2.8,2.9c0.3-0.3,0.9-0.8,1.6-1.5c-0.2,0.3-0.5,0.7-0.7,1.2
		c-0.2,0.3-0.5,0.6-0.8,0.9c0.2-0.2,0.4-0.3,0.6-0.6c-0.2,0.2-0.2,0.5-0.3,0.7c-0.2,0.3-0.2,0.7-0.4,1c-0.5,0.5-1,1.1-1.6,1.7
		c0.2-0.2,0.6-0.6,1.1-1l-0.2,0.2c0.2-0.2,0.4-0.3,0.7-0.5c-0.1,0.2-0.2,0.4-0.2,0.5l-0.3,0.3c0.1-0.1,0.2-0.1,0.2-0.2
		c-0.2,0.2-0.4,0.5-0.7,0.8c-1,1.1-2.1,2.5-3.4,4.3l1.2-1.4l-0.3,0.4c0.2-0.2,0.7-0.7,1.1-1.2c-0.8,1.2-2.1,2.7-4,4.7
		c0.2-0.2,0.7-0.6,1.1-1l-0.2,0.3c0.6-0.5,1.6-1.4,2.7-2.6l-0.2,0.2c-0.7,0.8-1.5,1.7-2.5,2.8c0.5-0.4,1.2-1.1,2.1-2.1l-0.2,0.5
		c-1.3,1.2-2.1,1.9-1.7,1.7c0.1-0.1,0.2-0.1,0.4-0.2c-0.2,0.2-0.4,0.4-0.6,0.7c0.2-0.2,0.6-0.5,0.9-0.8c0.2-0.1,0.3-0.2,0.5-0.2
		c-0.1,0.2-0.2,0.3-0.2,0.5c-0.4,0.3-0.8,0.7-1.3,1.1c0.2-0.2,0.6-0.3,1-0.7l-0.2,0.2c0.2-0.1,0.3-0.2,0.5-0.3
		c0,0.1-0.1,0.2-0.1,0.3c0.1-0.1,0.1-0.2,0.2-0.3s0.2-0.1,0.2-0.2c-0.2,0.2-0.2,0.4-0.4,0.6c-0.1,0.1-0.2,0.2-0.2,0.2
		c0.1-0.1,0.2-0.1,0.2-0.2c-0.8,1.3-1.9,2.8-3.1,4.4c0.3-0.3,0.7-0.9,1.3-1.6l-0.3,0.5c0.1-0.1,0.2-0.2,0.3-0.3
		c-0.3,0.7-0.7,1.6-1.1,2.5c-0.4,0.5-0.7,1-1.2,1.6c0.2-0.2,0.5-0.5,0.7-0.8c-0.3,0.6-0.7,1.1-1.1,1.9l0.9-1.3l-0.2,0.4
		c0.1-0.1,0.2-0.2,0.2-0.3c-0.6,0.9-1.2,1.9-2,2.9c-0.1,0.1-0.1,0.1-0.1,0.1c-0.1,0.2-0.2,0.2-0.2,0.4c-1.3,1.9-2.9,4.1-4.7,6.9
		l1.6-2.2l-0.5,0.5c0.8-1.1,2.4-4.4,4.3-6l0,0l-0.2,0.7c-1.1,1.6-2.5,3.7-4.2,6c0.7-0.9,1.9-2.5,3.4-4.6l-0.6,1.1
		c-0.9,1.3-1.9,2.8-3,4.5c0.6-0.7,1.4-1.8,2.4-3.2c-0.3,0.7-0.7,1.4-0.8,2c-0.2,0.2-0.3,0.4-0.5,0.7c-0.1,0.1-0.2,0.2-0.2,0.3
		c-1.9,2.3-2.9,3.9-3.2,4.4c-2,2.5-4.6,5.5-8.3,9.6c0.5-0.5,1.2-1.2,2.1-2.2l-0.6,0.7c0.7-0.7,1.6-1.6,2.9-3
		c-0.7,0.8-1.4,1.7-2.2,2.7c-1.4,1.6-3.1,3.5-5.3,5.3c0.5-0.3,1.1-0.8,2-1.6l-0.6,0.5c1-0.7,2.7-2.4,4.8-4.7l-0.2,0.3
		c-0.4,0.5-0.8,1-1.3,1.5c-1,1.1-2.1,2.2-3.4,3.4c0.8-0.6,2.2-1.8,3.9-3.6l-0.2,0.4c-0.6,0.6-1.2,1.2-1.9,1.8
		c0.4-0.2,0.9-0.7,1.6-1.3l-0.4,0.4c0.1-0.1,0.2-0.2,0.3-0.2l-0.3,0.7c-0.1,0.1-0.2,0.2-0.3,0.2c0.1-0.1,0.2-0.1,0.2-0.2
		c-0.7,0.7-1.4,1.6-2.2,2.3c-1,0.5-2,1-3.2,1.4c0.4-0.1,1.1-0.3,1.9-0.7l-0.5,0.2c0.3-0.1,0.7-0.2,1.2-0.5c-0.2,0.2-0.3,0.3-0.5,0.5
		c0.2-0.2,0.5-0.3,0.7-0.5c0.3-0.2,0.7-0.3,1.2-0.5l-0.2,0.2c-0.8,0.4-1.7,0.8-2.7,1.2c0.6-0.2,1.5-0.5,2.5-1l-0.2,0.2
		c-0.1,0.1-0.2,0.2-0.3,0.3c-0.7,0.4-1.6,0.7-2.5,1.1c0.5-0.2,1.2-0.4,2.1-0.7c-0.5,0.5-1.1,1.1-1.6,1.6c-0.1,0.1-0.1,0.1-0.2,0.2
		c-0.6,0.4-1.2,0.7-2,1.1h-0.1l-0.3-0.4c0,0-0.1,0-0.1,0.1c-0.7,0.2-1.5,0.4-2.2,0.5l-0.3,0.1c-1.1,0.6-2.4,1.1-4,1.9
		c-1,0.2-2.1,0.6-3.3,0.8c0.5-0.1,1.1-0.2,2-0.3l-0.6,0.2c0.2,0,0.4-0.1,0.6-0.1c-0.9,0.3-2,0.7-3,1.1c-0.2-0.1-0.5-0.1-0.7-0.1
		c0.2,0,0.4,0.1,0.7,0.2c-0.4,0.2-0.8,0.2-1.3,0.4c-0.2,0-0.2,0-0.1,0c-0.6,0.2-1.1,0.3-1.7,0.5c0.5-0.1,1.1-0.2,1.9-0.4l0,0
		l-0.2,0.1c0.1,0,0.2-0.1,0.2-0.1s0,0,0.1,0c0.1,0.1,0.2,0.1,0.4,0.2c-0.3,0.1-0.7,0.2-1.1,0.3c0.3-0.1,0.7-0.2,1.1-0.2
		c0.2,0.1,0.3,0.2,0.6,0.2c-0.7,0.2-1.5,0.5-2.4,0.7c0.6-0.1,1.5-0.3,2.6-0.6c0.1,0,0.2,0.1,0.2,0.1c-0.1,0-0.2,0-0.2,0.1
		c0.1,0,0.2,0,0.2,0c-0.8,0.4-1.4,0.8-1.9,1.1l2-1.1c0.2,0.1,0.3,0.1,0.5,0.2c-0.6,0.2-1.2,0.5-2,0.7c0.3-0.1,0.7-0.2,1.3-0.3
		l-0.3,0.2c0.2,0,0.3-0.1,0.5-0.1c-0.9,0.7-1.6,1.1-2.1,1.6c0.7-0.4,1.2-0.7,1.7-1.1c0.2,0,0.3-0.1,0.6-0.2c0,0,0.1,0,0.1,0.1
		c-0.2,0.1-0.3,0.2-0.5,0.3l0,0l0,0c-0.2,0.1-0.3,0.2-0.5,0.2c0.1-0.1,0.2-0.1,0.3-0.1c-0.1,0.1-0.1,0.1-0.2,0.1
		c-0.1,0-0.2,0.1-0.2,0.1c0.1,0,0.2,0,0.2,0c-0.3,0.2-0.7,0.5-0.9,0.7l0.6-0.4c-0.9,0.6-1.6,1.1-2,1.5c1.1-0.7,2.2-1.4,3.2-2
		c0.2-0.1,0.3-0.1,0.5-0.2c0.1,0,0,0,0.1,0h-0.1l0,0v-1c0.1,0,0.1,0,0.2,0c-0.1,0-0.1,0.7-0.2,0.7c-0.2,0-0.2,0.2-0.4,0.2
		c0.1,0,0.2,0.2,0.3,0.2c-0.4,0.1-0.7,0.3-1,0.5c0.2-0.1,0.2-0.1,0.3-0.1c-0.6,0.2-1,0.5-1.1,0.7c0.5-0.2,1.1-0.4,1.6-0.6
		c-0.2,0.2-0.2,0.3-0.4,0.4c0.2-0.2,0.3-0.2,0.5-0.4c0.2,0,0.3-0.1,0.5-0.1c-0.1,0.1-0.1,0.1-0.2,0.2l0,0l0,0l0,0l0,0l0,0
		c-0.1,0-0.1,0.1-0.1,0.1c-0.2,0-0.2,0.1-0.4,0.1c0.1,0,0.2,0,0.3,0c-0.2,0.1-0.2,0.2-0.3,0.3c-0.6,0.2-0.9,0.3-0.4,0.5
		c0.1,0,0.2,0.1,0.2,0.1c-0.3,0.2-0.6,0.2-0.7,0.4c0.2-0.1,0.6-0.2,0.8-0.3l0,0c0,0,0,0,0-0.1c0,0,0,0,0.1,0
		c0.1,0.1,0.2,0.2,0.3,0.2c-0.2,0.3-0.5,0.7-0.6,0.9c0.2-0.2,0.5-0.6,0.7-0.8c0.1,0.1,0.1-0.9,0.2-0.8l-0.1-0.9l0,0c0,0,0,1,0.1,1
		c-0.1,0.1-0.1,0.7-0.2,0.7c-0.1,0-0.2,0.2-0.2,0.2c0.1,0,0.2,0.2,0.2,0.2c-0.1,0.1-0.1,0.2-0.1,0.2c0.1-0.1,0.1-0.1,0.2-0.1
		c0.2,0.1,0.4,0.2,0.6,0.2c-0.2,0.2-0.2,0.3-0.3,0.4c-0.5-0.1-0.9-0.2-1.1-0.2c0.4,0.1,0.7,0.2,1.1,0.2l0,0l0,0
		c0.7,0.2,1.2,0.4,1.8,0.6c-0.2,0-0.4,0-0.6,0c0.3,0.1,0.7,0.1,0.9,0.2c0.2,0.1,0.2,0.1,0.3,0.2l0.2,0.2c-1.6-0.6-3-0.9-3.8-0.9
		l0.4,0.1c-0.6-0.1-1.1-0.2-1.4-0.1c0.9,0.1,1.7,0.3,2.4,0.6c0.2,0.1,0.5,0.2,0.7,0.2c-0.4-0.1-0.7-0.1-1.1-0.1
		c0.6,0.1,1.1,0.2,1.6,0.3c0.2,0.1,0.5,0.2,0.7,0.3c1.1,0.6,2,1.1,2.7,1.6h0.4c0.8,0.2,1.6,0.2,2.4,0.3c0.3,0.1,0.6,0.2,0.9,0.2
		c0.3,0.1,0.7,0.2,0.9,0.3h-0.1h0.1l0,0c-0.3,0.1-0.6,0.2-0.7,0.2c0.3-0.1,0.7-0.1,1-0.1c-0.6,0.2-1.1,0.3-1.3,0.5
		c0.6-0.2,1.1-0.3,1.7-0.3c0.2,0.1,0.2,0.1,0.3,0.2c-0.8,0.2-1.5,0.4-1.9,0.6l0.3-0.1c-0.2,0.1-0.4,0.2-0.6,0.2
		c-0.2,0.1-0.3,0.1-0.4,0.2c-0.1,0-0.1,0.1-0.2,0.1c0.1,0,0.1,0,0.2-0.1h0.1c0.3,0.1,0.8,0.2,1.5,0.4h-0.1c0.1,0,0.1,0,0.2,0
		c0.8,0.2,1.8,0.5,2.8,0.6c-0.1,0-0.2,0-0.3,0c0.3,0,0.6,0,0.8,0s0.2,0,0.4,0c1,0,1.9,0,2.7-0.1c0.1,0,0.1,0.1,0.1,0.2
		c-1.6,0.2-3,0.2-3.8,0.4h0.5l-1.8,0.1c2,0.2,3.5,0.1,4.9,0.1c-0.5,0.3-0.8,0.6-0.6,0.6c0.2-0.1,0.8-0.2,1.6-0.3h-0.1l0.2-0.1
		c0.3-0.1,0.7-0.2,1-0.2c0.2,0,0.3,0,0.4,0l-0.1,0.2c0.1,0,0.1,0.2,0.2,0.2h0.1c-0.7,0-1.2,0.3-1.6,0.5l0.4-0.2
		c-0.6,0.2-1.1,0.3-1.4,0.5c1.4-0.3,2.5-0.7,3.5-1c-0.2,0.1-0.6,0.2-0.7,0.2l0.7-0.2c-0.9,0.2-1.6,0.4-2.2,0.6
		c1.3-0.2,2.5-0.5,3.5-0.7l-0.7,0.9c0,0,0.9-0.3,3.5-1.1c0.8-0.2,1.6-0.5,2.3-0.7c-0.2,0.2-0.3,0.3-0.4,0.4c0.2-0.2,0.5-0.3,0.7-0.5
		c0.2-0.1,0.5-0.2,0.7-0.2l0,0c-0.6,0.3-1,0.7-1.2,0.8c0.2-0.2,0.5-0.3,0.7-0.4c-0.2,0.2-0.4,0.4-0.6,0.6l0.2-0.2
		c-0.3,0.3-0.7,0.6-0.8,0.8c0.8-0.7,1.6-1.1,2.2-1.6c0.1,0,0.1,0,0.2,0c-0.7,0.4-1.2,0.7-1.6,1.1l0.4-0.3c-0.6,0.3-0.9,0.7-1.1,0.9
		c1.4-0.9,2.7-1.5,3.8-1.9c-0.1,0.1-0.2,0.2-0.2,0.2c-0.8,0.4-1.6,0.7-2,0.9c0.6-0.2,1-0.3,1.5-0.4c-0.2,0.2-0.5,0.4-0.7,0.5
		c0.4-0.2,0.9-0.5,1.3-0.7c0.5-0.2,0.9-0.4,1.3-0.6c-0.2,0.2-0.3,0.2-0.4,0.4c-1.1,0.6-2,1.1-2.6,1.3l0.4-0.1
		c-0.6,0.2-1.1,0.3-1.5,0.5c1.1-0.2,1.9-0.4,2.7-0.7c0.7-0.2,1.2-0.5,1.8-0.7c-0.1,0.3-0.2,0.7-0.2,0.8c0.1-0.2,0.5-0.7,1-1.2
		c0.7-0.3,1.3-0.6,1.9-0.8l0.2-0.2c0.1-0.1,0.2-0.2,0.3-0.3c-0.1,0.1-0.2,0.2-0.2,0.3l0.3-0.3c-0.5,0.4-0.8,0.8-1.1,1.1
		c1.2-1,2.2-1.8,3-2.5c0,0.2,0,0.2,0.1,0.3c-0.4,0.4-0.7,0.8-1,1.1c0.4-0.3,0.7-0.7,1.1-1l0,0c0.1,0.1,0.2,0,0.5-0.2
		c-0.5,0.6-0.9,1-1.1,1.3l0.3-0.3l-1.1,1.1c0.9-0.7,1.6-1.2,2.1-1.8l1.3-1.2c-0.1,0.2-0.2,0.4-0.2,0.6c0.2-0.3,0.3-0.6,0.6-0.8
		c0.1-0.1,0.2-0.1,0.2-0.2c0.1,0,0.2-0.1,0.2-0.1c-0.1,0.1-0.1,0.2-0.2,0.2c0,0-0.1,0-0.1-0.1l0.1,0.1c-0.1,0.2-0.2,0.3-0.2,0.5
		c-0.4,0.5-0.7,0.9-1,1.2c0.2-0.2,0.5-0.5,0.7-0.7v0.1l0.1-0.1l0,0c-0.2,0.3-0.3,0.7-0.4,0.9c0.4-0.7,0.8-1.1,1.1-1.6h0.1
		c0.1,0,0.1,0,0.2,0c-0.6,0.7-1.1,1.4-1.4,1.8l0.2-0.2c-0.2,0.2-0.3,0.4-0.6,0.6c-0.2-0.1-0.4-0.1-0.7-0.2c0.2,0.1,0.4,0.2,0.6,0.2
		c-0.2,0.2-0.2,0.3-0.4,0.4c0.2-0.1,0.3-0.2,0.5-0.3c0.3,0.1,0.6,0.1,0.8,0.1c0.4,0,0.7-0.2,1-0.2c0.5-0.2,0.8-0.5,1.1-0.8
		c0.2-0.2,0.5-0.5,0.7-0.7c-0.2,0.2-0.2,0.5-0.4,0.7c0.2-0.3,0.5-0.7,0.7-1.1c0.2-0.2,0.2-0.2,0.3-0.3c0-0.1,0.1-0.1,0.1-0.1
		c-0.2,0.2-0.2,0.5-0.3,0.7c0.2-0.3,0.4-0.6,0.6-0.9c0,0.1-0.1,0.2-0.1,0.2l0.2-0.3c-0.2,0.5-0.4,0.9-0.5,1.2
		c0.3-0.6,0.7-1.1,0.9-1.6c0.1-0.1,0.2-0.2,0.2-0.2c-0.3,0.7-0.7,1.3-0.9,1.7l0.2-0.3c-0.2,0.5-0.6,0.9-0.7,1.1
		c0.7-0.7,1.1-1.4,1.5-2c0.8-0.5,3.4-2.3,5.3-5.2c-0.2,0.6-0.3,1.1-0.4,1.4c0.2-0.7,0.5-1.2,0.7-1.8c0.2-0.2,0.2-0.3,0.4-0.5
		c0,0.1,0,0.2,0,0.2c-0.2,0.7-0.3,1.1-0.5,1.6c0,0.1-0.1,0.1-0.1,0.2c0.1-0.1,0.1-0.1,0.1-0.1c0,0.2-0.1,0.3-0.1,0.4l0.2-0.5
		c-0.1,0.4-0.2,0.7-0.3,1c-0.2,0.2-0.2,0.2-0.4,0.3c0.2-0.1,0.2-0.2,0.4-0.2c-0.1,0.2-0.1,0.4-0.2,0.7c0.1-0.2,0.2-0.5,0.2-0.7
		c0.4-0.3,0.7-0.7,1-1c0.3-0.5,0.6-0.9,0.8-1.3c0.2-0.2,0.2-0.5,0.4-0.7l-0.2,0.7c0.3-0.7,0.7-1.4,0.8-2c0,0,0,0,0-0.1
		c0.1-0.1,0.1-0.2,0.1-0.2c0.1,0.2,0.2,0.5,0.2,0.7c-0.1-0.3-0.1-0.6-0.1-0.8c0.2-0.3,0.2-0.6,0.4-0.9c0.1,0.3,0.1,0.6,0.1,0.7v-0.9
		h0.1l0,0v-0.1c0-0.1,0.1-0.2,0.1-0.3s0.1-0.1,0.1-0.2c0.1,0.6,0.2,1,0.2,1.3v-1c0.1,0.6,0.1,1,0.2,1.3c0-0.5,0-0.9,0-1.3
		c0,0.1,0.1,0.2,0.1,0.2c0-0.2-0.1-0.4-0.1-0.6c0-0.5,0-1,0-1.4c0.1,0.1,0.1,0.2,0.1,0.2c0,0.1,0,0.1,0,0.2c0-0.1,0-0.1,0.1-0.2
		c0,0.1,0.1,0.1,0.1,0.1c0-0.1-0.1-0.1-0.1-0.2c0-0.1,0-0.1,0.1-0.2c0,0.1,0.1,0.1,0.1,0.2c0-0.1-0.1-0.1-0.1-0.2
		c0.1-0.2,0.1-0.2,0.1-0.4c0.1,0.2,0.2,0.2,0.2,0.3c0,0.2-0.1,0.3-0.1,0.5l0.1-0.3c-0.1,0.5-0.2,0.9-0.3,1.2
		c0.2-0.4,0.3-0.8,0.4-1.1c0.1,0.2,0.2,0.2,0.2,0.3c-0.2,0.3-0.3,0.7-0.4,0.9c0.2-0.2,0.3-0.6,0.5-0.8l0,0l0,0
		c0.2-0.5,0.5-1,0.7-1.5v0.1c0-0.1,0-0.1,0-0.2v-0.1c0,0.5-0.1,1-0.1,1.3c0.1-0.7,0.2-1.3,0.3-1.9c0.1-0.2,0.2-0.5,0.2-0.7
		c-0.1,1.1-0.1,2-0.1,2.5l0.1-0.4c-0.1,0.6-0.1,1.1-0.2,1.4c0.2-0.9,0.3-1.6,0.5-2.4c0.5-1.3,0.9-2.5,1.3-3.4l0.2-0.2
		c-0.5,1.6-0.9,3-1.1,3.8l0.2-0.4c-0.2,0.6-0.3,1.1-0.5,1.5c0.8-1.9,1.3-3.3,1.9-4.5c0.3-0.8,0.7-1.6,1-2.1c0.4,0.8,0.5,0.9,0.4,0.7
		s-0.2-0.5-0.2-1.1c0-0.1,0.1-0.1,0.1-0.2c0,0.1,0,0.1,0.1,0.2v-0.2l0,0c0.1,0.6,0.2,1,0.3,1.3c-0.1-0.7-0.2-1.5-0.2-2
		c0.1-0.9,0.2-1.7,0.3-2.6c0,0.1,0,0.1,0.1,0.2c0-0.1,0-0.2,0-0.2c0-0.1,0-0.2,0.1-0.2c0,0.1,0,0.2-0.1,0.2c0-0.2-0.1-0.4-0.1-0.6
		l0.1-0.2c0,0.2,0,0.4,0.1,0.7c0.1,1.3,0.1,2.4,0,3.2c0.2-0.7,0.2-1.4,0.2-2c0,0.1,0.1,0.2,0.1,0.2c0-0.2-0.1-0.4-0.1-0.6
		c0-0.1,0-0.2,0-0.3c0-0.2,0-0.5,0-0.7c0.1,0.2,0.1,0.3,0.1,0.5l0.1-0.4c0.1,0.3,0.3,0.7,0.3,1v0.1c0,0.8-0.1,1.6-0.1,2
		c0-0.2,0-0.4,0-0.6c-0.1,0.8-0.2,1.6-0.7,2.4c0.4-0.5,0.5-0.9,0.6-1.3c0.1-0.3,0.1-0.7,0.2-1c0-0.2,0.1-0.5,0.1-0.8
		c0.1,0.2,0.1,0.4,0.2,0.6c-0.1-0.3-0.1-0.7-0.1-1.1c0-0.1,0-0.2,0-0.3c0.1-1,0.1-1.9,0.2-2.5c0-0.2,0.1-0.3,0.1-0.5
		c0,0.2,0.1,0.3,0.1,0.5c0-0.2,0-0.5,0-0.7c0.1-0.2,0.1-0.4,0.2-0.7c0.2,0.6,0.2,1,0.3,1.3c0.1,0.4,0.1,0.7,0.2,1.1
		c0-0.2,0-0.5,0-0.7c0.2,0.2,0.2-2.2,0.5-4.7c0.1-0.1,0.1-0.2,0.2-0.2c0.1,0.5,0.2,0.8,0.3,1.1c-0.1-0.3-0.1-0.7-0.2-1
		c0.1-0.1,0.1-0.2,0.2-0.2c0,0.1,0,0.2,0,0.3c0,0.2,0,0.4,0,0.6l0.1-0.3c0,0.2,0.1,0.3,0.1,0.5c0-0.3,0-0.6,0-0.8V623
		c0,0.2,0.1,0.2,0.1,0.4c0.1,0.2,0.1,0.4,0.2,0.6l-0.1-0.3c0.1,0.6,0.2,1,0.3,1.3c0-0.2-0.1-0.3-0.1-0.4c0-0.1,0-0.1,0-0.2
		c0,0.2,0.1,0.4,0.1,0.6c0-0.3,0-0.7,0-1l0,0c0,0.2,0.1,0.3,0.1,0.5c0-0.1,0-0.1,0-0.2v0.1c0-0.3,0-0.6,0-0.8s0.1-0.3,0.1-0.4
		c0.1-0.1,0.1-0.2,0.2-0.2c0.1,0.6,0.2,1.1,0.2,1.5v-0.2v0.1c0.1,0.5,0.1,0.8,0.2,1.1c0-0.1,0-0.1,0-0.1v0.1c0-1.1,0-2,0.1-2.9
		c0,0.1,0.1,0.2,0.1,0.2v0.2c0-0.1,0-0.1,0-0.2c0,0.1,0.1,0.2,0.1,0.3v-0.2c0.1,0.4,0.2,0.7,0.2,0.9c-0.1-0.8-0.1-1.6-0.1-2.2
		l0.1-0.1c0.1,0.5,0.2,1,0.4,1.3c0,0.2,0.1,0.5,0.1,0.7V623c0.1,0.2,0.2,0.4,0.2,0.6c-0.1-0.3-0.2-0.7-0.2-1v-0.8c0-0.1,0-0.1,0-0.1
		c0.1,0.5,0.3,0.9,0.5,1.2c0,0.2,0.2,0.3,0.2,0.4V623H113c0,0.7,0,1.1,0.1,1.6c0-0.4,0-0.9,0-1.3c0,0.1,0.1,0.1,0.1,0.2l-0.1-0.2
		l0,0c0,0.4,0.3,0.7,0.4,0.9c-0.2-0.6-0.3-1.1-0.4-1.6c0-0.1,0-0.2,0-0.3c0.1,0.2,0.1,0.2,0.2,0.3c-0.1-0.3,0.3-1.6,0.7-3.2
		c0.4,1.1,0.7,2.4,1.1,3.7c1.7,9.1,3.4,20.7-0.8,28.4c0.1,2.4-2.9,5-4.1,7.7c-1.2,2.6-0.1,7.3,1,11.7s4.3,24.1,4.6,24.8
		c0.2,0.7,1.3,2.8,2.9,3.6c1.7,0.8,2.7,0.7,3.7,0.2c0.9-0.5,1.5,0.1,2.8-0.1c1.2-0.2,1.3-0.2,1.3-0.2l0.3,0.8c0,0,0.6-0.7,0.7-1.1
		c0.1-0.4,0.5,0,1.7-0.2c1.1-0.2,2.6-2,2.6-2s0.6,0.2,1.1,0.7c0.6,0.5,0.2-0.4-0.3-1.6c-0.5-1.2-0.2-1.5-0.2-1.5s-0.4-1.1-1.9-1.9
		c-1.5-0.8-2.4-1.1-3.6-1.5c-1.2-0.3-1.2-0.2-2.7-3.3s-3-18.7-3-18.7s0.7,2.8,2,5.5s8.9,13.8,9.1,14.6s1.3,2,2.5,2.9
		c1.1,0.9,2.3-0.2,3.3-0.3s1.6,0.3,4.4,0.3c2.9,0,3.9-0.5,4.7-0.9c0.7-0.4,1.6,0.2,1.6,0.2l0.1-1c0,0,2-0.2,2.7-0.4
		c0.7-0.3,1.1-0.9,1.5-1.5s2.2,0.4,2.2,0.4s0,0,0-0.7c-0.1-0.7-0.9-1.5-0.9-1.5s-0.4-0.9-0.9-1.2c-0.6-0.3-1.9-1.9-4.7-2
		c-2.8-0.2-9.2,0.2-9.2,0.2s-5.7-9.9-6.5-13.9c-0.6-2.9,0.7-9.6,1.2-13.4c0,0,0.2-1.5,0.7-3.4c0,0-0.1,0-0.1-0.1c0,0,0-0.1,0.1-0.1
		v0.1c0.2-0.9,0.4-2,0.7-2.9c0.7-2.9,2.3-6.1,5.8-7.5c3.5-1.6,5.7-4.2,5.7-4.2c3.4-5.4,7-11.5,8-13.8c1.3-2.9,2.7-6.1,3.4-7.6
		c0.2-0.2,0.4-0.3,0.7-0.6v0.1l-0.1,0.6c-0.1,0.1-0.2,0.2-0.2,0.2l0.2-0.2c-0.3,0.3-0.7,0.7-0.8,0.9c0.4-0.3,0.7-0.7,1.1-1l0.1,0.2
		c0.2,0,0.2,0,0.4,0c0,0.1,0,0.2,0,0.2c0-0.1,0.1-0.2,0.1-0.2c0.1,0,0.1,0,0.2,0l-0.1,0.1l0.1-0.1c0.1,0,0.1,0,0.1,0
		c0,0.1,0,0.2,0,0.2l0,0l0,0c0,0.1,0,0.2,0,0.2l0.1-0.2c-0.1,0.2-0.1,0.5-0.1,0.7l-0.1,0.1c0,0,0.1,0,0.1-0.1c0,0.1,0,0.1,0,0.2
		c0-0.1,0-0.2,0.1-0.2c0.3-0.2,0.7-0.3,1-0.5c-0.2,0.3-0.2,0.6-0.3,0.8c0.2-0.3,0.3-0.7,0.6-0.9c0.6-0.2,1.1-0.5,1.6-0.7
		c-0.4,0.2-0.7,0.5-0.9,0.7c0.9-0.5,1.6-0.9,2.4-1.1c0.2-0.1,0.6-0.2,0.8-0.2c-1.3,0.7-2.3,1.3-2.8,1.7l0.3-0.2
		c-0.5,0.3-0.9,0.6-1.1,0.8c1.6-0.9,2.9-1.4,3.9-1.8c-0.2,0.2-0.2,0.2-0.3,0.4c0.2-0.2,0.4-0.3,0.7-0.5h0.1c0.2-0.1,0.4-0.1,0.6-0.2
		c-0.3,0.3-0.6,0.6-0.8,0.8c-0.6,0.1-1.1,0.1-1.4,0.2c0.4,0,0.7,0,1.1,0c-0.1,0.1-0.2,0.2-0.3,0.3c-0.2,0-0.3,0.1-0.5,0.1h0.7l0,0
		c0,0-1.6,0.1-2,0c0.7,0.1,1.2,0.2,1.7,0.2c0,0-0.1,0-0.1,0.1c0,0,0.1,0,0.1-0.1c0.7,0,1.4,0,2-0.1c0.7-0.1,1.3-0.1,1.9-0.2
		l-0.1,0.1c0.1,0,0.1-0.1,0.1-0.1c0.3,0,0.6-0.1,0.8-0.1c-0.2,0.2-0.4,0.3-0.5,0.5l0.4-0.2c-0.6,0.4-1,0.7-1.2,1.1
		c0.7-0.5,1.4-1,2-1.3c1.1-0.1,2-0.2,2.9-0.2c-0.2-0.1-0.2-0.2-0.3-0.1c0.2-0.1,0.4-0.7,0.7-0.7h0.1l0.1,0.3c0.5-0.2,1-0.3,1.4-0.5
		c0.2-0.1,0.3-0.2,0.5-0.3c0.1,0,0.2,0,0.3,0c-0.2,0.1-0.2,0.1-0.3,0.2c0.4-0.1,0.8-0.2,1.1-0.4l0.3,0.1c-1.8,0.7-3.2,1.6-3.9,2
		l0.4-0.2c-0.7,0.3-1.1,0.7-1.5,0.8c2.2-1.1,4.1-1.6,5.5-2c0.1,0,0.1,0,0.2-0.1c-0.9,0.4-1.6,0.8-2.1,1.1l0.5-0.2
		c-0.7,0.3-1.2,0.7-1.6,0.8c1.8-0.7,3.4-1.3,4.7-1.8c-0.2,0.2-0.3,0.3-0.5,0.5c-0.3,0.2-0.3,0.4-0.1,0.5l-0.5,0.2
		c0.2,0,0.4-0.1,0.7-0.1c0.4,0.1,1.2,0.2,2.5,0.3c0.3,0,0.7,0,0.9,0c-0.2,0.2-0.5,0.2-0.7,0.4c0.3-0.2,0.6-0.2,0.9-0.4
		c0.3,0,0.7-0.1,1-0.2c-0.7,0.3-1.1,0.7-1.6,0.9l0.4-0.2c-0.7,0.3-1.1,0.7-1.5,0.8c2.4-1.1,4.2-1.8,5.6-2.2c0.3,0,0.9,0,1.5,0
		c-0.1,0-0.2,0.1-0.3,0.1c0.2,0,0.4-0.1,0.7-0.1c-0.3,0.6-1.3,1.3-0.9,1.2c0.1,0,0.2-0.1,0.5-0.2c-0.3,0.3-0.6,0.6-0.7,0.8
		c0.4-0.3,0.8-0.7,1.1-1c0.2-0.1,0.5-0.2,0.7-0.3c-0.7,0.7-1.2,1.2-1.5,1.6l0.3-0.2c-0.4,0.4-0.7,0.7-1,1.1c0.8-0.7,1.6-1.3,2.3-1.8
		c-0.2,0.2-0.3,0.5-0.3,0.7c0.2-0.3,0.5-0.7,0.7-0.9s0.5-0.3,0.7-0.5c-0.5,0.7-0.9,1.2-1.1,1.6l0.2-0.3c-0.3,0.4-0.5,0.8-0.6,1.1
		c0.9-1.3,1.8-2.2,2.7-2.9c0,0.2-0.1,0.5-0.2,0.9c-0.1,0.1-0.1,0.1-0.2,0.2c0.1,0,0.1-0.1,0.2-0.1c0,0.1-0.1,0.2-0.1,0.3
		c-0.2,0.7,1.5-0.4,2.9-1.5c0.2,0,0.3,0,0.5-0.1c-0.7,0.5-1.2,0.9-1.6,1.2l0.4-0.2c-0.6,0.4-1,0.8-1.3,1.1c0.7-0.5,1.4-1,2-1.4
		c-0.4,0.5-0.7,1-0.8,1.3c0.5-0.6,0.9-1.1,1.4-1.6c0.2-0.1,0.4-0.2,0.6-0.3c-0.3,0.4-0.7,0.7-0.9,1.1c-0.1,0-0.1,0-0.1,0h0.1
		c-0.2,0.4-0.5,0.7-0.7,1l0.2-0.3c-0.3,0.5-0.6,0.9-0.7,1.2c0.5-0.6,0.9-1.1,1.3-1.6c0.1-0.1,0.2-0.2,0.3-0.2s0.1,0,0.2,0
		c0,0,0,0.1-0.1,0.1c-0.1,0.2-0.2,0.3-0.2,0.5c-0.1,0.2-0.2,0.2-0.3,0.4l0.3-0.2c-0.4,0.4-0.7,0.8-1,1.1c0.5-0.4,0.9-0.8,1.3-1.1
		c0.3-0.2,0.8-0.6,1.4-0.8c0.4-0.1,0.8-0.2,1.3-0.3c-1.2,1.1-2.4,2-2.9,2.5c1.6-1,2.8-2,3.8-2.8l0.3-0.2c-1.6,1.4-2.9,2.5-3.7,3.2
		l0.5-0.3l-1.6,1.1c2.5-1.5,4.2-2.8,5.6-3.8c0.3-0.2,0.6-0.4,0.8-0.6l-0.1,0.1l0.2-0.2l0,0c-0.2,0.4-0.5,0.7-0.7,1
		c0.4-0.5,0.8-0.9,1.2-1.3c0.1,0,0.1-0.1,0.2-0.1c0,0.2-0.1,0.4-0.1,0.6l0.1-0.2c-0.1,0.3-0.1,0.6-0.2,0.7c0.2-0.6,0.3-1,0.5-1.3
		c0.2-0.1,0.4-0.2,0.6-0.3c-0.1,0.2-0.1,0.3-0.1,0.4l0.1-0.2c-0.2,0.4-0.3,0.7-0.4,1.1c0.3-0.5,0.6-1,0.8-1.4
		c0.2-0.1,0.3-0.2,0.4-0.2l0.2-0.1c0.1-0.1,0.2-0.2,0.2-0.2c0.2-0.1,0.3-0.2,0.4-0.2c-0.3,0.7-0.5,1.3-0.7,1.7
		c0.3-0.7,0.6-1.1,0.8-1.7c0.1,0.1,0.1,0.1,0.2,0.2c-0.2,0.7-0.5,1.2-0.6,1.6l0.2-0.3c-0.2,0.5-0.4,1-0.5,1.3
		c0.5-0.9,0.9-1.6,1.2-2.3l0,0c0.2,0.2,0.3,0.4,0.5,0.6c-0.2,0.2-0.2,0.4-0.3,0.6c0.2-0.2,0.2-0.3,0.4-0.5c0.1,0.1,0.1,0.2,0.1,0.2
		s0,0.1,0,0.2c-0.1,0.1,0.2,0.2,0.2,0.2c-1,0.4-0.4,0.6-0.6,0.8c0.2-0.2,0.3-0.5,0.6-0.7c0.2,2.8-0.1,17.2,1.1,19.9
		c1.3,2.9,2,20.9,2.2,22.9s-0.4,7.4,1.1,12.1c1.6,4.7,3.2,10.6,3.3,11.1s-1.4,4.7-1.1,8.1c0.3,3.4,0.9,0.7,1.5,0.7
		c0.6,0.1,2,2.7,3.1,3.8s2,0.8,4,0.7s2.5-0.6,2.5-0.6l0.2,0.5c0,0,1-0.4,1.6-1.1c0.5-0.8,1-0.4,2.4-0.8c1.4-0.4,1.4-1.2,1.4-1.2
		s0.3,0.1,0.7,0.2c0.3,0.2,0.1-1.7,0.1-1.7s0.2-0.3,0.2-1.1c0.1-0.7-0.4-1.9-1-2.9c-0.7-1.1-3.2-2.4-4.3-3.8
		c-1.1-1.5-1.7-8.8-2.8-10.6c-1.1-1.9-0.8-4.6-0.2-6.4c0.6-1.9,0.3-15.2-0.2-24.9c-0.4-7.5,2.1-20.9,3.3-26.3
		c0.2-0.2,0.2-0.4,0.4-0.7c0.2,0.7,0.4,1.2,0.7,1.8c-0.1,0.1-0.2,0.2-0.2,0.3v0.1c-0.1,0.1-0.2,0.2-0.4,0.2c0.1,0.2,0.4,0.4,0.4,0.7
		c0,0.5,0,1,0,1.6c0.1-0.2,0.2-0.7,0.4-1.1c0.2,0.4,0.4,0.8,0.7,1.2c0,0.7-0.1,1.6-0.3,2.5c0.2-0.4,0.5-1.1,0.6-2.1
		c0.3,0.4,0.6,0.8,0.8,1.1c0.2,0.7,0.3,1.5,0.3,2.2c0,0.4,0.1,1.1,0.2,1.9c-0.2,0.6-0.3,1.2-0.6,2c0.2-0.3,0.4-0.7,0.6-1.4
		c0.4,6.7,1,22.1,0.8,24.5c-0.2,2.9-1,11.4-1,13.2s2.4,3.2,2.4,3.2l3,11.4c0,0,1,1.8,2,2.9c1.1,1.1,0.4,4.3,0.8,5.6
		c0.5,1.3,1.9,2,3.2,2s2.5-0.3,2.9-0.2c0.4,0,2,0.2,4.1,0s3-1.1,3-1.1s2.9,0.2,4-0.2s1.5-1.5,1.5-1.5l1,0.4c0,0,0.4-1.1,0.1-1.6
		c-0.2-0.6,0-1-0.7-2.2s-2-1.6-3.6-1.9c-1.6-0.2-6-1.1-6.7-1.5c-0.7-0.3-1.3-0.6-2.5-2.9c-1.1-2.3-2.5-8.9-2.8-10.1
		c-0.3-1.1-0.2-1.6,1.1-5.6c1.2-4.1,2.3-17.4,2.9-26.5c0.6-9.2,2.9-27.7,2.9-27.7s1.9-2.8,3.4-7.3s2.1-4.1,2.1-4.1s0.5,1,0.6,2.2
		c0,1.1,0,0.2,0.8-2.1c-0.1,0.5-0.2,1-0.2,1.3c0.1-0.2,0.1-0.4,0.2-0.7c-0.2,1-0.4,1.8-0.6,2.4c0.7-1.6,0.9-2.9,1.1-4.2
		c0.3-1.1,0.5-2,0.7-2.9c0.1,0.2,0.1,0.4,0.2,0.6c0.1,1,0.3-0.2,0.6-2.5c0.1,1.5,0.1,2.7,0.1,3.4c0.2-2.1,0.1-3.8,0.1-5.3l0.1-0.4
		c0,0.3,0.1,0.7,0.1,1.1c0,0.2,0,0.5,0,0.7c0-0.1,0-0.2,0.1-0.3c0.2,1.8,0.2,3.3,0.2,4.1v-1.1c0,0.9-0.1,1.6-0.1,2.2
		c0.3-1.6,0.3-3.1,0.4-4.3c0-0.3,0-0.6,0-0.8c0.2-0.9,0.2-1.6,0.3-2.4c0.2-0.4,0.4-0.8,0.6-1.3c0,0.7,0,1.1,0,1.6
		c0.1-0.7,0.3-1.4,0.3-2c0-0.1,0.1-0.2,0.2-0.2c0.1,0.8,0,1.5,0,2c0-0.1,0-0.2,0-0.2c0,0.2,0,0.2,0,0.4c0,0.6-0.1,1.1-0.1,1.5
		c0-0.2,0-0.3,0.1-0.4c0,0.3,0,0.6-0.1,0.7c0.2-0.9,0.2-1.7,0.2-2.5c0-0.3,0.1-0.7,0.1-1.1c0,0.2,0,0.5,0,0.7c0-0.2,0.1-0.5,0.1-0.7
		c0,0.1,0.1,0.1,0.1,0.1c0,0.2,0,0.5,0,0.7c0.1,1.1,0,2,0,2.5c0-0.2,0.1-0.5,0.1-0.7c-0.1,1.1-0.2,1.9-0.4,2.5
		c0.6-1.7,0.7-3.2,0.7-4.6c0.3,0.3,0.2,0.2,0-0.2V584c0-0.2,0-0.2,0-0.4c0.3-1.4,0.6-2.7,0.7-3.8c0-0.3,0.1-0.7,0.1-1
		c0.1-0.4,0.2-1.2,0.2-2c0-0.2-0.5-0.2-0.5-0.4c0.1,0.1-0.3,0.2-0.3,0.3l0,0h0.6c0.1,0.1,0.4,0.2,0.4,0.2c0,0.1,0.1,0.2,0.1,0.2
		l0.1-0.2c0,0,0,0,0.1,0c-0.2,0.7-0.2,1.3-0.4,1.8c0.2-0.6,0.4-1.1,0.5-1.6c0,0,0,0.1,0.1,0.1c0,0,0-0.1-0.1-0.1
		c0-0.2,0.1-0.3,0.1-0.5c0,0.1,0.1,0.1,0.1,0.2c-0.1,0.5-0.1,0.9-0.2,1.2c0.1-0.4,0.2-0.9,0.3-1.3c0,0,0,0.1,0.1,0.1l-0.1-0.1l0,0
		c0.2,0.4,0.5,0.7,0.7,0.9c-0.2-0.4-0.4-0.7-0.7-1.1c0-0.1,0-0.2,0.1-0.3c0.1,0.2,0.3,0.2,0.4,0.3v-0.2c-0.1-0.2-0.2-0.4-0.2-0.7
		c0.1-0.6,0.1-1.1,0.2-1.6c0.1-0.6,0.1-1.1,0.1-1.6c0.1-0.6,0.2-1.1,0.2-1.6c0.1,0.2,0.1,0.2,0.2,0.3l-0.1-0.5
		c0.2,0.7,0.4,1.3,0.6,1.7c-0.2-0.8-0.3-1.6-0.5-2.3c0-0.2,0.1-0.3,0.1-0.5c0,0.1,0.1,0.2,0.1,0.3c0-0.2-0.1-0.2-0.1-0.4
		c0-0.1,0-0.1,0-0.1c0.1,0.3,0.2,0.7,0.2,0.9l-0.1-0.5c0.2,0.7,0.3,1.4,0.5,1.8c-0.2-1-0.3-1.9-0.4-2.7c0.1,0.2,0.2,0.4,0.2,0.6
		l-0.2-0.6c0.2,0.8,0.5,1.5,0.7,1.9c-0.3-1.1-0.6-2-0.7-2.9c0.1-0.3,0.2-0.7,0.2-0.9c0.1,0.2,0.2,0.5,0.2,0.7l-0.1-0.6
		c0.2,0.8,0.3,1.6,0.5,2c-0.2-1.1-0.3-2-0.4-2.9V566l-0.7-0.2c-0.2-1.1-1.1-2.4-1.1-3.5l0,0c2.4-0.6,1.1-1.1,1.2-1.5l0.4-0.1
		c-0.1,1,0.2,1.9,0.2,2.6c0,0.1,0.1,0.2,0,0.3c0-0.1,0.1-0.2,0.2-0.2c0,0.5,0.1,0.9,0.2,1.2c0-0.6,0-1.1,0-1.6
		c0.1-0.3,0.2-0.7,0.3-1c0,0.5,0,1,0.1,1.3c0,0,0.2,0,0.3,0c0-0.1,0-0.2,0-0.2c0.2-0.3,0.4-0.7,0.6-1c0,0.1,0,0.2,0,0.2
		c0-0.1,0-0.2,0-0.3v-0.1c0,0.1,0.1,0.2,0.1,0.2c-0.1,0.3-0.1,0.6-0.2,0.8c0.1-0.2,0.2-0.5,0.2-0.7c0,0.1,0.1,0.2,0.2,0.3
		c0,0.2,0,0.2,0,0.4c0-0.1,0-0.2,0.1-0.3c0.1,0.3,0.2,0.6,0.3,0.7c0.2,0.6-0.2-0.2,0.2-3v-0.1c-0.1,1.9-0.1,3.4-0.1,4.3
		c0.2-2,0.2-3.8,0.4-5.3l0.1-0.3c0,0.2,0,0.3,0,0.5c0,2.1,0,3.8,0,4.8l0.1-0.6c-0.1,0.9-0.1,1.6-0.1,2.1c0.2-1.6,0.4-2.9,0.5-4.2
		c0-0.4,0.1-0.7,0.1-1.1c0,0.7,0.1,1.3,0.1,1.8v-0.5c0,0.7,0,1.4,0,1.9c0.1-1.6,0.2-2.9,0.3-4c0.1,0.5,0.2,0.8,0.3,1.1
		c-0.1-0.7-0.2-1.1-0.3-1.7c0.1-0.7,0.1-1.2,0.2-1.8c0-0.2,0.1-0.3,0.1-0.5c-0.1,0.7-0.1,1.3-0.1,1.7l0.1-0.5
		c-0.1,0.7-0.1,1.2-0.1,1.6c0.2-1.2,0.3-2.3,0.6-3.3c0.2,0.3,0.3,0.7,0.5,0.8c-0.2-0.4-0.3-0.7-0.4-1.1c0-0.2,0.1-0.3,0.1-0.5
		c0.2,0.6,0.5,1,0.7,1.3l-0.2-0.3c0.2,0.5,0.5,1,0.7,1.2c-0.5-1.1-0.8-2-1.1-2.9c0.1-0.3,0.2-0.6,0.2-0.8c0.1,0.1,0.1,0.1,0.2,0.2
		c0,0.1,0,0.2,0.1,0.3v-0.3l0,0c0.1,0.7,0.2,1.2,0.2,1.6c0-0.5-0.1-1-0.1-1.5c0.1,0.1,0.2,0.2,0.2,0.2c0.1,0.1,0.2,0.2,0.2,0.2
		c0,0.2,0,0.3-0.1,0.4c0-0.1,0-0.2,0.1-0.2c0,0.1,0,0.2,0,0.3c0-0.2,0.1-0.4,0.1-0.7h0.2h0.2l0,0c0-3.1,1.3-5.6,2-7.7
		c0.2-0.6,0.2-1,0.4-1.5c0,0.2,0,0.3,0,0.5c0-0.2,0-0.4,0-0.7c0-0.1,0.1-0.2,0.1-0.2c0,0.8,0,1.6,0,2c0.1-0.9,0.1-1.8,0.2-2.6v-0.1
		c0,0.5,0.1,1,0.1,1.3v-0.5c0,0.7,0.1,1.4,0.2,1.8c0-0.2,0-0.3,0-0.5c0,0.2,0,0.2,0,0.3v-0.6c0,0.8,0,1.5,0,2
		c0.1-1.2,0.2-2.4,0.3-3.4v0.1c0-0.1,0-0.1,0-0.2c0-0.1,0-0.2,0-0.3c0.1-0.2,0.2-0.4,0.2-0.8c0.1,0.5,0.2,0.9,0.2,1.1V544
		c0.1,0.6,0.1,1.1,0.2,1.4c0-1.6,0-2.9,0-4c0-0.2,0.1-0.3,0.1-0.5c0.1-0.2,0.2-0.3,0.2-0.5c-0.1,0.5-0.1,1-0.1,1.3l0.1-0.6
		c-0.2,0.9-0.2,1.6-0.2,2.1c0.2-0.7,0.3-1.4,0.4-2c0.1,0.4,0.2,0.8,0.3,1.1c-0.1-0.6-0.2-1.1-0.2-1.5c0-0.2,0.1-0.3,0.1-0.6
		c0.1,0.1,0.1,0.2,0.2,0.3c0.1,0.7,0.2,1.2,0.4,1.6l-0.1-0.4c0.1,0.6,0.2,1.1,0.4,1.4c-0.2-1.1-0.3-2-0.3-2.8
		c0.1,0.1,0.1,0.2,0.2,0.3l-0.1-0.3c0.2,0.5,0.4,0.9,0.6,1.2c-0.2-0.7-0.3-1.2-0.5-1.7c0.2,0.4,0.5,0.8,0.5,1.1s0.1,0.2,0.2-0.3
		c0.2,0.3,0.2,0.7,0.4,0.9c-0.1-0.4-0.2-0.8-0.3-1.2c0.1-0.6,0.2-1.5,0.4-2.6c0-0.1,0-0.2,0-0.2c0,0.2,0,0.3,0,0.4
		c0-1.2,0.1-2.4,0.1-3.4c0.1-0.2,0.1-0.5,0.2-0.7c0.1,1.1,0.2,2,0.2,2.5v-0.5c0,0.7,0.1,1.3,0.2,1.7c0-0.7,0-1.4,0-2l0.1,1.5
		c0-1.6,0-3-0.1-4.3c0-0.5,0-1,0-1.4c0.1,0.1,0.1,0.2,0.2,0.2l0.4,4.9v-1l0.1,3.4c0.1-2.4,0.1-4.5,0-6.5c0.1,0.2,0.1,0.2,0.1,0.3
		c-0.1,0.6,0.2-0.3,0.2-2c0.1-0.4,0.2-0.8,0.2-1.3l0.7,3.8c0-0.6-0.1-1.1-0.1-1.6c0.2-0.5,0.3-1,0.4-1.4c0.2,0.9,0.3,1.6,0.4,2.1
		c-0.1-1-0.2-1.8-0.3-2.7c0.1-0.4,0.1-0.7,0.1-1.1c0.2,1.4,0.5,2.5,0.7,3.3l-0.1-0.8c0.2,1.1,0.2,2.1,0.3,2.8
		c-0.1-3.1-0.5-5.6-0.8-7.7c0.2,0.1,0.4,0.2,0.6,0.3c0.7,0.3,0.2,0.1-0.7-1.5l-0.2-1c0.1,0.2,0.2,0.2,0.3,0.4l-0.2-0.2
		c0.2,0.4,0.5,0.7,0.7,0.9c-0.4-0.7-0.7-1.2-1-1.8c0-0.6,0-1.1,0-1.5v-0.1c0.1,0.1,0.1,0.2,0.2,0.2c0.1,0.2,0.2,0.4,0.2,0.6
		c0.2,0.8,0.4,1.5,0.5,2c-0.2-0.7-0.2-1.5-0.4-2.2c0,0.1,0.1,0.1,0.2,0.2c-0.1-0.1-0.1-0.2-0.2-0.2c-0.1-0.2-0.1-0.6-0.2-0.8
		c0.1,0.2,0.2,0.2,0.3,0.4c0.1,0.2,0.2,0.5,0.3,0.7c0.2,0.6,0.2,1.1,0.4,1.4l-0.2-0.8c0.2,1.1,0.5,2.1,0.7,2.8
		c-0.1-0.8-0.2-1.6-0.4-2.3v0.1c0-0.1,0-0.1,0-0.2c-0.1-0.3-0.1-0.7-0.2-1.1c0.2,0.2,0.2,0.3,0.3,0.4c-0.2-0.2-0.2-0.5-0.4-0.7
		c-0.1-0.6-0.2-1.1-0.3-1.7c0.2,0.3,0.4,0.6,0.6,0.7c-0.2-0.4-0.4-0.8-0.7-1.1c0-0.2-0.1-0.5-0.1-0.7c0.4,0.7,0.8,1.2,1.1,1.6
		l-0.2-0.3c0.3,0.5,0.6,0.9,0.8,1.1c-1-1.8-1.6-3.1-2-4.2v0.2c0-0.1,0-0.1,0-0.1c0-0.2,0-0.5,0-0.7c0.1,0.1-0.4,0.1-0.3,0.2
		l-0.7-0.2l0,0c0,0.2,0.7,0.2,0.8,0.3c0.2,0.8,0.7,1.5,0.7,2c-0.1-0.7-0.1-1.2-0.2-1.8c0.1,0.1,0.2,0.1,0.2,0.2
		c-0.1-0.1-0.1-0.2-0.2-0.2c-0.1-0.4-0.2-0.9-0.2-1.3c0.2,0.2,0.2,0.2,0.4,0.3c0.1,0.9,0.2,1.6,0.2,2.1c0-0.6,0-1.1,0-1.6
		c0.2,0.7,0.3,1.3,0.5,1.7l-0.2-0.7c0.1,0.2,0.1,0.5,0.2,0.7c0,0.6-0.1,1.1-0.1,1.5c0.1-0.4,0.2-0.8,0.2-1.2
		c0.2,0.6,0.2,1.1,0.3,1.5c-0.1-0.7-0.2-1.3-0.3-1.9c0.2-1.6-0.7-3.1-0.9-4.4c-0.2-1.4-1.5-2.6-1.5-3.8l0,0c2.4,0.8,1.7,1.6,1.7,2.3
		c0.3,1.1,0.9,2,1.1,2.5c-0.7-2.5-1.1-4.7-1.6-6.6c0-0.8,0-1.8,0-2.6c0.1-0.1,0.2-0.2,0.2-0.3c0.1,0.2,0.2,0.2,0.3,0.4
		c-0.1-0.2-0.2-0.3-0.2-0.5c0.1-0.2,0.2-0.3,0.2-0.5c0.1,0.2,0.2,0.3,0.3,0.4c0,0.2,0.1,0.3,0.1,0.5c-0.1,0.4-0.3,0.8-0.5,1.2
		c0.2-0.2,0.4-0.5,0.6-0.9c0.1,0.9,0.2,1.6,0.2,2.1c0-0.9,0-1.7-0.1-2.5c0,0,0,0,0-0.1c0.2,0.2,0.2,0.4,0.4,0.6
		c0.1,0.7,0.2,1.1,0.2,1.6c0-0.2,0-0.5,0-0.7c0.1,1.1,0,2,0,2.6c0.3-2,0.2-3.6,0-5.1c0-0.2-0.1-0.4-0.1-0.7c0,0.1,0.1,0.1,0.1,0.2
		c0.2,0.8,0.3,1.5,0.4,2c0-0.5-0.1-1-0.1-1.4c0.1,0.3,0.2,0.7,0.2,0.9c0.2,0.7,0.2,1.4,0.2,1.9c0.1-0.8,0-1.6-0.1-2.3l0.2,0.7
		c0-0.3-0.1-0.7-0.1-1c0,0,0,0.1,0.1,0.1c0-0.1,0-0.1-0.1-0.2c0-0.2-0.1-0.5-0.1-0.7c0.2,0.7,0.2,1.1,0.3,1.6c0-0.2,0-0.4-0.1-0.7
		c0.2,1,0.2,1.7,0.2,2.3c0.1-0.6,0.1-1.1,0-1.6c0.1,0.5,0.2,1,0.2,1.4c0,0.7-0.1,1.4-0.2,1.9c0.3-1,0.4-1.9,0.4-2.7
		s-0.2-1.6-0.2-2.2c-0.2-0.9-0.5-1.7-0.7-2.5c0.1,0.2,0.2,0.3,0.2,0.5c-0.2-0.3-0.2-0.7-0.4-1c-0.2-0.5-0.2-0.9-0.4-1.4
		c0-0.1,0-0.2-0.1-0.3c0.5,1,0.9,1.7,1.2,2.2l-0.2-0.6c0.4,0.8,0.7,1.5,0.9,2c-0.5-1.4-1.1-2.6-1.5-3.7c0.2,0.2,0.3,0.3,0.4,0.5
		c0.8,0.8-1.6-5.6-2.3-9.2c-0.7-3.5,1-7.3,1.8-9.7c0.7-2.5,2.6-4.2,3.1-8.3C283.5,468.8,281.5,463.8,281.5,463.8z M46.4,643.4
		c-0.2,0-0.5-0.1-0.7-0.1c0.4-0.1,0.8-0.2,1.4-0.3c0.1,0,0.2,0,0.2,0.1c-0.3,0.1-0.7,0.2-1.1,0.2c0.2,0,0.7-0.1,1.1-0.2
		C47.1,643.2,46.7,643.4,46.4,643.4z M48.3,648.6c0.2-0.2,0.3-0.2,0.4-0.4c0.2,0.1,0.4,0.2,0.6,0.3c0.2,0.2,0.4,0.3,0.7,0.5
		C49.3,648.8,48.8,648.7,48.3,648.6z M49.2,642.5c-0.5,0.2-1.1,0.3-1.6,0.5c-0.1,0-0.2,0-0.2-0.1c0.8-0.2,1.8-0.5,2.9-0.9
		c0.2,0,0.4-0.1,0.7-0.2C50.2,642.1,49.8,642.4,49.2,642.5z M63.3,633.9c-0.2,0.2-0.5,0.2-0.8,0.4c0.4-0.3,0.8-0.7,1.3-1.2
		L63.3,633.9z M76.6,614.9C76.6,615,76.6,615,76.6,614.9c-0.4,0.6-0.7,1.1-1.1,1.7c0.4-0.8,0.7-1.6,1.1-2.4l0.7-0.9
		c-0.2,0.5-0.4,0.9-0.6,1.4c-0.2,0.2-0.4,0.6-0.7,0.8C76.2,615.4,76.3,615.2,76.6,614.9z M78.1,612.2c0.1-0.1,0.1-0.2,0.2-0.2
		c-0.2,0.5-0.4,1-0.6,1.4c-0.2,0.2-0.3,0.4-0.4,0.7C77.5,613.3,77.7,612.8,78.1,612.2l0.2-0.4C78.2,611.9,78.1,612.1,78.1,612.2z
		 M86.7,653.1c0.2-0.1,0.3-0.2,0.5-0.2c-0.3,0.2-0.7,0.3-1.1,0.4c-0.2,0-0.4,0-0.7,0c0.5-0.4,0.9-0.8,1.2-1.1l0.6-0.6
		c0.3-0.2,0.7-0.4,1-0.7c0,0.2,0,0.2,0,0.4c-0.6,0.7-1.1,1.2-1.9,1.4c0.6-0.1,0.9-0.3,1.1-0.5s0.5-0.4,0.7-0.7l0,0
		c0,0.2,0,0.2,0,0.2s0-0.1,0.1-0.3c0.3-0.3,0.6-0.6,0.8-0.9c-0.1,0.2-0.2,0.3-0.2,0.4l0.4-0.7l0.1-0.1l-0.1,0.1
		c0.1-0.1,0.1-0.1,0.1-0.1l0.1-0.1C88.5,651.5,87.7,652.6,86.7,653.1z M97.8,644.6c-0.3,0.7-0.6,1.2-0.8,1.6
		c-0.2,0.2-0.3,0.5-0.6,0.7c0.2-0.5,0.4-1,0.6-1.5c0.3-0.4,0.5-0.9,0.7-1.3c0.2-0.6,0.5-1.1,0.7-1.6c-0.1,0.3-0.2,0.7-0.2,0.9
		c0.2-0.5,0.3-0.9,0.5-1.3l0,0C98.4,643.1,98.1,643.8,97.8,644.6z M101.8,639.6c-0.1,0.2-0.2,0.5-0.3,0.7c-0.1-0.2-0.2-0.3-0.2-0.4
		c0.1-0.3,0.2-0.7,0.3-0.9c0.1-0.2,0.2-0.4,0.2-0.6c-0.1,0.5-0.2,0.8-0.2,1.1c0.2-0.4,0.2-0.7,0.4-1.1c0.1,0.1,0.1,0.1,0.2,0.2
		c-0.2,0.7-0.3,1.1-0.5,1.6L101.8,639.6z M96.8,579.8c-0.2,0.2-0.5,0.5-0.7,0.7c0.3-0.7,0.7-1.2,1.1-1.7l0.3-0.2
		C97.2,579,97,579.4,96.8,579.8z M103.1,638.4c0.1-0.5,0.2-1,0.3-1.5c0.1-0.3,0.2-0.6,0.2-0.8c0.1-0.1,0.2-0.2,0.2-0.2
		C103.5,636.9,103.3,637.8,103.1,638.4z M160.2,616.4c-0.2,0.2-0.3,0.2-0.5,0.3l0.3-0.2c-0.4,0.2-0.7,0.5-1,0.7
		c0.1-0.3,0.2-0.6,0.3-0.8c0.1,0,0.2,0,0.3,0c0,0,0,0.1-0.1,0.1c0-0.1,0.1-0.1,0.1-0.1c0.1,0,0.2,0,0.2,0c-0.1-0.1-0.2-0.1-0.2-0.1
		c0.1-0.1,0.1-0.2,0.2-0.2c0.2-0.1,0.4-0.2,0.6-0.3C160.5,616,160.3,616.2,160.2,616.4z M166.8,615.2c0.2,0.1,0.2,0.1,0.4,0.2
		c-0.1,0.1-0.2,0.1-0.2,0.2c0.1-0.1,0.2-0.1,0.2-0.2c0.2,0.1,0.3,0.1,0.5,0.2c-0.1,0.1-0.2,0.1-0.2,0.2c-0.2,0-0.6-0.1-0.9-0.2
		C166.8,615.5,166.8,615.4,166.8,615.2z M165.8,615.6c0.2,0.1,0.5,0.2,0.7,0.2c0,0.1,0,0.1,0,0.1c-0.5,0.1-1.1,0.2-1.5,0.2
		C165.3,615.9,165.5,615.8,165.8,615.6z M164.1,616.8c0.2-0.2,0.4-0.2,0.6-0.4c0.7,0,1.2-0.1,1.7-0.2c0,0.1,0,0.2,0,0.2
		C165.5,616.6,164.8,616.7,164.1,616.8z M185.7,615.9c0.6-0.2,1.1-0.3,1.6-0.4c0.2,0,0.2,0.1,0.2,0.2
		C187,615.8,186.3,615.9,185.7,615.9z M194.7,524.5c-0.2,0.1-0.4,0.2-0.7,0.3c0.3-0.6,0.6-1.1,0.9-1.6c0.2-0.2,0.3-0.2,0.5-0.4
		C195.1,523.5,194.8,524.1,194.7,524.5z M196,523.4c-0.2,0.2-0.2,0.3-0.4,0.5c-0.2,0.1-0.3,0.2-0.5,0.3c0.3-0.5,0.6-0.9,0.8-1.3
		l0.3-0.2C196.1,523,196.1,523.2,196,523.4z M195.7,522.3c-0.2,0.2-0.4,0.3-0.6,0.5c0.4-0.7,0.8-1.3,1.2-1.8l0.3-0.2
		C196.3,521.4,196,521.9,195.7,522.3z M198,518.4c-0.3,0.2-0.5,0.3-0.7,0.3c0.4-0.5,0.8-1,1.2-1.5
		C198.3,517.7,198.2,518.1,198,518.4z M210.9,499.8c-0.3,0.1-0.7,0.2-1,0.4c0.4-0.3,0.9-0.7,1.3-0.9c0.2-0.1,0.5-0.2,0.7-0.2
		C211.7,499.4,211.3,499.6,210.9,499.8z M256.5,582.1c-0.1,0.5-0.2,1.1-0.5,1.6l0.2-2.5c0,0.1,0.1,0.2,0.2,0.2
		C256.5,581.5,256.5,581.8,256.5,582.1z M258.2,580.4l-0.2,1.9c0-1.1-0.1-2-0.1-2.8c0.1-0.7,0.2-1.4,0.2-2c0.1,0.1,0.1,0.2,0.2,0.2
		c0,1.4-0.1,2.6-0.1,3.4V580.4z M262.3,560.6c-0.1,0.5-0.2,0.9-0.3,1.2c0-0.9,0.1-1.7,0.2-2.5c0.1-0.1,0.2-0.2,0.2-0.2
		C262.3,559.6,262.3,560.1,262.3,560.6z M267.8,552.5c0,0.5,0,0.9-0.1,1.2c-0.1-0.3-0.2-0.7-0.3-1.1c0.1-0.4,0.2-0.7,0.2-1.1
		c0,0.7,0,1.1,0,1.6L267.8,552.5z M267.5,552.5c0-0.2-0.1-0.2-0.1-0.3c0-0.2,0-0.3,0-0.5c0.1-0.2,0.2-0.5,0.3-0.7
		C267.6,551.6,267.6,552.1,267.5,552.5z M268.1,552.1c0.1-0.7,0.2-1.5,0.2-2.1c0.1-0.2,0.2-0.3,0.2-0.6
		C268.4,550.5,268.1,551.4,268.1,552.1z M277.1,527.2c0.1,0.6,0.2,1.1,0.3,1.7c0,0.2,0,0.5,0,0.7c-0.1-0.3-0.2-0.7-0.3-1.1
		C277.2,528,277.1,527.6,277.1,527.2z M278.5,513.3c0.2,0.6,0.2,1.1,0.3,1.6c0.2,1.1,0.3,2,0.4,2.8
		C278.9,515.9,278.7,514.5,278.5,513.3C278.4,513.3,278.4,513.3,278.5,513.3z M279.3,504.5c0,0.1,0,0.2,0,0.3c0,0.2-0.1,0.5-0.1,0.7
		c-0.1-0.5-0.1-1-0.2-1.5C279.1,504.2,279.2,504.3,279.3,504.5C279.3,504.4,279.3,504.5,279.3,504.5z"/>
	<path id="XMLID_98_" class="st2" d="M209.2,500.8L209.2,500.8C209.3,500.8,209.3,500.8,209.2,500.8
		C209.3,500.8,209.3,500.8,209.2,500.8z"/>
	<path id="XMLID_97_" class="st2" d="M96,578c0.7-0.3,1.5-0.9,2.5-1.4c-0.2,0.2-0.3,0.2-0.5,0.4C97.3,577.2,96.7,577.6,96,578z"/>
	<path id="XMLID_96_" class="st2" d="M157.4,616c0.2-0.6,0.4-0.9,0.4-0.9l0,0l0.1,0.2C157.7,615.6,157.5,615.9,157.4,616z"/>
	<path id="XMLID_95_" class="st2" d="M158.1,615.2C158.1,615.3,158.1,615.3,158.1,615.2L158.1,615.2L158.1,615.2V615V615.2z"/>
	<path id="XMLID_94_" class="st2" d="M160.2,615.2c0.2-0.2,0.3-0.2,0.5-0.3c-0.1,0.1-0.2,0.2-0.2,0.3c-0.2,0.2-0.4,0.3-0.6,0.5
		C160,615.5,160.1,615.4,160.2,615.2z"/>
	<path id="XMLID_93_" class="st2" d="M159.8,615.7l0.3-0.2C160,615.6,159.9,615.7,159.8,615.7S159.8,615.7,159.8,615.7z"/>
	<path id="XMLID_92_" class="st2" d="M159.6,616.3L159.6,616.3c0.1-0.1,0.2-0.2,0.3-0.3c0,0,0,0.1-0.1,0.1
		C159.8,616.1,159.7,616.2,159.6,616.3z"/>
	<path id="XMLID_91_" class="st2" d="M159.8,616.2C159.8,616.3,159.7,616.3,159.8,616.2l-0.2,0.1
		C159.7,616.3,159.8,616.2,159.8,616.2z"/>
	<path id="XMLID_90_" class="st2" d="M159.6,615.9L159.6,615.9L159.6,615.9C159.7,615.9,159.7,615.9,159.6,615.9
		c0,0-0.1,0.1-0.2,0.2C159.4,616,159.5,616,159.6,615.9L159.6,615.9z"/>
	<path id="XMLID_89_" class="st2" d="M158.6,616c0.2-0.2,0.2-0.2,0.3-0.4l0,0c-0.1,0.2-0.1,0.3-0.1,0.5
		C158.7,616.1,158.7,616.1,158.6,616z"/>
	<path id="XMLID_88_" class="st2" d="M158.9,616.1c0.1-0.2,0.2-0.5,0.2-0.7c0.1-0.1,0.2-0.1,0.3-0.2v0.1c0,0-0.1,0-0.1,0.1
		c0,0,0,0,0.1,0c-0.1,0.3-0.2,0.6-0.2,0.8C159.1,616.2,159,616.1,158.9,616.1z"/>
	<path id="XMLID_87_" class="st2" d="M160.8,615.5c-0.2,0.2-0.5,0.3-0.7,0.5l0.1-0.1C160.4,615.7,160.6,615.5,160.8,615.5
		L160.8,615.5z"/>
	<path id="XMLID_86_" class="st2" d="M160.9,615.9c0.2-0.2,0.4-0.4,0.6-0.6c0.2-0.2,0.6-0.2,0.8-0.3c0.1,0,0.2,0,0.2,0
		C161.9,615.3,161.4,615.6,160.9,615.9z"/>
	<path id="XMLID_85_" class="st2" d="M166.8,615.9c-0.1,0-0.1,0-0.2,0v-0.1C166.7,615.9,166.8,615.9,166.8,615.9z"/>
	<path id="XMLID_84_" class="st2" d="M166.6,615.5L166.6,615.5L166.6,615.5L166.6,615.5z"/>
	<path id="XMLID_83_" class="st2" d="M166.2,615.4c0.1-0.1,0.2-0.2,0.2-0.2c0.1,0,0.1,0,0.1,0l0,0c0,0.2,0,0.2-0.1,0.4
		c-0.2,0-0.2-0.1-0.4-0.1C166.2,615.5,166.2,615.4,166.2,615.4z"/>
	<path id="XMLID_82_" class="st2" d="M166.1,615.4C166.1,615.4,166.1,615.5,166.1,615.4C166.1,615.5,166.1,615.5,166.1,615.4
		C166.1,615.5,166.1,615.4,166.1,615.4z"/>
	<path id="XMLID_81_" class="st2" d="M164.4,616.3L164.4,616.3L164.4,616.3L164.4,616.3z"/>
	<path id="XMLID_80_" class="st2" d="M164.3,616.4C164.4,616.4,164.4,616.4,164.3,616.4C164.4,616.4,164.3,616.4,164.3,616.4
		L164.3,616.4z"/>
	<path id="XMLID_79_" class="st2" d="M166.5,616.4c0-0.1,0-0.2,0.1-0.2c0.2,0,0.3-0.1,0.5-0.1c-0.1,0.1-0.2,0.2-0.3,0.2
		C166.6,616.4,166.5,616.4,166.5,616.4z"/>
	<path id="XMLID_78_" class="st2" d="M166.8,616.4c0.2-0.1,0.3-0.2,0.5-0.2s0.2,0,0.4-0.1l0.3,0.1
		C167.6,616.2,167.2,616.3,166.8,616.4z"/>
	<path id="XMLID_77_" class="st2" d="M175.5,614.8c-0.2,0-0.5,0-0.7,0.1l0,0c0.3-0.1,0.7-0.2,1.1-0.2c0,0,0,0,0.1,0
		C175.8,614.6,175.6,614.7,175.5,614.8z"/>
	<path id="XMLID_76_" class="st2" d="M194.2,615.3c-0.1,0.1-0.2,0.1-0.2,0.2c-0.2,0.1-0.4,0.1-0.7,0.2l0,0l0.1-0.1
		C193.7,615.4,193.9,615.4,194.2,615.3L194.2,615.3z"/>
	<path id="XMLID_75_" class="st2" d="M194.2,616.8L194.2,616.8c0-0.1,0-0.1,0.1-0.2C194.3,616.7,194.2,616.7,194.2,616.8z"/>
	<path id="XMLID_74_" class="st2" d="M188.6,528.4c-0.1,0-0.2,0-0.2,0.1c0.2-0.2,0.4-0.2,0.7-0.4h0.1
		C188.9,528.2,188.8,528.3,188.6,528.4z"/>
	<path id="XMLID_73_" class="st2" d="M190.4,526.8c-0.1,0-0.2,0-0.2-0.1c0.2,0,0.3-0.1,0.6-0.1C190.7,526.7,190.6,526.8,190.4,526.8
		z"/>
	<path id="XMLID_72_" class="st2" d="M190.9,528.1L190.9,528.1L190.9,528.1L190.9,528.1z"/>
	<path id="XMLID_71_" class="st2" d="M194.4,527.3c-0.1,0.1-0.2,0.2-0.3,0.3C194.2,527.6,194.3,527.4,194.4,527.3L194.4,527.3
		L194.4,527.3z"/>
	<path id="XMLID_70_" class="st2" d="M194.6,524.8L194.6,524.8L194.6,524.8L194.6,524.8L194.6,524.8z"/>
	<path id="XMLID_69_" class="st2" d="M195.2,524.6c-0.1,0.1-0.2,0.1-0.3,0.2l0,0C194.9,524.6,195.1,524.6,195.2,524.6L195.2,524.6z"
		/>
	<path id="XMLID_68_" class="st2" d="M195.9,524.3c-0.1,0-0.2,0.1-0.2,0.1s0,0,0-0.1s0.1-0.1,0.1-0.2l0.2-0.2
		C196,524.1,195.9,524.2,195.9,524.3z"/>
	<path id="XMLID_67_" class="st2" d="M196.1,522.6c0.2-0.2,0.3-0.5,0.6-0.7l0,0C196.5,522.1,196.3,522.4,196.1,522.6z"/>
	<path id="XMLID_66_" class="st2" d="M205.4,615.2c-0.1,0-0.1,0-0.2,0.1L205.4,615.2L205.4,615.2z"/>
	<path id="XMLID_65_" class="st2" d="M198.2,518.3L198.2,518.3L198.2,518.3L198.2,518.3z"/>
	<path id="XMLID_64_" class="st2" d="M197.4,518.4c0.4-0.6,0.7-1.1,1.1-1.6c0.1,0,0.1,0,0.2-0.1
		C198.3,517.4,197.9,517.9,197.4,518.4z"/>
	<path id="XMLID_63_" class="st2" d="M198.8,516.6c-0.1,0.1-0.2,0.1-0.2,0.2C198.7,516.8,198.7,516.7,198.8,516.6L198.8,516.6
		c-0.2,0.1-0.2,0.2-0.3,0.2c0.1-0.1,0.2-0.2,0.2-0.3c0.1-0.1,0.2-0.2,0.3-0.2C199,516.4,198.9,516.5,198.8,516.6z"/>
	<path id="XMLID_62_" class="st2" d="M199.9,516.1C199.9,516.1,200,516,199.9,516.1C200,516,200,516,199.9,516.1
		C200,516,199.9,516,199.9,516.1z"/>
	<path id="XMLID_61_" class="st2" d="M199.6,515.6c-0.2,0.1-0.3,0.2-0.4,0.2c0.2-0.3,0.5-0.7,0.7-1.1h0.2
		C199.9,515.1,199.7,515.4,199.6,515.6z"/>
	<path id="XMLID_60_" class="st2" d="M200.4,514.4l-0.3,0.2l0.1-0.1L200.4,514.4C200.5,514.3,200.4,514.3,200.4,514.4z"/>
	<path id="XMLID_59_" class="st2" d="M204.3,508.9L204.3,508.9L204.3,508.9C204.4,508.8,204.3,508.9,204.3,508.9z"/>
	<path id="XMLID_58_" class="st2" d="M205.7,507.7c-0.1,0.1-0.2,0.2-0.2,0.2c-0.1,0.1-0.2,0.2-0.4,0.3l0.8-0.9
		C205.9,507.5,205.8,507.6,205.7,507.7z"/>
	<path id="XMLID_57_" class="st2" d="M207.5,504.9c-0.2,0.1-0.3,0.2-0.5,0.3c0.1-0.1,0.2-0.2,0.3-0.3l0.4-0.2
		C207.7,504.8,207.6,504.8,207.5,504.9z"/>
	<path id="XMLID_56_" class="st2" d="M212.5,498.7l0.3-0.1c-0.4,0.2-0.7,0.3-1.1,0.5C211.9,498.9,212.3,498.8,212.5,498.7z"/>
	<path id="XMLID_55_" class="st2" d="M212.8,499.5c-0.2,0-0.2,0-0.4,0.1c0.2-0.1,0.4-0.2,0.7-0.2C213,499.4,212.9,499.4,212.8,499.5
		z"/>
	<path id="XMLID_54_" class="st2" d="M213.3,499.4c0.2-0.2,0.5-0.4,0.7-0.6h0.1c-0.2,0.2-0.4,0.3-0.6,0.6
		C213.5,499.4,213.4,499.4,213.3,499.4z"/>
	<path id="XMLID_53_" class="st2" d="M224.2,612.7C224.1,612.7,224.1,612.7,224.2,612.7C224.1,612.8,224.1,612.8,224.2,612.7
		c0,0.2-0.1,0.3-0.2,0.4c0.1-0.2,0.1-0.5,0.2-0.7c0,0.1,0,0.2,0.1,0.2C224.2,612.6,224.2,612.6,224.2,612.7z"/>
	<path id="XMLID_52_" class="st2" d="M214.4,499.3c-0.1,0-0.2,0.1-0.3,0.1c0.2-0.2,0.5-0.4,0.7-0.6c0.1,0,0.1,0.1,0.2,0.1
		C214.7,499,214.5,499.1,214.4,499.3z"/>
	<path id="XMLID_51_" class="st2" d="M226.2,617.8v-0.2c0.2,0.2,0.3,0.6,0.5,0.8c0.1,0.2,0.1,0.5,0.2,0.7
		C226.6,618.6,226.3,618.2,226.2,617.8z"/>
	<path id="XMLID_50_" class="st2" d="M257.4,582.1c0-0.1-0.1-0.1-0.1-0.2c0.1-0.1,0.1-0.1,0.1-0.2
		C257.3,581.9,257.3,582,257.4,582.1z"/>
	<path id="XMLID_49_" class="st2" d="M257.7,577.8c0-0.1,0-0.2,0-0.3c0,0.2,0,0.3,0,0.5C257.8,578,257.8,577.9,257.7,577.8z"/>
	<path id="XMLID_48_" class="st2" d="M259.4,573.6L259.4,573.6c0,0.2,0,0.2,0,0.4v-0.1C259.4,573.9,259.4,573.7,259.4,573.6z"/>
	<path id="XMLID_47_" class="st2" d="M259.1,573.4C259.2,573.4,259.2,573.4,259.1,573.4c0,0.1,0,0.2,0,0.2
		C259.1,573.5,259.1,573.5,259.1,573.4C259.1,573.5,259.1,573.5,259.1,573.4z"/>
	<path id="XMLID_46_" class="st2" d="M259.1,574.4C259.1,574.5,259.1,574.5,259.1,574.4c0,0.2,0,0.2,0,0.4
		C259.1,574.6,259.1,574.5,259.1,574.4z"/>
	<path id="XMLID_45_" class="st2" d="M259.1,575c0-0.2,0.1-0.3,0.1-0.4c0,0.1,0.1,0.1,0.1,0.2c0,0.2,0,0.4,0,0.6
		C259.2,575.3,259.2,575.1,259.1,575z"/>
	<path id="XMLID_44_" class="st2" d="M259.5,575.6c-0.1-0.1-0.1-0.2-0.2-0.2c0-0.2,0.1-0.3,0.1-0.5c0,0.1,0.1,0.1,0.2,0.2
		C259.5,575.3,259.5,575.4,259.5,575.6z"/>
	<path id="XMLID_43_" class="st2" d="M259.5,575.7L259.5,575.7l0.1-0.4C259.5,575.4,259.5,575.5,259.5,575.7z"/>
	<path id="XMLID_42_" class="st2" d="M259.6,574.5c0-0.1-0.1-0.2-0.1-0.2c0-0.2,0-0.3,0.1-0.4c0,0.1,0.1,0.1,0.1,0.2
		C259.6,574.2,259.6,574.4,259.6,574.5z"/>
	<path id="XMLID_41_" class="st2" d="M259.8,575.6c0-0.1-0.1-0.2-0.1-0.2l0,0c0,0.1,0.1,0.1,0.1,0.1S259.8,575.5,259.8,575.6z"/>
	<path id="XMLID_40_" class="st2" d="M259.9,575.4L259.9,575.4L259.9,575.4L259.9,575.4L259.9,575.4
		C259.8,575.4,259.8,575.4,259.9,575.4L259.9,575.4z"/>
	<path id="XMLID_39_" class="st2" d="M259.8,575L259.8,575L259.8,575L259.8,575z"/>
	<path id="XMLID_38_" class="st2" d="M259.9,575.1C259.9,575.1,259.9,575,259.9,575.1v-0.3C259.9,574.9,259.9,575,259.9,575.1z"/>
	<path id="XMLID_37_" class="st2" d="M259.9,571.1c0,0.1,0,0.2,0,0.2c0-0.2,0-0.5-0.1-0.7l0.1-0.2
		C259.9,570.6,259.9,570.9,259.9,571.1z"/>
	<path id="XMLID_36_" class="st2" d="M262.3,558.4C262.3,558.4,262.3,558.5,262.3,558.4c0,0.1,0,0.1,0,0.2
		C262.3,558.5,262.3,558.5,262.3,558.4z"/>
	<path id="XMLID_35_" class="st2" d="M262.8,559.9c0,0.1,0.1,0.2,0.1,0.2c-0.1,0.2-0.2,0.6-0.2,0.8
		C262.7,560.6,262.8,560.2,262.8,559.9z"/>
	<path id="XMLID_34_" class="st2" d="M263.2,560.9c-0.1,0.2-0.2,0.5-0.3,0.7C263,561.3,263.1,561,263.2,560.9
		C263.1,560.9,263.1,561,263.2,560.9c-0.1,0-0.1-0.1-0.1-0.2l0,0C263.1,560.7,263.1,560.7,263.2,560.9
		C263.2,560.8,263.2,560.8,263.2,560.9z"/>
	<path id="XMLID_33_" class="st2" d="M267.1,549l0.1-0.2C267.1,548.9,267.1,549,267.1,549C267.1,549.1,267.1,549.1,267.1,549
		C267.1,549.1,267.1,549.1,267.1,549z"/>
	<path id="XMLID_32_" class="st2" d="M267.4,552.9L267.4,552.9L267.4,552.9L267.4,552.9z"/>
	<path id="XMLID_31_" class="st2" d="M267.8,554L267.8,554c0-0.1-0.2-0.3-0.3-0.7c0-0.1,0-0.2-0.1-0.2l0,0c0.1,0.3,0.2,0.7,0.3,0.8
		C267.8,553.8,267.8,553.9,267.8,554z"/>
	<path id="XMLID_30_" class="st2" d="M268,552.9c0-0.1,0-0.2,0-0.2l0.2-0.5C268.1,552.4,268,552.6,268,552.9z"/>
	<path id="XMLID_29_" class="st2" d="M268.9,548.3c-0.1,0.2-0.1,0.3-0.2,0.5v-0.1c0,0.1,0,0.1,0,0.2l-0.4,1.1c0.1-0.3,0.1-0.7,0.2-1
		s0.2-0.7,0.3-1.1C268.8,548,268.9,548.1,268.9,548.3C268.9,548.2,268.9,548.3,268.9,548.3z"/>
	<path id="XMLID_28_" class="st2" d="M273.1,539.8L273.1,539.8c0,0,0,0.1,0.1,0.2C273.2,539.9,273.1,539.9,273.1,539.8z"/>
	<path id="XMLID_27_" class="st2" d="M276.5,529.5c0-0.2,0-0.5-0.1-0.7c0-0.1,0-0.2,0-0.2c0.1,0.2,0.1,0.2,0.2,0.3
		C276.6,529.1,276.5,529.3,276.5,529.5z"/>
	<path id="XMLID_26_" class="st2" d="M276.6,528.7c-0.1-0.2-0.2-0.5-0.2-0.7v-0.1c0.1-0.1,0.1-0.2,0.2-0.3l0.1,0.7
		C276.6,528.4,276.6,528.6,276.6,528.7z"/>
	<path id="XMLID_25_" class="st2" d="M277.3,531.1c-0.1-0.7-0.1-1.3-0.2-1.9c0-0.2,0-0.2,0.1-0.4c0.1,0.2,0.2,0.6,0.3,0.7
		c0,0.2,0,0.2,0,0.4c0-0.1,0-0.2,0.1-0.3l0,0C277.5,530.3,277.4,530.8,277.3,531.1z"/>
	<path id="XMLID_24_" class="st2" d="M277.5,529.7L277.5,529.7c0-0.1,0-0.1,0-0.2C277.5,529.6,277.5,529.6,277.5,529.7z"/>
	<path id="XMLID_23_" class="st2" d="M277.3,521L277.3,521c0-0.1,0-0.2,0-0.2l0,0c0.1,0.3,0.2,0.6,0.2,0.8
		C277.5,521.4,277.4,521.2,277.3,521z"/>
	<path id="XMLID_22_" class="st2" d="M279.3,517.1c0,0.3,0,0.6,0,0.8c0-0.1,0-0.1,0-0.2C279.3,517.5,279.3,517.3,279.3,517.1z"/>
	<path id="XMLID_21_" class="st2" d="M278,516.6c0-0.2,0-0.3,0.1-0.5c0.1,0.3,0.2,0.6,0.2,0.9C278.2,516.9,278,516.7,278,516.6z"/>
	<path id="XMLID_20_" class="st2" d="M278.2,514.7c0.2,0.6,0.2,1.1,0.4,1.6v0.1c-0.2-0.2-0.2-0.3-0.4-0.5c0-0.1,0-0.2-0.1-0.2l0,0
		v-0.1c-0.1-0.3-0.2-0.7-0.2-0.9s0-0.4,0-0.6C278,514.2,278.1,514.4,278.2,514.7z"/>
	<path id="XMLID_19_" class="st2" d="M278.9,505.2c-0.1-0.1-0.1-0.2-0.2-0.2c0-0.1,0.1-0.2,0.1-0.2
		C278.9,504.8,278.9,504.9,278.9,505.2z"/>
	<path id="XMLID_18_" class="st2" d="M278.2,503.9c0-0.2,0.1-0.2,0.1-0.4c0,0.2,0,0.4,0,0.6C278.3,504,278.2,504,278.2,503.9
		L278.2,503.9z"/>
	<path id="XMLID_17_" class="st2" d="M278.2,504.6L278.2,504.6L278.2,504.6L278.2,504.6z"/>
	<path id="XMLID_16_" class="st2" d="M278.3,505.9c0-0.1,0-0.2,0-0.2c0-0.1,0-0.1,0-0.2c0,0.1,0.1,0.1,0.1,0.1
		C278.4,505.7,278.4,505.8,278.3,505.9z"/>
	<path id="XMLID_15_" class="st2" d="M278.4,505.6c0-0.1-0.1-0.1-0.1-0.2c0-0.2,0.1-0.3,0.1-0.6c0.1,0.1,0.1,0.1,0.2,0.2
		C278.5,505.2,278.5,505.3,278.4,505.6z"/>
	<path id="XMLID_14_" class="st2" d="M278.5,504.4c0-0.3,0.1-0.6,0.1-0.9l0,0c0.1,0.2,0.1,0.5,0.2,0.7c0,0.2-0.1,0.3-0.1,0.5
		C278.6,504.6,278.5,504.5,278.5,504.4z"/>
	<path id="XMLID_13_" class="st2" d="M278.7,505.1c0.1,0.2,0.2,0.2,0.3,0.4c0,0,0,0,0,0.1L278.7,505.1z"/>
	<path id="XMLID_12_" class="st2" d="M278.9,503.3c0-0.1,0-0.1,0-0.2C278.9,503.1,278.9,503.1,278.9,503.3
		C278.9,503.2,278.9,503.3,278.9,503.3z"/>
	<path id="XMLID_11_" class="st2" d="M280.2,504.5v0.2C280.2,504.6,280.2,504.6,280.2,504.5L280.2,504.5z"/>
	<path id="XMLID_10_" class="st2" d="M279.4,505.2c0.1,0.4,0.2,0.7,0.2,1.1c-0.1-0.2-0.2-0.4-0.3-0.6
		C279.3,505.6,279.4,505.4,279.4,505.2z"/>
	<path id="XMLID_8_" class="st2" d="M279.3,504.3c-0.1-0.2-0.2-0.3-0.2-0.4c0-0.2,0.1-0.2,0.1-0.4
		C279.2,503.7,279.2,504,279.3,504.3z"/>
	<path id="XMLID_7_" class="st2" d="M279,512.7L279,512.7C279,512.6,279,512.6,279,512.7L279,512.7z"/>
	<path id="XMLID_6_" class="st2" d="M263.3,562.5L263.3,562.5h-0.5c0,0-0.1,0-0.2,0v0.1C262.8,562.6,263,562.6,263.3,562.5z"/>
	<path id="XMLID_5_" class="st2" d="M224.4,615.5c0,0.1,0,0.2-0.1,0.2l0.1-0.1C224.4,615.6,224.4,615.6,224.4,615.5L224.4,615.5z"/>
	<path id="XMLID_4_" class="st2" d="M173.4,615.8c0.3-0.2,0.7-0.3,1.1-0.5c-0.2,0.1-0.3,0.1-0.5,0.2
		C173.7,615.5,173.6,615.7,173.4,615.8z"/>
	<path id="XMLID_135_" class="st2" d="M262.4,563C262.4,562.9,262.4,562.9,262.4,563C262.5,562.9,262.5,562.9,262.4,563
		C262.5,563,262.5,563,262.4,563L262.4,563c0.1,0.2,0.1,0.3,0.1,0.4L262.4,563C262.5,563,262.5,563,262.4,563
		c0.1,0.8,0.2,1.5,0.2,1.9c0-0.8,0-1.6,0-2.3C262,562.8,262.2,562.8,262.4,563z M262.5,562.8c0,0.1,0,0.1,0,0.2l0,0V562.8z"/>
	<path id="XMLID_1_" class="st2" d="M260.5,574.9L260.5,574.9l-0.1,0.3c0.1,0.2,0.2,0.4,0.2,0.6
		C260.6,575.4,260.6,575.1,260.5,574.9z"/>
</g>
</svg>
