<?xml version="1.0" encoding="utf-8"?>
<!-- Generator: Adobe Illustrator 23.1.0, SVG Export Plug-In . SVG Version: 6.00 Build 0)  -->
<svg version="1.1" id="Layer_1" xmlns="http://www.w3.org/2000/svg" xmlns:xlink="http://www.w3.org/1999/xlink" x="0px" y="0px"
	 viewBox="0 0 1366 768" style="enable-background:new 0 0 1366 768;" xml:space="preserve">
<style type="text/css">
	.st0{fill:#FFFFFF;}
	.st1{fill:#101347;}
</style>
<path class="st0" d="M154.6,242.8c0.2-1.6,0.5-3.5-1.6-5c-0.2-0.2-0.8-0.4-1.3-0.6c-2.3-0.7-4,0.7-5.2,2.5c0.3-2.1,0.5-4.7,0-7.3
	c0,0,0,0,0.1,0l0,0c0,0,0.1,0,0.1,0.1h0.1c0,0,0.1,0.1,0.2,0.1c0,0,0.1,0,0.1,0.1c0.1,0,0.1,0.1,0.2,0.1c0.1,0,0.1,0,0.2,0.1
	c0.1,0,0.1,0.1,0.2,0.1c0.1,0,0.1,0.1,0.2,0.1s0.2,0.1,0.2,0.1c0.1,0,0.2,0,0.2,0.1c0.1,0,0.2,0,0.2,0.1c0.1,0,0.2,0,0.2,0.1
	c0.1,0,0.2,0,0.2,0.1c0.1,0,0.2,0,0.2,0c0.1,0,0.2,0,0.2,0c0.1,0,0.2,0,0.2,0c0.1,0,0.2,0,0.2,0h0.2h0.2l0.2-0.1l0.2-0.1
	c0.1,0,0.2-0.1,0.2-0.1c0.1,0,0.2-0.1,0.2-0.2c0.1-0.1,0.2-0.1,0.2-0.2s0.2-0.1,0.2-0.2s0.2-0.2,0.2-0.2c0.1-0.1,0.2-0.2,0.2-0.2
	c0.1-0.1,0.2-0.2,0.2-0.3c0.1-0.1,0.1-0.1,0.2-0.2l0,0c0.1-0.1,0.2-0.2,0.2-0.3c0,0-2.2,1.6-4.4-1.2c0,0,0.8,0.2,1.7-0.2l0,0
	c0,0,0.1,0,0.1-0.1c0,0,0.1,0,0.1-0.1c0.1,0,0.2-0.1,0.2-0.1c0.1,0,0.1-0.1,0.2-0.1c0.1,0,0.1-0.1,0.2-0.1c0.1-0.1,0.1-0.1,0.2-0.2
	c0.1,0,0.1-0.1,0.2-0.2c0.1-0.1,0.2-0.1,0.2-0.2c0,0,0.1-0.1,0.1-0.2c0.2-0.2,0.3-0.4,0.4-0.6c0,0,0-0.1,0.1-0.1
	c0-0.1,0.1-0.2,0.1-0.2c0.1-0.1,0.1-0.2,0.2-0.3c0-0.1,0.1-0.1,0.1-0.2c0.1-0.1,0.1-0.2,0.2-0.4l0,0c0-0.1,0-0.1,0.1-0.2
	c0,0-0.7,1.1-2.7,0.7c-2-0.3-4.4-1.9-9.4-5.9c-4.8-3.9-16.6-8.7-26.3-3.4c-0.2-0.6-0.7-1-1.3-1.2c-0.6-0.2-1.2,0-1.7,0.3
	c-0.8,0.7-1.4,1.7-1.7,2.5c0.1-5.1,0.3-9.8,0.9-14.2c0.1-0.4,0.2-0.9,0.2-1.3c0.6-0.1,3.2-0.6,4.1-2.2c0.3-0.6,0.4-1.2,0.2-1.8
	c-0.2-0.5-0.6-0.9-1.1-1c-0.5-0.2-1.1,0.1-1.5,0.5c-0.5,0.5-0.9,1.3-1.2,2.1c0.9-5.3,2.4-10.3,4.3-14.8c3.9-9,6.9-11.8,9.4-13.4
	c0.2-0.1,0.2-0.3,0.2-0.5s-0.2-0.3-0.3-0.4c-0.1,0-0.1,0-0.2,0c-3.7,0.7-6.6,4.4-8,6.6c-1.6,2.5-3,5.3-4.4,8.6
	c0-0.3-0.1-0.7-0.1-0.9c-0.2-0.9-0.7-1.6-1.6-1.8c-0.6-0.2-1.2,0-1.6,0.4c-0.6,0.4-0.9,1.1-1,2c-0.2,2.1,1.7,4.4,2.5,5.3
	c-1.2,4.1-2.1,8.3-2.5,12.5c-0.1-0.3-0.2-0.7-0.2-1c-0.3-0.7-0.8-1.2-1.5-1.4s-1.3,0-1.8,0.5c-0.6,0.5-0.8,1.3-0.7,2.2
	c0.2,2.5,3.3,4.7,3.8,5c-0.3,4.1-0.4,8.2-0.4,12.2c-0.2-0.6-0.4-1.2-0.7-1.6c-0.2-0.4-0.7-0.7-1.1-0.8c-0.6-0.2-1.2,0.1-1.6,0.6
	c-0.5,0.6-0.6,1.3-0.3,2.1c0.5,1.7,2.5,2.8,3.5,3.2c0,0,0,0.1-0.1,0.1c-0.1,0.2-0.2,0.4-0.3,0.7c-0.2,0.2-0.2,0.5-0.4,0.7
	c-0.1,0.2-0.2,0.4-0.3,0.7c-0.1,0.2-0.2,0.6-0.3,0.8c-0.1,0.2-0.2,0.4-0.2,0.7c-0.1,0.2-0.2,0.6-0.3,0.8c-0.1,0.2-0.2,0.4-0.2,0.7
	c-0.1,0.3-0.2,0.6-0.2,0.9c-0.1,0.2-0.1,0.4-0.2,0.7s-0.2,0.7-0.2,1c0,0.2-0.1,0.4-0.1,0.7c-0.1,0.3-0.1,0.7-0.1,1
	c0,0.2-0.1,0.4-0.1,0.6c0,0.4,0,0.7,0,1.2c0,0.2,0,0.3,0,0.5c0,0.6,0.1,1.1,0.2,1.6c0.4,3.1,1.6,6.2,3.3,9c-0.2-0.2-0.4-0.2-0.7-0.3
	c-0.6-0.2-1.2,0.1-1.6,0.6c-0.5,0.6-0.6,1.4-0.3,2.2c0.7,2.2,4,3.3,4.2,3.3h0.1c0.2,2.4,0.5,4.8,0.7,7.2c-1,1.2-1.4,1.8-2.5,2.2
	c-1.5,0.6-3.8-1.2-5.3-2.7s-1.7-3.1-1.7-3.1s-0.2,0.2-0.4,0.6c-0.1-0.2-0.2-0.4-0.2-0.7c0-0.2-0.1-0.2-0.1-0.4s-0.1-0.2-0.1-0.4
	c-0.2-1.1-0.5-1.9-1.6-3.4c-0.1-0.2-1-1.6-1.5-2.4c-0.1-0.2-0.2-0.4-0.2-0.6c-0.2-0.6-0.6-1.2-1.9-2.2c-1.1-0.8-1.9-1.3-2.6-1.5
	s-1.3-0.1-1.7,0.4c-0.2,0.2-0.2,0.4-0.2,0.6c0.1,0.5,0.5,0.9,1.3,1.3c0.7,0.4,1.5,1,2.1,1.6c0.1,0.1,0.2,0.2,0.3,0.5
	c-0.3-0.3-0.7-0.7-1.1-0.9c-0.8-0.7-1.9-1.4-2.7-1.6c-0.1,0-0.2,0-0.2-0.1c-0.7-0.1-1.5,0.2-1.8,0.6c-0.2,0.2-0.2,0.5-0.2,0.7
	c0.1,0.8,0.9,1,1.2,1.1c0.2,0.1,0.4,0.1,0.7,0.1h0.1c0.4,0.1,1,0.6,1.5,1.1c-0.5-0.2-1.2-0.4-1.5-0.5c-0.2,0-0.2-0.1-0.3-0.1
	c-0.4-0.1-1.5,0.2-2,0.7c-0.2,0.3-0.3,0.7-0.2,1.2c0.1,0.4,0.9,0.7,1.5,0.9h0.1c0.2,0,0.3,0.1,0.6,0.1c0.2,0.1,0.4,0.1,0.7,0.2
	c-0.6,0.2-1.2,0.6-1.5,0.7c-0.2,0.2-0.5,0.5-0.6,0.8c-0.1,0.2,0,0.6,0.2,0.8c0.1,0.2,0.3,0.3,0.6,0.4c0.4,0.1,1,0,1.5-0.1
	c0.7-0.2,1.4-0.2,2,0c0.1,0,0.2,0,0.2,0.1c0.4,0.2,0.4,0.2,0.5,0.7c0,0.2,0,0.2,0.1,0.5c0,0.1,0,0.2,0.1,0.2c0.2,0.8,0.4,2.2,1.5,3
	c0.2,0.2,0.6,0.3,0.9,0.4c0.8,0.2,1.6-0.1,2.1-0.2h-0.6l0,0c0.2,0.1,0.8,0.4,1.6,1.3c0.7,0.8,4.5,4.4,7.6,5.3
	c-0.6,0.8-1,1.6-1.3,2.6c-0.7-0.7-1.2-1-1.3-1.1c-0.7-0.7-1.6-1.2-2.1-1.4c-1.5-0.4-3,1.6-4.3,3.5l0,0c-0.1,0.2-0.2,0.2-0.2,0.4
	c-0.1,0.2-0.2,0.2-0.2,0.4c0,0-0.3-0.2-0.8-0.6l0,0c-1.3-0.9-4.1-2.5-8.1-3.3c-5.5-1.2-7.2,0.1-9,0.1s-2.1-0.3-2.4-0.6
	c-0.2-0.2-0.5,1,0.9,1.6c0,0-0.5-0.1-0.8-0.1H76c-0.1,0-0.2-0.1-0.3-0.1c-0.1,0-0.2-0.1-0.3-0.1h-0.2H75c-0.4-0.1-0.8-0.2-1.2-0.4
	c-1.2-0.7-1.7-2.1-2.2-3.5l-0.1-0.2l-0.1-0.1c-0.3-0.9-0.7-2-1.4-2.7c0.2-1,0.2-2,0-2.8c-0.2-0.7-1-1.4-1.6-1.6
	c-0.2,0-0.2-0.1-0.4-0.1c-0.7,0-1.2,0.5-1.4,1.3c-0.4,0-0.7,0.2-0.8,0.5c-0.1,0.2-0.2,0.3-0.2,0.6c-0.2,0-0.5,0.1-0.7,0.2
	c-0.2,0.2-0.2,0.3-0.2,0.7c-0.2,0-0.3,0.1-0.4,0.2c-0.2,0.2-0.2,0.5-0.2,0.8c-0.2,0.1-0.3,0.2-0.4,0.3c-0.2,0.3-0.2,0.7,0,1.2
	c0.2,0.4,0.7,1,1.2,1.2c0,1.8,1.2,3.3,2.3,4.5c0.2,0.3,0.5,0.6,0.7,0.9c0.6,0.7,1,1.6,1.4,2.5c0.3,0.7,0.7,1.5,1.2,2.1
	c0.7,1.2,1.6,2,2.5,2.1c0.3,0.1,0.7,0.1,1.1,0c1-0.2,1.5-0.7,1.7-1.7c0.2-0.4,0.2-0.7,0.5-0.9c0,0.3,0.7-0.2,1.2-0.4
	c0.1,0,0.2,0,0.2-0.1c0,0.2-0.7,1,0,1.5c0,0,0.5-0.8,3-1.2c2.5-0.5,8.1-1.2,12.5,4.5c-0.2,0.2-0.4,0.4-0.6,0.6l0,0
	c-0.2,0.2-0.5,0.3-0.7,0.3c0,0,0,0,0.1,0.1l0,0c0,0,0,0,0.1,0c0,0,0.1,0.1,0.2,0.1l0,0c0.1,0,0.1,0,0.2,0c0,0,0,0,0.1,0
	c0,0,0,0,0.1,0c-0.1,0.1-0.2,0.2-0.3,0.2c-0.4,0.2-0.8,0.2-1.3,0.1c-0.4-0.1-0.9-0.3-1.4-0.7c-0.2-0.2-0.6-0.4-0.9-0.7
	c-0.7-0.5-1.5-1.1-2.3-1.3c-0.2-0.5-0.4-1.1-0.7-1.6c-0.2-0.2-0.6-0.7-1.2-0.8c-0.1,0-0.2-0.1-0.3,0c-0.3,0-0.7,0.2-0.8,0.6
	c-0.1-0.1-0.2-0.1-0.2-0.1c-0.5-0.2-1,0.1-1.2,0.4c-0.1,0.1-0.1,0.2-0.2,0.3c-0.5-0.1-0.9,0.2-1.1,0.6c-0.2,0.1-0.6,0.3-0.7,0.6
	c-0.1-0.1-0.2-0.1-0.3-0.2c-0.5-0.1-0.9,0.1-1.3,0.5c-0.5,0.6-0.7,1.4-0.5,2.1c0.3,1.2,1.2,2.1,2.2,2.5c0.2,0.1,0.2,0.1,0.4,0.1
	c0.2,0.1,0.5,0.1,0.7,0.1c0.7,1.5,2.9,2.1,4.4,2.6c0.3,0.1,0.6,0.2,0.8,0.2c1.6,0.6,3,1.2,4.6,2c0.7,0.3,1.5,0.7,2.2,0.9
	c0,0,0.1,0,0.1,0.1c0.3,0.2,0.7,0.2,1,0.3c1.2,0.3,2.4,0.2,3.1-0.4c0.5-0.4,0.7-0.9,0.8-1.6c0.1-0.7-0.1-1.5-0.2-2.1
	c0.4,0.6,1,1.2,1.6,1.8c0,0,2.8,3.3,8,4.4c-0.7,1.3-1.6,2.5-2.5,3.7c-2.1,2.6-4.9,4.7-6.9,6.2c-1.2,0.9-2.6,1.9-4.3,3
	c0.7-0.8,1.5-1.8,1.8-2.9c0.2-0.7,0.2-1.4-0.1-1.9c-0.2-0.5-0.7-0.9-1.3-1.1c-0.9-0.2-1.7,0.2-2.4,1.1c-1.3,1.9-0.6,5.4-0.4,6.3
	c-0.7,0.5-1.5,1.1-2.1,1.8c-0.5,0.6-1,1.3-1.5,2.1c-0.4,0.7-0.7,1.4-1.2,2.3c-0.3,0.9-0.7,1.8-0.8,2.9c-0.1-0.7-0.2-1.2-0.5-1.8
	c-0.2-0.5-0.7-0.8-1.2-1s-1.1,0-1.5,0.5s-0.7,1.2-0.5,1.9c0.3,1.9,2.7,3.3,3.3,3.6c0,2.8,0.8,5.3,2.3,7.1c0.5,0.6,1.9,2.1,3.6,2.5
	c0.7,0.2,1.2,0.2,1.8,0c1.8-0.6,3-2.3,3.1-4.3c0-1.7-0.7-2.9-1.8-3.2c-0.3-0.1-0.7-0.1-1.2,0c-0.7,0.2-1.6,0.9-1.8,1.7
	c-0.2,0.5-0.1,1,0.1,1.4c0.1,0.7,0.5,1.2,1.1,1.3c0.1,0,0.2,0,0.3,0c0.4,0.1,0.8-0.1,1.1-0.5c0.1-0.2,0.2-0.3,0.2-0.5
	c0,0.2-0.1,0.4-0.2,0.6c-0.4,1.1-1.3,1.5-2.3,1.2c-0.3-0.1-0.7-0.2-0.9-0.4c-3.1-2.2-3.2-6.2-2.7-9.3c0.2-0.9,0.4-1.7,0.7-2.5
	c0.1,0,0.2,0.1,0.2,0.1c1.1,0.2,3.5,0.7,4.8-0.2c0.5-0.4,0.7-1,0.7-1.6c-0.2-0.7-0.8-1.4-1.6-1.6c-0.3-0.1-0.7-0.1-1.1,0
	c-0.6,0.2-1.2,0.6-1.6,1c2-2.6,5-4.4,7.9-6.2c1.6-1,3.2-1.9,4.6-3c3.8-3,6.7-6.4,8.5-10.2c1.6-0.1,3.2-0.3,5-0.9
	c-0.7,1.9-1.3,3.9-1.4,5.8c-0.2,3.5,0.4,6.9,2.3,9.9c3.5,5.7,11.5,5.5,16.4,2.5c0.3-0.2,0.6-0.4,0.8-0.6c0.1-0.1,0.2-0.2,0.2-0.2
	c0.2-0.2,0.4-0.3,0.6-0.5c0.1-0.1,0.2-0.2,0.2-0.2c0.2-0.2,0.5-0.5,0.7-0.7l0.1-0.1c0.2-0.2,0.4-0.5,0.6-0.8
	c0.1-0.1,0.2-0.2,0.2-0.3c0.2-0.2,0.2-0.4,0.4-0.7c0.1-0.1,0.1-0.2,0.2-0.3c0.2-0.3,0.3-0.7,0.5-1l0,0c0.3-0.7,0.6-1.6,0.7-2.4
	c0.4-1.9,0.1-3.9-0.4-5.8c-0.3-1.5-0.7-3-1-4.4c-0.1-0.3-0.2-0.7-0.2-1.1c0-0.1,0-0.2,0-0.2c-0.1-0.4-0.1-0.8-0.2-1.2
	c-0.2-3.6,0.6-8.4,3.4-10.7c2.8-2.3,10.2-2.5,10.4,2.5c0.1,1.6-0.3,4.1-1.2,5.4c-0.7,1.1-1.7,2-3,1.8c-0.6-0.1-1.9-1.6-0.7-1.8
	c0.2,0,0.2-0.1,0.4-0.1c0,0,0.1,0,0.1-0.1c0.1-0.1,0.2-0.1,0.2-0.2c0,0,0.1,0,0.1-0.1c0.1-0.1,0.2-0.2,0.2-0.2l0,0
	c0.1-0.2,0.2-0.3,0.2-0.5c0-0.1,0-0.1,0-0.2c0.3-1.2-0.8-2-1.8-1.8c-0.5,0.1-1.1,0.3-1.6,0.7c-0.1,0.1-0.2,0.1-0.2,0.2
	c-0.1,0-0.1,0.1-0.2,0.1c-0.1,0.1-0.2,0.2-0.3,0.3l-0.1,0.1c-0.1,0.1-0.2,0.2-0.2,0.3c0,0,0,0.1-0.1,0.1c-0.1,0.2-0.2,0.2-0.2,0.4
	v0.1c-0.1,0.2-0.1,0.3-0.1,0.5c-0.2,2,0.7,3.2,2.1,4.3c3.1,2.5,6.7-0.9,7.9-3.9c0.2-0.3,0.2-0.6,0.3-0.9l0,0l0,0
	c1-3.2,0.3-6.9-2.1-9.2c-2.5-2.4-6.2-2.5-9.1-1.6c-1.5,0.4-2.7,1.2-3.8,2.3c0,0,0-0.1,0.1-0.1c-0.1,0.1-0.1,0.1-0.2,0.2
	c-0.2,0.2-0.5,0.6-0.7,0.9c0,0.1-0.1,0.1-0.2,0.2c-0.2,0.3-0.5,0.7-0.7,1.2c-0.1,0.1-0.1,0.2-0.2,0.2c-0.2,0.3-0.3,0.7-0.5,1.1
	c0,0.1-0.1,0.2-0.1,0.2c-0.2,0.4-0.3,0.9-0.5,1.3c0,0.1-0.1,0.2-0.1,0.2c-0.1,0.4-0.2,0.8-0.3,1.2c0,0.1-0.1,0.2-0.1,0.3
	c-0.1,0.5-0.2,0.9-0.2,1.4c0,0.1,0,0.1,0,0.2c-0.1,0.4-0.1,0.8-0.1,1.2c0,0.1,0,0.2,0,0.3c0,0.4,0,0.9,0,1.3c0.1,1.8,0.4,3.7,1,5.4
	c0.7,2.1,1.2,4.1,1.3,6.3c0,0.2,0,0.5,0,0.7c0,0.1,0,0.2-0.1,0.3c0,0.2-0.1,0.2-0.1,0.4c0,0.1-0.1,0.2-0.1,0.3s-0.1,0.2-0.1,0.3
	s-0.1,0.2-0.1,0.3c-0.1,0.1-0.1,0.2-0.2,0.3c-0.1,0.1-0.1,0.2-0.2,0.3c-0.1,0.2-0.2,0.2-0.2,0.4c0,0.1-0.1,0.2-0.1,0.2
	c-0.4,0.7-0.8,1.3-1.2,1.9c-2.8,3.6-8.3,4.3-12.1,2.1c-3.8-2.1-5-5.8-4.8-9.9l0,0c0-0.4,0.1-0.8,0.1-1.2c0-0.1,0-0.2,0-0.2
	c0.1-0.3,0.1-0.7,0.2-1c0-0.1,0-0.2,0.1-0.3c0.1-0.3,0.2-0.7,0.2-1c0-0.1,0-0.2,0.1-0.2c0.1-0.4,0.2-0.8,0.3-1.2
	c0.2-1,0.7-1.9,1-2.8c1.9-1.4,3.7-3.8,4.5-7.9c0.2,0.1,0.5,0.2,0.7,0.2c1,0.3,2.7,0.7,4.4,0.1c0.2-0.1,0.3-0.2,0.5-0.3l0,0l0,0
	c2-1.6,2.4-7.4,0.8-12.3c-0.5-1.5-1-2.9-1.6-4.1c5.6,1,13.1-0.1,18.1-7.9c0.6-0.2,4.3-1.7,5.8-5c0.6-1.3,0.8-2.1,0.7-2.6
	c-0.1-0.2-0.2-0.3-0.3-0.4c-0.3-0.2-0.9,0-1.4,0.2c-0.1-0.2-0.2-0.5-0.2-0.9C153.1,247.7,154.3,244.8,154.6,242.8z M113.2,256.7
	c-0.4,0.5-0.7,1.1-1.1,1.6c-0.1-1-0.2-1.9-0.3-2.9C112.3,255.7,112.7,256.2,113.2,256.7z M110,221.7c-0.1,0.1-0.2,0.2-0.2,0.2
	c-0.2,0.2-0.3,0.3-0.5,0.6l0,0c0-0.2,0-0.5,0-0.7C109.5,221.8,109.7,221.8,110,221.7z M108.1,250.9c0,0.2,0,0.4,0.1,0.6
	c-0.1-0.3-0.2-0.7-0.3-1C107.9,250.7,108,250.8,108.1,250.9z"/>
<path class="st0" d="M111.1,188.2l41.7-66.2c0,0,3.3-2.8,1.3,1S117,182.9,117,182.9L111.1,188.2z"/>
<path class="st0" d="M139.6,142.1l41.7-66.2c0,0,3.3-2.8,1.3,1s-37.1,59.9-37.1,59.9L139.6,142.1z"/>
<g>
	<path class="st1" d="M1014.1,621.7c0,0,0.6-2.8,2-4.7c1.4-2,2.1-2.9,2.5-2.5c0.3,0.4,0.2,1.5,0.3,1.8c0.1,0.4,0.8,0.3,1.4-0.2
		c0.6-0.6,1.4-1.4,2.2-1.5c0.9-0.1,1.5,0.3,1.7,0.2s0.6-0.2,0.8,0c0.2,0.2-0.7,0.4-0.9,1.1c-0.3,0.7-0.3,1.2-0.3,1.2
		s0.9-1.3,1.6-0.5c0.8,0.8,1,1.4,2.2,2.4c1.1,1.1,7.1,7.6,8.1,9.3c1,1.6-0.7,0.6-1.3,0.1s-5.9-0.4-8.8-3.8c-1.1-1.3-4.2,0.7-5.4,0.2
		c-1.2-0.4-2.3-0.7-2.6-0.8s-2.4,3.1-2.8,4.6s-2.3-0.1-2.6-2.4c-0.3-2.3-0.1-2.7,0.2-2.7c0.3-0.1,1.9-0.5,2.7-1.1
		c0.9-0.6,0.3-1,0.2-0.8C1014.9,621.7,1014.3,622.2,1014.1,621.7z"/>
	<path class="st1" d="M1097.3,673.3c0,0,0.3-2.4,1.4-4.2c1-1.7,1.6-2.7,1.9-2.4s0.2,1.2,0.3,1.5c0.1,0.3,0.7,0.2,1.2-0.3
		c0.4-0.6,1.1-1.3,1.8-1.5c0.7-0.2,1.3,0.1,1.4,0c0.2-0.1,0.4-0.2,0.6-0.1c0.2,0.2-0.6,0.4-0.8,1c-0.2,0.6-0.2,1-0.2,1
		s0.7-1.2,1.4-0.6c0.8,0.6,0.9,1.1,2,1.8c1,0.8,6.4,5.7,7.3,6.9c0.9,1.3-0.5,0.5-1,0.2s-4.9,0.3-7.7-2.4c-1-1-3.4,1.1-4.4,0.8
		s-2-0.3-2.3-0.4c-0.3-0.1-1.9,2.8-2,4.2c-0.3,1.3-1.9,0.2-2.3-1.7c-0.3-1.9-0.2-2.3,0.1-2.4s1.5-0.7,2.2-1.2
		c0.7-0.6,0.3-0.8,0.1-0.7C1097.9,673.2,1097.4,673.7,1097.3,673.3z"/>
	<path class="st1" d="M980.9,651.8c0,0,0.2-1.6,0.9-2.8s1.1-1.8,1.3-1.6s0.2,0.8,0.2,1.1c0.1,0.2,0.4,0.2,0.8-0.2s0.8-0.9,1.2-1
		s0.9,0.1,1,0s0.3-0.2,0.4-0.1c0.1,0.1-0.3,0.3-0.5,0.7c-0.1,0.4-0.1,0.7-0.1,0.7s0.4-0.8,0.9-0.4c0.5,0.4,0.6,0.7,1.4,1.2
		c0.7,0.6,4.3,3.8,4.9,4.7c0.6,0.8-0.3,0.3-0.8,0.1c-0.4-0.2-3.3,0.2-5.2-1.5c-0.7-0.7-2.3,0.7-3,0.6c-0.7-0.2-1.4-0.2-1.5-0.2
		c-0.2,0-1.3,2-1.4,2.8c-0.2,0.9-1.3,0.2-1.5-1.1c-0.3-1.3-0.2-1.5,0.1-1.5c0.2-0.1,1.1-0.4,1.5-0.8c0.4-0.4,0.2-0.6,0.1-0.4
		C981.3,651.6,980.9,651.9,980.9,651.8z"/>
	<path class="st1" d="M991.2,677.2c0,0,3.1-2.8,4.6-2.9c1.4-0.2,2.5-0.1,2.3,0.7s-0.4,3.2,0.1,4c0.4,0.8,0.4,1.3,1.1,0.3
		c0.7-1,0.9-2.4,1.4-1.8c0.5,0.7,0.3,1.5,0.9,1.3c0.6-0.2,0.6-0.2,0.9-0.2c0.3,0.1,0.4-0.2,0.8-0.2c0.3-0.1-0.3,0.4-0.4,0.7
		c-0.1,0.2-0.3,1.5-0.6,2.2c-0.3,0.6-0.4,1.3-0.4,1.3s0.5,1.8,1.3,4.3s1.1,3.8,0,2.5s-0.7-1.5-1.6-2.1c-1-0.7-1.7-1.7-1.9-2.3
		c0,0-1.8,1.3-2.6,1.1s-1,1.1-1.6,1.8c-0.7,0.7-1.4,1-2.5-0.5c-1-1.5-0.3-2.7-0.1-2.9c0.3-0.2,1.5-0.2,2.1-0.5s1.2-1.3,0.4-1.2
		c-0.8,0.2-1.6-2.4-1.4-3.1c0.3-0.8,0.9-2.4,0.2-2.4C993.4,677.1,991.7,677.9,991.2,677.2z"/>
	<path class="st1" d="M1092.6,591.7c0,0,1.4-1.1,2.1-1.1c0.6,0,1.1,0.1,1,0.4c-0.1,0.3-0.3,1.4-0.1,1.8c0.2,0.4,0.2,0.6,0.4,0.2
		c0.3-0.4,0.4-1.1,0.7-0.7c0.2,0.3,0.1,0.7,0.3,0.7c0.3-0.1,0.3-0.1,0.3-0.1s0.2-0.1,0.3-0.1c0.1,0-0.2,0.2-0.2,0.2
		c-0.1,0.1-0.2,0.7-0.3,1c-0.2,0.2-0.3,0.6-0.3,0.6s0.2,0.8,0.4,2c0.3,1.1,0.4,1.7-0.1,1.1c-0.5-0.7-0.3-0.7-0.7-1.1
		c-0.4-0.4-0.8-0.8-0.8-1.1c0,0-0.9,0.5-1.1,0.3c-0.3-0.2-0.4,0.4-0.8,0.7c-0.3,0.2-0.7,0.3-1-0.3c-0.3-0.7-0.1-1.2,0.1-1.3
		s0.7,0,0.9-0.1c0.3-0.1,0.6-0.5,0.3-0.5c-0.3,0-0.7-1.1-0.5-1.5s0.4-1,0.1-1.1C1093.5,591.7,1092.7,592,1092.6,591.7z"/>
	<path class="st1" d="M1036.3,582.2c0-0.2-0.2-5.4-1-7.1c-0.9-1.7-3.9-6.5-5.5-9c-1.5-2.4-3.5-4.9-3.7-4.6c-0.3,0.3,1.6,3.2,1.7,5.1
		c0.1,1.9,0.5,3.9,0.9,5.4c0.3,1.5,1.4,2.6,1.3,3.8s0.1,3.6,0.9,7.2c0.9,3.6,1.4,5.9,1.4,7.7c0.1,1.8,0.1,2.5-1.3,2.1
		s-3.3-1.5-3.7-1.1c-0.4,0.4-0.7,4.6,0.4,5.7c1.1,1.2,3.7,1.5,4.8,1.4c1.1-0.2,0.6-3.1,1.1-3.2c0.6-0.1,2.8,0.2,5.5-1.5
		c2.7-1.9,3.1-3.3,3.3-3.5c0.3-0.3,0.6-0.7,0.3-0.7c-0.2,0-0.2,0.2-0.9-0.3c-0.7-0.6-1.6-0.6-2-0.6c-0.3,0.1-0.8-0.8,0.1-2.3
		s2.4-3.3,2-5.4c-0.3-2.1-0.9-6.1-1.3-7.9c-0.4-1.8-1.4-3.1-1.6-2.7c-0.3,0.4,0.5,1.8,0.2,4c-0.3,2.1-2.2,5.2-2.6,6.8
		C1036.6,582.8,1036.3,583.4,1036.3,582.2z"/>
	<path class="st1" d="M1021.3,666.7c0.3-0.2,1-0.7,1.5-0.7s0.8,0.2,1,0.4c0.3,0.2,0.4,0.2,0.6,0.2s0,0.2-0.3,0.3
		c-0.3,0.2-0.4,0.9-0.9,1.4c-0.4,0.5-1.5,2.8-2.6,3.5c-1,0.7-2.3,0.9-3,1.5s-1.3,2.1-1.6,2.2c-0.3,0.2-1.2-1.5-1.5-2.1
		s0.6-1.2,1.2-1.2c0.6-0.1,1.3-0.8,0.9-1.1c-0.3-0.2-2.6-4.7-2.9-6.1c-0.3-1.4-0.9-6.6-1.5-8.2c-0.7-1.6-0.4-5.2-0.2-5.3
		c0.3-0.2,1.8,3,2.3,4.1c0.6,1.1,0.9,1.7,1,1.7c0.1,0.1,0.3-0.8,0.3-1.5c0-0.8-0.2-2,1.3,0.6c1.4,2.6,3.1,3.9,3,5.3
		c-0.1,1.4-0.1,2.6,0,3.6s0.3,2,0.3,2S1021.1,666.9,1021.3,666.7z"/>
	<path class="st1" d="M1156.9,667.6c0.2-0.2,0.8-0.6,1.2-0.6c0.4,0,0.6,0.2,0.8,0.3c0.2,0.2,0.3,0.2,0.4,0.2s0,0.2-0.2,0.2
		c-0.2,0.2-0.3,0.7-0.7,1.1c-0.3,0.3-1.1,2.1-1.9,2.7s-1.8,0.7-2.3,1.1c-0.5,0.4-1,1.5-1.3,1.7s-0.9-1.1-1.1-1.5s0.4-0.9,0.9-1
		c0.4-0.1,1-0.7,0.8-0.8c-0.3-0.2-1.9-3.6-2.2-4.6c-0.3-1.1-0.6-5-1.1-6.3c-0.5-1.2-0.3-3.9-0.1-4c0.2-0.1,1.3,2.3,1.8,3.1
		c0.4,0.8,0.7,1.3,0.8,1.3c0.1,0,0.2-0.6,0.2-1.2c0-0.7-0.1-1.5,1,0.4c1.1,2,2.3,2.9,2.3,4c-0.1,1.1-0.1,2,0,2.7s0.2,1.5,0.2,1.5
		S1156.7,667.7,1156.9,667.6z"/>
	<path class="st1" d="M1150.3,559.7c0.3-0.1,1.1-0.3,1.6-0.2c0.5,0.2,0.8,0.5,0.9,0.7s0.3,0.4,0.6,0.4c0.2,0.1-0.1,0.2-0.3,0.2
		c-0.3,0.1-0.6,0.7-1.1,1.1c-0.4,0.3-1.9,2.2-3.1,2.6c-1.1,0.3-2.5,0.1-3.1,0.3c-0.8,0.3-1.6,1.5-2,1.5c-0.3,0.1-0.9-1.9-1.1-2.5
		c-0.2-0.7,0.8-1,1.4-0.8s1.4-0.4,1.1-0.7s-1.6-5.4-1.8-6.8c-0.1-1.5,0.3-6.7,0-8.5s0.5-5.1,0.8-5.2c0.3-0.1,1.1,3.5,1.5,4.7
		s0.6,2,0.7,2c0.1,0.1,0.4-0.7,0.6-1.5s0.2-2,1.1,1.1c0.9,3,2.3,4.9,2,6.1c-0.3,1.3-0.5,2.4-0.6,3.5c-0.1,1-0.1,2-0.1,2
		S1150,559.8,1150.3,559.7z"/>
	<path class="st1" d="M1025.6,551.4c-0.1-0.1-0.2-0.2-0.3-0.3c-0.1-0.2-0.3-0.4-0.6-0.6c-0.3-0.2-0.9-0.1-1.1-0.1
		c-0.2,0.1-0.6-0.1-0.6-0.1s0.1-0.7,0.2-1.3c0.1-0.7,0.3-1.4,0.6-2.2s-0.5-2.2-1-4.2c-0.4-2.1-0.6-1.3-0.8-0.8s-0.3,1-0.4,0.9
		c-0.1-0.1-0.2-0.6-0.3-1.4c-0.2-0.9-0.6-3.3-0.8-3.3s-0.9,2.1-0.8,3.3s-0.4,4.6-0.4,5.6c0,1.1,0.6,4.5,0.9,4.7
		c0.2,0.2-0.3,0.6-0.8,0.4c-0.4-0.2-1-0.1-0.9,0.4c0.1,0.4,0.3,1.8,0.6,1.8s0.9-0.7,1.4-0.9c0.5-0.1,1.4,0.2,2.1,0.1
		s1.8-1.2,2.2-1.4C1025.1,551.8,1025.4,551.4,1025.6,551.4C1025.5,551.6,1025.7,551.5,1025.6,551.4z"/>
	<path class="st1" d="M1111.8,558.5c0,0,2.5-1.3,3.6-0.9c1.1,0.4,1,1.4,1.4,1.5s1,0.4,0.8,0.6c-0.3,0.2-0.8,0.2-1,0.6
		s-1.4,2.4-2.2,2.8c-0.9,0.6-1.4,0.7-1.1,1.1c0.3,0.5,1.8,2.9,3.2,3.2c1.5,0.2,3.1,0.6,3.7,2.2c0.6,1.6,1.1,5.9,1.7,8.8
		c0.6,2.8,1.2,11.1,1,13.9c-0.2,2.8-0.1,3.8-0.8,4.2c-0.7,0.4-3-3.5-3.3-6.2s-1-7.2-2.4-9.4c-1.4-2-7.1-7.6-8.4-8.8
		s-1.7-2.7-1.7-2.7s-1.8,0.9-2.8,1.3c-0.6,0.2-2.6,2.7-2.9,3.6c-0.3,0.8-0.6,1.3-1.1,0.8c-0.5-0.6-1.1-1.3-1.6-2.2
		c-0.4-0.8-1.3-2.6-0.7-2.9c0.5-0.3,1.4-0.6,2.4-1.1c0.9-0.5,1.8-1.5,2.6-2.4c0.7-1,1.1-2.2,1.1-2.4s-1.7-4.7-1.9-8.2
		c-0.2-3.6-1.3-7.9-1.6-8.9c-0.4-1-4.8-5.8-5.9-7.6c-1.2-1.9-2.7-4-0.5-3.8s8.1,3.1,10.3,4.9c2.3,1.7,4.4,2.9,4.4,5.2
		c0.1,2.3-0.6,5.4,0,7.5C1108.5,555.1,1110.4,558.6,1111.8,558.5z"/>
	<path class="st1" d="M1017.6,709.2c0,0,1.4-1.5,2.1-1.5c0.8,0,0.9,0.6,1.1,0.6c0.3,0,0.8,0,0.5,0.2c-0.2,0.2-0.4,0.3-0.5,0.6
		s-0.5,1.8-1,2.4s-0.8,0.8-0.5,1s1.5,1.3,2.5,1.1s2-0.5,2.6,0.4s1.5,3.5,2.3,5s2.3,6.6,2.6,8.4s0.4,2.4,0.1,2.8
		c-0.3,0.4-2.3-1.5-3-2.9s-1.6-4.2-2.8-5.2c-1.1-0.9-5.6-2.8-6.5-3.2s-1.4-1.2-1.4-1.2s-1,1.1-1.6,1.5c-0.3,0.3-1.3,2.4-1.4,3
		c-0.1,0.7-0.2,1-0.6,0.8c-0.4-0.2-0.9-0.6-1.3-1c-0.4-0.4-1.1-1.3-0.9-1.7c0.3-0.3,0.8-0.7,1.3-1.3s0.9-1.5,1.3-2.2
		c0.3-0.8,0.3-1.7,0.3-1.8s-1.7-2.4-2.3-4.6c-0.6-2.2-1.9-4.6-2.2-5.1s-3.7-2.4-4.8-3.2c-1-0.8-2.2-1.8-0.9-2.3
		c1.4-0.5,5.4-0.2,7.1,0.2c1.6,0.4,3.1,0.7,3.5,2.1s0.3,3.5,1,4.7C1015,708.1,1016.7,709.7,1017.6,709.2z"/>
	<path class="st1" d="M1058.7,689.9c0,0-0.1-2.1-2.5-4.2c-2.5-2.2-6.5-7.7-6.9-9.1c-0.3-1.4-1.6-3.7-1.7-4.3c-0.2-0.6-0.8,1-0.1,3
		c0.7,2,1.5,4.2,1.7,5.4c0.2,1.3,1.4,5.8,4.2,7.7c2.8,2,4.1,3.1,4,3.6c-0.2,0.5-0.8,1.1-1.4,0.9c-0.6-0.2-2.3-1.3-2.5-0.8
		s0.6,5.2,2.6,6.3s4.3,0.3,4.7-0.1c0.3-0.3-1.4-1-1.1-1.8c0.3-0.9,1.2-0.3,1.8-0.9c0.6-0.6,2-0.1,2.4,0c0.3,0.1-0.2-0.5-0.2-0.5
		s3.1,0.7,4.3,1.1s4.3-0.1,5.2,0.4c0.9,0.5,8.2,0.5,8.6-0.3c0.2-0.5-1.1-0.2-2.3-0.2c-1.2,0-4.9-0.6-6.4-1.5
		c-1.4-0.9-3.4-2.1-4.3-2.4c-0.9-0.3-3.7,0.2-4.8,0.3c-1.1,0-1.7-0.1-1.7-0.1s-0.6-1.2-1.2-1.7
		C1060.4,690.2,1058.7,689.9,1058.7,689.9z"/>
	<path class="st1" d="M1049.9,568.7c0,0-0.1-1.1-1.4-2.4c-1.4-1.2-3.7-4.3-3.8-5c-0.2-0.8-0.9-2.1-1-2.4c-0.1-0.3-0.4,0.6-0.1,1.7
		c0.3,1.1,0.9,2.4,0.9,3.1c0.1,0.7,0.8,3.2,2.3,4.3s2.3,1.7,2.2,2c-0.1,0.3-0.4,0.7-0.8,0.5c-0.3-0.2-1.3-0.7-1.4-0.4
		s0.3,2.8,1.4,3.5s2.5,0.2,2.6,0c0.2-0.2-0.8-0.6-0.6-1.1c0.2-0.5,0.7-0.2,1-0.5s1.1-0.1,1.3,0c0.2,0.1-0.1-0.2-0.1-0.2
		s1.6,0.4,2.4,0.6c0.7,0.2,2.4,0,2.9,0.2c0.4,0.2,4.6,0.2,4.8-0.2c0.1-0.3-0.6-0.2-1.3-0.2s-2.7-0.3-3.5-0.8
		c-0.8-0.6-1.9-1.1-2.5-1.3c-0.5-0.2-2,0.2-2.7,0.2s-0.9-0.1-0.9-0.1s-0.3-0.7-0.7-1C1050.8,569,1049.9,568.7,1049.9,568.7z"/>
	<path class="st1" d="M1022.9,598c-0.3,0.1-1.4,0.1-1.9-0.1c-0.4-0.2-1-0.4-1.3-0.4c-0.3-0.1-1,0.3-1.4,0.3
		c-0.3,0.1-0.4,0.1-0.4,0.1s-0.2-0.3-0.3-0.4c-0.2-0.1-0.7-0.1-0.7-0.1s-0.1-0.6-0.9-1.1c-0.8-0.5-2-1.8-2.2-2.2s-0.6-1-0.6-1.1
		c-0.1-0.2-0.2,0.3,0.1,0.9c0.3,0.6,0.5,1.1,0.6,1.5c0.1,0.3,0.6,1.5,1.4,2c0.9,0.4,1.3,0.7,1.3,0.8s-0.2,0.3-0.3,0.3
		c-0.2-0.1-0.7-0.2-0.8-0.1c-0.1,0.2,0.3,1.5,0.9,1.6c0.6,0.2,1.3-0.2,1.4-0.2c0.1-0.1-0.4-0.2-0.3-0.4s0.3-0.2,0.4-0.3
		c0.2-0.2,0.6-0.2,0.7-0.2c0.1,0-0.1-0.2-0.1-0.2s0.9,0.1,1.3,0.1c0.3,0.1,1.3-0.2,1.5-0.2c0.3,0.1,2.4-0.3,2.5-0.6
		C1023.5,597.8,1023.2,598,1022.9,598z"/>
	<path class="st1" d="M1159.3,592.1c-1-0.2-4-1.4-5-2.4c-1-1.1-2.6-2.4-3.3-2.7c-0.7-0.4-3.1-0.5-3.9-0.7c-0.9-0.2-1.4-0.4-1.4-0.4
		s-0.3-1.1-0.8-1.6c-0.4-0.5-1.8-1.1-1.8-1.1s0.2-1.7-1.6-3.9c-1.8-2.2-4.5-7.5-4.7-8.7s-0.9-3.3-1-3.8c-0.1-0.6-0.7,0.7-0.3,2.4
		c0.3,1.8,0.8,3.7,0.9,4.8s0.6,5,2.6,7.1s3.1,3.3,2.8,3.6c-0.2,0.4-0.8,0.8-1.3,0.4c-0.5-0.3-1.8-1.5-1.9-1.1
		c-0.2,0.3-0.1,4.3,1.5,5.6c1.5,1.3,3.5,1.1,3.7,0.8c0.3-0.2-1.1-1.1-0.7-1.7c0.4-0.7,1-0.1,1.5-0.4c0.5-0.3,1.6,0.3,1.9,0.4
		c0.3,0.1-0.1-0.4-0.1-0.4s2.4,1.1,3.3,1.6c1,0.5,3.5,0.8,4.2,1.3c0.7,0.6,6.6,2,7.1,1.4C1161.3,592.5,1160.1,592.4,1159.3,592.1z"
		/>
	<path class="st1" d="M1101.2,617.5c0,0-2.8-3.4-3.3-6.5s-1.5-6.4-3.1-7.7c-1.5-1.4-5.4-5.4-8-6.8c-2.6-1.4-2.7-0.3-1.5,1
		c2.5,2.8,2.8,5.1,3.3,7.6c0.4,2.4,0.9,9.1,3.1,12.2s3.9,4.9,3.9,6.1c0.1,1.2-0.7,1.7-0.7,1.7s-2.6,1.6-3.3,1.7
		c-0.8,0.1-0.9,1.1-0.3,3.5s1.6,3.6,3.5,3.2c1.8-0.4,1.6,0.2,2-1.7c0.3-1.8-0.2-2.9,0.7-3.5c0.9-0.6,1.4-1.2,2.1-0.8
		c0.8,0.4,6,7.1,8.5,7.6c2.6,0.6,2.3,0,3.7,1.2c1.5,1.2,4.3,6.5,5.3,6c0.9-0.5-1.1-4.6-2.5-7.7c-1.4-3.2-3.4-7.7-4.5-8.4
		s-5.2-2-5.7-3.7c0,0,0.4-0.9,1.1-1.2s1.3-0.2,1.9-0.7s1.4-0.3,1.4-0.3s-0.4-0.7-0.9-0.7s-1-2.4-2.8-2.2s-2.4,0.4-2.9,0.4
		C1102,617.9,1101.2,617.5,1101.2,617.5z"/>
	<path class="st1" d="M963.2,603.5c0,0-1.7-2.1-2-4.1s-0.9-4-1.9-4.9c-0.9-0.8-3.4-3.4-4.9-4.2c-1.6-0.8-1.7-0.2-1,0.7
		c1.5,1.7,1.8,3.2,2,4.7c0.3,1.5,0.6,5.7,2,7.6c1.4,1.9,2.5,3,2.5,3.8c0.1,0.8-0.4,1.1-0.4,1.1s-1.6,1-2,1.1s-0.6,0.7-0.2,2.2
		s1,2.3,2.2,2c1.1-0.2,1,0.1,1.3-1.1c0.3-1.1-0.1-1.8,0.4-2.2c0.5-0.3,0.9-0.7,1.4-0.5c0.4,0.2,3.7,4.5,5.4,4.8
		c1.6,0.3,1.4,0,2.4,0.8c0.9,0.8,2.7,4.1,3.3,3.7c0.6-0.3-0.7-2.8-1.5-4.9c-0.9-2-2.1-4.8-2.8-5.2s-3.2-1.2-3.5-2.3
		c0,0,0.3-0.6,0.7-0.7c0.4-0.2,0.9-0.1,1.2-0.4c0.4-0.3,0.9-0.2,0.9-0.2s-0.3-0.4-0.5-0.4c-0.3-0.1-0.6-1.5-1.8-1.4
		c-1.1,0.1-1.5,0.2-1.8,0.2C963.7,603.9,963.2,603.5,963.2,603.5z"/>
	<path class="st1" d="M1073.1,590.8c0,0-0.8-1.7-0.5-4.5s0.5-5.2-0.1-7s-2.3-6.2-2.9-9.7s-1.2-6.6-1.6-6.8s-2.6,7.1-2.2,11.9
		c0.3,4.8,0.9,5.6,1,7c0.2,1.4-0.4,2.5-0.3,5.4s0.9,6.1,0.9,6.8c0.1,0.6-0.4,1.3-1,1.8c-0.5,0.6-1.9,1.1-2.5,1.4
		c-0.6,0.2-1.2,0.2-1.1,0.7s0.2,1.8,0.8,2.4c0.6,0.7,1.3,0.8,1.8,0.9c0.4,0.1,0.9-2,1.4-2.1s3-0.9,3.4-0.8c0.4,0.1,1.5,1.3,3.2,0.8
		s2.2-0.3,3.2,0.2c1,0.4,3.2,2,3.4,2c0.3-0.1-0.3-1.5-0.8-2.2c-0.8-1-0.9-1.1-1.4-1.8s-1.6-2-2.2-1.9c0,0,0.6-1.5,1.3-2.1
		c0.8-0.6,1.4-1.5,1.8-1.6c0.3-0.1,1-0.1,1.1-0.2c0.1-0.2-1.3-0.6-1.3-0.6s-0.3-1.3-2-1.5C1074.8,589.4,1073.6,590.6,1073.1,590.8z"
		/>
	<path class="st1" d="M1135.5,696.9c0,0-0.7-1.5-0.4-4c0.2-2.4,0.4-4.6-0.1-6.1s-2-5.4-2.6-8.5c-0.5-3.1-1-5.9-1.4-5.9
		c-0.3-0.2-2.2,6.3-1.9,10.5c0.3,4.2,0.8,5,0.9,6.2s-0.3,2.2-0.3,4.9c0.1,2.6,0.7,5.4,0.8,5.9c0.1,0.5-0.4,1.2-0.9,1.6
		c-0.4,0.4-1.6,1-2.2,1.2s-1,0.2-1,0.7c0.1,0.4,0.2,1.6,0.6,2.2s1.1,0.7,1.5,0.8c0.3,0.1,0.8-1.8,1.3-1.9c0.4-0.1,2.6-0.7,3-0.7
		c0.4,0.1,1.4,1.2,2.9,0.7c1.5-0.4,2-0.3,2.9,0.2c0.9,0.4,2.8,1.8,3.1,1.7c0.2-0.1-0.2-1.3-0.7-2c-0.6-0.8-0.9-1-1.3-1.6
		c-0.4-0.7-1.5-1.7-1.9-1.7c0,0,0.5-1.3,1.1-1.8s1.3-1.3,1.5-1.5c0.3-0.1,0.9-0.1,1-0.2c0.1-0.2-1.1-0.4-1.1-0.4s-0.3-1.1-1.9-1.3
		C1137,695.6,1136,696.7,1135.5,696.9z"/>
	<path class="st1" d="M996.1,596.5c0,0-0.4-0.7-0.4-2.1c0-1.4,0-2.5-0.3-3.3c-0.3-0.7-1.4-2.7-1.8-4.3s-0.9-3-1-3.1
		c-0.2-0.1-0.9,3.6-0.4,5.8c0.4,2.2,0.7,2.6,0.9,3.2c0.2,0.6-0.1,1.2,0.1,2.6c0.2,1.4,0.7,2.8,0.8,3.1c0.1,0.2-0.2,0.7-0.3,1
		c-0.2,0.3-0.9,0.7-1.1,0.8c-0.3,0.2-0.6,0.2-0.5,0.4s0.2,0.8,0.4,1.1s0.7,0.3,0.9,0.2c0.2,0,0.3-1.1,0.6-1.1
		c0.3-0.1,1.4-0.7,1.5-0.7c0.2,0,0.8,0.5,1.6,0.1s1-0.3,1.5-0.2c0.5,0.2,1.6,0.7,1.7,0.7s-0.2-0.7-0.4-1c-0.3-0.4-0.5-0.4-0.8-0.7
		s-0.9-0.8-1.1-0.7c0,0,0.2-0.8,0.5-1.1s0.6-0.8,0.8-1c0.2-0.1,0.4-0.2,0.5-0.2c0.1-0.1-0.6-0.2-0.6-0.2s-0.2-0.6-1-0.5
		C996.9,595.6,996.3,596.4,996.1,596.5z"/>
	<path class="st1" d="M1106.4,706.3c-0.3-0.2-0.3-0.2-0.4-0.3c-0.2-0.2-0.6-0.3-0.7-0.2c0,0,0.1-0.4,0.2-0.7
		c0.2-0.2,0.3-0.6,0.3-0.7c0.1-0.1,0.3-0.2,0.3-0.2h-0.3c0,0-0.2-0.3-0.6-0.1s-0.7,0.7-0.9,0.7c0,0-0.3-0.3-0.4-1.1
		c-0.1-0.7-0.2-1.5-0.4-1.8c-0.3-0.4-1-1.3-1.4-2.2c-0.3-0.8-0.8-1.5-0.9-1.5s-0.2,2.1,0.2,3.3c0.4,1.2,0.6,1.3,0.8,1.7
		c0.1,0.3,0.1,0.7,0.3,1.5c0.2,0.7,0.6,1.5,0.7,1.6c0.1,0.2-0.1,0.4-0.2,0.6c-0.1,0.2-0.4,0.5-0.6,0.7s-0.3,0.2-0.3,0.3
		c0.1,0.1,0.2,0.4,0.3,0.6c0.2,0.1,0.4,0.1,0.5,0s0.1-0.7,0.3-0.7c0.2-0.1,0.8-0.6,0.9-0.6c0.1-0.1,0.4,0.2,0.9-0.2s0.6-0.3,0.9-0.3
		s0.9,0.2,1,0.1C1106.9,706.8,1106.6,706.4,1106.4,706.3z"/>
	<path class="st1" d="M1051.4,637.4c-0.6-0.3-0.8-0.3-1.1-0.7c-0.4-0.3-1.3-0.7-1.6-0.5c0,0,0.1-1.1,0.4-1.6
		c0.3-0.6,0.6-1.3,0.8-1.5c0.2-0.2,0.6-0.3,0.6-0.5c0.1-0.2-0.9,0.1-0.9,0.1s-0.4-0.7-1.5-0.2s-1.6,1.5-1.9,1.8c0,0-0.8-0.8-1-2.5
		c-0.3-1.7-0.5-3.3-1.1-4.1s-2.3-3-3.2-5s-1.8-3.6-2-3.6s-0.4,5,0.6,7.8s1.4,3.1,1.8,3.9c0.3,0.8,0.2,1.6,0.7,3.3s1.5,3.5,1.6,3.7
		c0.1,0.3-0.1,1-0.3,1.5c-0.2,0.5-0.9,1.2-1.3,1.5c-0.3,0.3-0.7,0.5-0.6,0.8c0.1,0.2,0.4,1.1,0.9,1.3c0.4,0.2,0.9,0.1,1.2,0
		c0.3-0.1,0.2-1.5,0.5-1.7s1.6-1.5,1.9-1.5c0.3-0.1,1.1,0.3,2-0.5s1.3-0.9,2-0.9c0.7-0.1,2.2,0.2,2.4,0.2
		C1052.4,638.4,1051.9,637.6,1051.4,637.4z"/>
	<path class="st1" d="M1084.2,647.7c0,0-0.5-1-1.2-0.7s-1.1,0.6-1.5,0.5s-2-0.5-2.6-2.8s0.2-5.8-1.1-6.5c-1.4-0.8-5.1-1.8-9.4-1.2
		s-4.7,0.4-3.2,1.8c1.4,1.4,3.5,1.8,4.3,1.8s2.3,0.2,3,1c0.6,0.7,1,2.4,2,4.9c1,2.4,2.2,5.1,2,5.9c-0.1,0.8-0.9,1.8-1.7,2.3
		c-0.9,0.4-1.6,0.7-1.4,1.1c0.2,0.4,1.1,1,1.5,1.4s0.9,1.1,1.1,0.7c0.2-0.4,0.8-2,1.8-2.4s1.5-0.2,3.1-1.5s2.6-3.3,2.8-3.7
		c0.2-0.3,0.9,0.2,1.2,0.8c0.3,0.6,0.8,2,1.7,3s1.3,2.7,1.9,2.9c0.7,0.3,0.4-3.9,0.4-5.9c-0.1-2.1-0.2-3.1-0.7-4.1
		c-0.5-1.1-1-1.2-1.5-0.8C1086.3,646.5,1084.7,647.7,1084.2,647.7z"/>
	<path class="st1" d="M1014.8,564.1c0,0-0.1-0.2-0.3-0.2c-0.2,0.1-0.3,0.2-0.3,0.1c-0.1,0-0.4-0.1-0.6-0.7c-0.1-0.5,0.1-1.3-0.3-1.5
		c-0.3-0.2-1.1-0.4-2-0.2s-1,0.1-0.8,0.4c0.3,0.3,0.8,0.4,0.9,0.4s0.5,0.1,0.7,0.2c0.2,0.2,0.2,0.6,0.4,1.1c0.2,0.6,0.4,1.1,0.4,1.3
		s-0.2,0.4-0.3,0.5c-0.2,0.1-0.3,0.2-0.3,0.2c0.1,0.1,0.3,0.2,0.3,0.3c0.1,0.1,0.2,0.2,0.3,0.2c0.1-0.1,0.2-0.4,0.4-0.6
		c0.2-0.1,0.3-0.1,0.8-0.3c0.4-0.2,0.6-0.7,0.6-0.8c0.1-0.1,0.2,0.1,0.3,0.2c0.1,0.1,0.2,0.4,0.3,0.7c0.2,0.2,0.3,0.6,0.4,0.7
		c0.2,0.1,0.1-0.9,0.1-1.3c0-0.4-0.1-0.7-0.2-1s-0.3-0.3-0.3-0.2C1015.3,563.8,1014.9,564.1,1014.8,564.1z"/>
	<path class="st1" d="M1154.6,614.4c0,0-0.2-0.3-0.3-0.2c-0.2,0.1-0.3,0.2-0.4,0.2s-0.7-0.2-0.9-0.9s0.1-1.9-0.3-2.1
		s-1.6-0.6-3.1-0.4c-1.4,0.2-1.5,0.2-1,0.6c0.4,0.4,1.1,0.6,1.4,0.6s0.8,0.1,0.9,0.3c0.2,0.2,0.3,0.8,0.6,1.5c0.3,0.8,0.7,1.7,0.7,2
		s-0.3,0.6-0.6,0.7c-0.3,0.2-0.5,0.2-0.4,0.3c0.1,0.2,0.3,0.3,0.4,0.4c0.1,0.2,0.3,0.3,0.3,0.2c0.1-0.2,0.3-0.7,0.6-0.7
		c0.3-0.2,0.5-0.1,1-0.5s0.9-1.1,0.9-1.2c0.1-0.1,0.3,0.1,0.3,0.2c0.1,0.2,0.3,0.7,0.6,1c0.3,0.3,0.4,0.9,0.6,1s0.2-1.3,0.1-2
		c0-0.7-0.1-1-0.2-1.3c-0.2-0.3-0.3-0.4-0.4-0.2C1155.3,613.9,1154.7,614.3,1154.6,614.4z"/>
</g>
</svg>
