<?xml version="1.0" encoding="utf-8"?>
<!-- Generator: Adobe Illustrator 23.1.0, SVG Export Plug-In . SVG Version: 6.00 Build 0)  -->
<svg version="1.1" id="Layer_1" xmlns="http://www.w3.org/2000/svg" xmlns:xlink="http://www.w3.org/1999/xlink" x="0px" y="0px"
	 viewBox="0 0 1366 768" style="enable-background:new 0 0 1366 768;" xml:space="preserve">
<style type="text/css">
	.st0{fill:#0D081E;}
	.st1{fill:#060015;}
	.st2{fill:#FFFFFF;}
	.st3{fill:#0B0E35;}
</style>
<path class="st0" d="M1999.5,768c0,0-312.8-269.9-1021.5-273.2C263.4,491.5,315.3-72,309.4,0H-11.4v768"/>
<path id="XMLID_11584_" class="st1" d="M61.5-0.6H277c18.7,0,31.3,19.3,23.7,36.4c-7.5,16.9-15.5,32.3-17.5,38.7
	c-5.5,17-8.7,31.7-31.7,20.7c-23.1-11-90.8-20.7-105.6-18.2c-14.7,2.4-33.5-1.2-59.7-18.2c-5.1-3.3-17.2-5.6-28.4-7.3
	c-12.7-1.9-22.1-12.7-22.2-25.6c0-0.2,0-0.4,0-0.5C35.6,11,47.2-0.6,61.5-0.6z"/>
<path class="st2" d="M154.6,242.8c0.2-1.6,0.5-3.5-1.6-5c-0.2-0.2-0.8-0.4-1.3-0.6c-2.3-0.7-4,0.7-5.2,2.5c0.3-2.1,0.5-4.7,0-7.3
	c0,0,0,0,0.1,0l0,0c0,0,0.1,0,0.1,0.1h0.1c0,0,0.1,0.1,0.2,0.1c0,0,0.1,0,0.1,0.1c0.1,0,0.1,0.1,0.2,0.1c0.1,0,0.1,0,0.2,0.1
	c0.1,0,0.1,0.1,0.2,0.1c0.1,0,0.1,0.1,0.2,0.1s0.2,0.1,0.2,0.1c0.1,0,0.2,0,0.2,0.1c0.1,0,0.2,0,0.2,0.1c0.1,0,0.2,0,0.2,0.1
	c0.1,0,0.2,0,0.2,0.1c0.1,0,0.2,0,0.2,0c0.1,0,0.2,0,0.2,0c0.1,0,0.2,0,0.2,0c0.1,0,0.2,0,0.2,0h0.2h0.2l0.2-0.1l0.2-0.1
	c0.1,0,0.2-0.1,0.2-0.1c0.1,0,0.2-0.1,0.2-0.2c0.1-0.1,0.2-0.1,0.2-0.2s0.2-0.1,0.2-0.2s0.2-0.2,0.2-0.2c0.1-0.1,0.2-0.2,0.2-0.2
	c0.1-0.1,0.2-0.2,0.2-0.3c0.1-0.1,0.1-0.1,0.2-0.2l0,0c0.1-0.1,0.2-0.2,0.2-0.3c0,0-2.2,1.6-4.4-1.2c0,0,0.8,0.2,1.7-0.2l0,0
	c0,0,0.1,0,0.1-0.1c0,0,0.1,0,0.1-0.1c0.1,0,0.2-0.1,0.2-0.1c0.1,0,0.1-0.1,0.2-0.1c0.1,0,0.1-0.1,0.2-0.1c0.1-0.1,0.1-0.1,0.2-0.2
	c0.1,0,0.1-0.1,0.2-0.2c0.1-0.1,0.2-0.1,0.2-0.2c0,0,0.1-0.1,0.1-0.2c0.2-0.2,0.3-0.4,0.4-0.6c0,0,0-0.1,0.1-0.1
	c0-0.1,0.1-0.2,0.1-0.2c0.1-0.1,0.1-0.2,0.2-0.3c0-0.1,0.1-0.1,0.1-0.2c0.1-0.1,0.1-0.2,0.2-0.4l0,0c0-0.1,0-0.1,0.1-0.2
	c0,0-0.7,1.1-2.7,0.7c-2-0.3-4.4-1.9-9.4-5.9c-4.8-3.9-16.6-8.7-26.3-3.4c-0.2-0.6-0.7-1-1.3-1.2c-0.6-0.2-1.2,0-1.7,0.3
	c-0.8,0.7-1.4,1.7-1.7,2.5c0.1-5.1,0.3-9.8,0.9-14.2c0.1-0.4,0.2-0.9,0.2-1.3c0.6-0.1,3.2-0.6,4.1-2.2c0.3-0.6,0.4-1.2,0.2-1.8
	c-0.2-0.5-0.6-0.9-1.1-1c-0.5-0.2-1.1,0.1-1.5,0.5c-0.5,0.5-0.9,1.3-1.2,2.1c0.9-5.3,2.4-10.3,4.3-14.8c3.9-9,6.9-11.8,9.4-13.4
	c0.2-0.1,0.2-0.3,0.2-0.5s-0.2-0.3-0.3-0.4c-0.1,0-0.1,0-0.2,0c-3.7,0.7-6.6,4.4-8,6.6c-1.6,2.5-3,5.3-4.4,8.6
	c0-0.3-0.1-0.7-0.1-0.9c-0.2-0.9-0.7-1.6-1.6-1.8c-0.6-0.2-1.2,0-1.6,0.4c-0.6,0.4-0.9,1.1-1,2c-0.2,2.1,1.7,4.4,2.5,5.3
	c-1.2,4.1-2.1,8.3-2.5,12.5c-0.1-0.3-0.2-0.7-0.2-1c-0.3-0.7-0.8-1.2-1.5-1.4s-1.3,0-1.8,0.5c-0.6,0.5-0.8,1.3-0.7,2.2
	c0.2,2.5,3.3,4.7,3.8,5c-0.3,4.1-0.4,8.2-0.4,12.2c-0.2-0.6-0.4-1.2-0.7-1.6c-0.2-0.4-0.7-0.7-1.1-0.8c-0.6-0.2-1.2,0.1-1.6,0.6
	c-0.5,0.6-0.6,1.3-0.3,2.1c0.5,1.7,2.5,2.8,3.5,3.2c0,0,0,0.1-0.1,0.1c-0.1,0.2-0.2,0.4-0.3,0.7c-0.2,0.2-0.2,0.5-0.4,0.7
	c-0.1,0.2-0.2,0.4-0.3,0.7c-0.1,0.2-0.2,0.6-0.3,0.8c-0.1,0.2-0.2,0.4-0.2,0.7c-0.1,0.2-0.2,0.6-0.3,0.8c-0.1,0.2-0.2,0.4-0.2,0.7
	c-0.1,0.3-0.2,0.6-0.2,0.9c-0.1,0.2-0.1,0.4-0.2,0.7s-0.2,0.7-0.2,1c0,0.2-0.1,0.4-0.1,0.7c-0.1,0.3-0.1,0.7-0.1,1
	c0,0.2-0.1,0.4-0.1,0.6c0,0.4,0,0.7,0,1.2c0,0.2,0,0.3,0,0.5c0,0.6,0.1,1.1,0.2,1.6c0.4,3.1,1.6,6.2,3.3,9c-0.2-0.2-0.4-0.2-0.7-0.3
	c-0.6-0.2-1.2,0.1-1.6,0.6c-0.5,0.6-0.6,1.4-0.3,2.2c0.7,2.2,4,3.3,4.2,3.3h0.1c0.2,2.4,0.5,4.8,0.7,7.2c-1,1.2-1.4,1.8-2.5,2.2
	c-1.5,0.6-3.8-1.2-5.3-2.7s-1.7-3.1-1.7-3.1s-0.2,0.2-0.4,0.6c-0.1-0.2-0.2-0.4-0.2-0.7c0-0.2-0.1-0.2-0.1-0.4s-0.1-0.2-0.1-0.4
	c-0.2-1.1-0.5-1.9-1.6-3.4c-0.1-0.2-1-1.6-1.5-2.4c-0.1-0.2-0.2-0.4-0.2-0.6c-0.2-0.6-0.6-1.2-1.9-2.2c-1.1-0.8-1.9-1.3-2.6-1.5
	s-1.3-0.1-1.7,0.4c-0.2,0.2-0.2,0.4-0.2,0.6c0.1,0.5,0.5,0.9,1.3,1.3c0.7,0.4,1.5,1,2.1,1.6c0.1,0.1,0.2,0.2,0.3,0.5
	c-0.3-0.3-0.7-0.7-1.1-0.9c-0.8-0.7-1.9-1.4-2.7-1.6c-0.1,0-0.2,0-0.2-0.1c-0.7-0.1-1.5,0.2-1.8,0.6c-0.2,0.2-0.2,0.5-0.2,0.7
	c0.1,0.8,0.9,1,1.2,1.1c0.2,0.1,0.4,0.1,0.7,0.1h0.1c0.4,0.1,1,0.6,1.5,1.1c-0.5-0.2-1.2-0.4-1.5-0.5c-0.2,0-0.2-0.1-0.3-0.1
	c-0.4-0.1-1.5,0.2-2,0.7c-0.2,0.3-0.3,0.7-0.2,1.2c0.1,0.4,0.9,0.7,1.5,0.9h0.1c0.2,0,0.3,0.1,0.6,0.1c0.2,0.1,0.4,0.1,0.7,0.2
	c-0.6,0.2-1.2,0.6-1.5,0.7c-0.2,0.2-0.5,0.5-0.6,0.8c-0.1,0.2,0,0.6,0.2,0.8c0.1,0.2,0.3,0.3,0.6,0.4c0.4,0.1,1,0,1.5-0.1
	c0.7-0.2,1.4-0.2,2,0c0.1,0,0.2,0,0.2,0.1c0.4,0.2,0.4,0.2,0.5,0.7c0,0.2,0,0.2,0.1,0.5c0,0.1,0,0.2,0.1,0.2c0.2,0.8,0.4,2.2,1.5,3
	c0.2,0.2,0.6,0.3,0.9,0.4c0.8,0.2,1.6-0.1,2.1-0.2h-0.6l0,0c0.2,0.1,0.8,0.4,1.6,1.3c0.7,0.8,4.5,4.4,7.6,5.3
	c-0.6,0.8-1,1.6-1.3,2.6c-0.7-0.7-1.2-1-1.3-1.1c-0.7-0.7-1.6-1.2-2.1-1.4c-1.5-0.4-3,1.6-4.3,3.5l0,0c-0.1,0.2-0.2,0.2-0.2,0.4
	c-0.1,0.2-0.2,0.2-0.2,0.4c0,0-0.3-0.2-0.8-0.6l0,0c-1.3-0.9-4.1-2.5-8.1-3.3c-5.5-1.2-7.2,0.1-9,0.1s-2.1-0.3-2.4-0.6
	c-0.2-0.2-0.5,1,0.9,1.6c0,0-0.5-0.1-0.8-0.1H76c-0.1,0-0.2-0.1-0.3-0.1c-0.1,0-0.2-0.1-0.3-0.1h-0.2H75c-0.4-0.1-0.8-0.2-1.2-0.4
	c-1.2-0.7-1.7-2.1-2.2-3.5l-0.1-0.2l-0.1-0.1c-0.3-0.9-0.7-2-1.4-2.7c0.2-1,0.2-2,0-2.8c-0.2-0.7-1-1.4-1.6-1.6
	c-0.2,0-0.2-0.1-0.4-0.1c-0.7,0-1.2,0.5-1.4,1.3c-0.4,0-0.7,0.2-0.8,0.5c-0.1,0.2-0.2,0.3-0.2,0.6c-0.2,0-0.5,0.1-0.7,0.2
	c-0.2,0.2-0.2,0.3-0.2,0.7c-0.2,0-0.3,0.1-0.4,0.2c-0.2,0.2-0.2,0.5-0.2,0.8c-0.2,0.1-0.3,0.2-0.4,0.3c-0.2,0.3-0.2,0.7,0,1.2
	c0.2,0.4,0.7,1,1.2,1.2c0,1.8,1.2,3.3,2.3,4.5c0.2,0.3,0.5,0.6,0.7,0.9c0.6,0.7,1,1.6,1.4,2.5c0.3,0.7,0.7,1.5,1.2,2.1
	c0.7,1.2,1.6,2,2.5,2.1c0.3,0.1,0.7,0.1,1.1,0c1-0.2,1.5-0.7,1.7-1.7c0.2-0.4,0.2-0.7,0.5-0.9c0,0.3,0.7-0.2,1.2-0.4
	c0.1,0,0.2,0,0.2-0.1c0,0.2-0.7,1,0,1.5c0,0,0.5-0.8,3-1.2c2.5-0.5,8.1-1.2,12.5,4.5c-0.2,0.2-0.4,0.4-0.6,0.6l0,0
	c-0.2,0.2-0.5,0.3-0.7,0.3c0,0,0,0,0.1,0.1l0,0c0,0,0,0,0.1,0c0,0,0.1,0.1,0.2,0.1l0,0c0.1,0,0.1,0,0.2,0c0,0,0,0,0.1,0
	c0,0,0,0,0.1,0c-0.1,0.1-0.2,0.2-0.3,0.2c-0.4,0.2-0.8,0.2-1.3,0.1c-0.4-0.1-0.9-0.3-1.4-0.7c-0.2-0.2-0.6-0.4-0.9-0.7
	c-0.7-0.5-1.5-1.1-2.3-1.3c-0.2-0.5-0.4-1.1-0.7-1.6c-0.2-0.2-0.6-0.7-1.2-0.8c-0.1,0-0.2-0.1-0.3,0c-0.3,0-0.7,0.2-0.8,0.6
	c-0.1-0.1-0.2-0.1-0.2-0.1c-0.5-0.2-1,0.1-1.2,0.4c-0.1,0.1-0.1,0.2-0.2,0.3c-0.5-0.1-0.9,0.2-1.1,0.6c-0.2,0.1-0.6,0.3-0.7,0.6
	c-0.1-0.1-0.2-0.1-0.3-0.2c-0.5-0.1-0.9,0.1-1.3,0.5c-0.5,0.6-0.7,1.4-0.5,2.1c0.3,1.2,1.2,2.1,2.2,2.5c0.2,0.1,0.2,0.1,0.4,0.1
	c0.2,0.1,0.5,0.1,0.7,0.1c0.7,1.5,2.9,2.1,4.4,2.6c0.3,0.1,0.6,0.2,0.8,0.2c1.6,0.6,3,1.2,4.6,2c0.7,0.3,1.5,0.7,2.2,0.9
	c0,0,0.1,0,0.1,0.1c0.3,0.2,0.7,0.2,1,0.3c1.2,0.3,2.4,0.2,3.1-0.4c0.5-0.4,0.7-0.9,0.8-1.6c0.1-0.7-0.1-1.5-0.2-2.1
	c0.4,0.6,1,1.2,1.6,1.8c0,0,2.8,3.3,8,4.4c-0.7,1.3-1.6,2.5-2.5,3.7c-2.1,2.6-4.9,4.7-6.9,6.2c-1.2,0.9-2.6,1.9-4.3,3
	c0.7-0.8,1.5-1.8,1.8-2.9c0.2-0.7,0.2-1.4-0.1-1.9c-0.2-0.5-0.7-0.9-1.3-1.1c-0.9-0.2-1.7,0.2-2.4,1.1c-1.3,1.9-0.6,5.4-0.4,6.3
	c-0.7,0.5-1.5,1.1-2.1,1.8c-0.5,0.6-1,1.3-1.5,2.1c-0.4,0.7-0.7,1.4-1.2,2.3c-0.3,0.9-0.7,1.8-0.8,2.9c-0.1-0.7-0.2-1.2-0.5-1.8
	c-0.2-0.5-0.7-0.8-1.2-1s-1.1,0-1.5,0.5s-0.7,1.2-0.5,1.9c0.3,1.9,2.7,3.3,3.3,3.6c0,2.8,0.8,5.3,2.3,7.1c0.5,0.6,1.9,2.1,3.6,2.5
	c0.7,0.2,1.2,0.2,1.8,0c1.8-0.6,3-2.3,3.1-4.3c0-1.7-0.7-2.9-1.8-3.2c-0.3-0.1-0.7-0.1-1.2,0c-0.7,0.2-1.6,0.9-1.8,1.7
	c-0.2,0.5-0.1,1,0.1,1.4c0.1,0.7,0.5,1.2,1.1,1.3c0.1,0,0.2,0,0.3,0c0.4,0.1,0.8-0.1,1.1-0.5c0.1-0.2,0.2-0.3,0.2-0.5
	c0,0.2-0.1,0.4-0.2,0.6c-0.4,1.1-1.3,1.5-2.3,1.2c-0.3-0.1-0.7-0.2-0.9-0.4c-3.1-2.2-3.2-6.2-2.7-9.3c0.2-0.9,0.4-1.7,0.7-2.5
	c0.1,0,0.2,0.1,0.2,0.1c1.1,0.2,3.5,0.7,4.8-0.2c0.5-0.4,0.7-1,0.7-1.6c-0.2-0.7-0.8-1.4-1.6-1.6c-0.3-0.1-0.7-0.1-1.1,0
	c-0.6,0.2-1.2,0.6-1.6,1c2-2.6,5-4.4,7.9-6.2c1.6-1,3.2-1.9,4.6-3c3.8-3,6.7-6.4,8.5-10.2c1.6-0.1,3.2-0.3,5-0.9
	c-0.7,1.9-1.3,3.9-1.4,5.8c-0.2,3.5,0.4,6.9,2.3,9.9c3.5,5.7,11.5,5.5,16.4,2.5c0.3-0.2,0.6-0.4,0.8-0.6c0.1-0.1,0.2-0.2,0.2-0.2
	c0.2-0.2,0.4-0.3,0.6-0.5c0.1-0.1,0.2-0.2,0.2-0.2c0.2-0.2,0.5-0.5,0.7-0.7l0.1-0.1c0.2-0.2,0.4-0.5,0.6-0.8
	c0.1-0.1,0.2-0.2,0.2-0.3c0.2-0.2,0.2-0.4,0.4-0.7c0.1-0.1,0.1-0.2,0.2-0.3c0.2-0.3,0.3-0.7,0.5-1l0,0c0.3-0.7,0.6-1.6,0.7-2.4
	c0.4-1.9,0.1-3.9-0.4-5.8c-0.3-1.5-0.7-3-1-4.4c-0.1-0.3-0.2-0.7-0.2-1.1c0-0.1,0-0.2,0-0.2c-0.1-0.4-0.1-0.8-0.2-1.2
	c-0.2-3.6,0.6-8.4,3.4-10.7c2.8-2.3,10.2-2.5,10.4,2.5c0.1,1.6-0.3,4.1-1.2,5.4c-0.7,1.1-1.7,2-3,1.8c-0.6-0.1-1.9-1.6-0.7-1.8
	c0.2,0,0.2-0.1,0.4-0.1c0,0,0.1,0,0.1-0.1c0.1-0.1,0.2-0.1,0.2-0.2c0,0,0.1,0,0.1-0.1c0.1-0.1,0.2-0.2,0.2-0.2l0,0
	c0.1-0.2,0.2-0.3,0.2-0.5c0-0.1,0-0.1,0-0.2c0.3-1.2-0.8-2-1.8-1.8c-0.5,0.1-1.1,0.3-1.6,0.7c-0.1,0.1-0.2,0.1-0.2,0.2
	c-0.1,0-0.1,0.1-0.2,0.1c-0.1,0.1-0.2,0.2-0.3,0.3l-0.1,0.1c-0.1,0.1-0.2,0.2-0.2,0.3c0,0,0,0.1-0.1,0.1c-0.1,0.2-0.2,0.2-0.2,0.4
	v0.1c-0.1,0.2-0.1,0.3-0.1,0.5c-0.2,2,0.7,3.2,2.1,4.3c3.1,2.5,6.7-0.9,7.9-3.9c0.2-0.3,0.2-0.6,0.3-0.9l0,0l0,0
	c1-3.2,0.3-6.9-2.1-9.2c-2.5-2.4-6.2-2.5-9.1-1.6c-1.5,0.4-2.7,1.2-3.8,2.3c0,0,0-0.1,0.1-0.1c-0.1,0.1-0.1,0.1-0.2,0.2
	c-0.2,0.2-0.5,0.6-0.7,0.9c0,0.1-0.1,0.1-0.2,0.2c-0.2,0.3-0.5,0.7-0.7,1.2c-0.1,0.1-0.1,0.2-0.2,0.2c-0.2,0.3-0.3,0.7-0.5,1.1
	c0,0.1-0.1,0.2-0.1,0.2c-0.2,0.4-0.3,0.9-0.5,1.3c0,0.1-0.1,0.2-0.1,0.2c-0.1,0.4-0.2,0.8-0.3,1.2c0,0.1-0.1,0.2-0.1,0.3
	c-0.1,0.5-0.2,0.9-0.2,1.4c0,0.1,0,0.1,0,0.2c-0.1,0.4-0.1,0.8-0.1,1.2c0,0.1,0,0.2,0,0.3c0,0.4,0,0.9,0,1.3c0.1,1.8,0.4,3.7,1,5.4
	c0.7,2.1,1.2,4.1,1.3,6.3c0,0.2,0,0.5,0,0.7c0,0.1,0,0.2-0.1,0.3c0,0.2-0.1,0.2-0.1,0.4c0,0.1-0.1,0.2-0.1,0.3s-0.1,0.2-0.1,0.3
	s-0.1,0.2-0.1,0.3c-0.1,0.1-0.1,0.2-0.2,0.3c-0.1,0.1-0.1,0.2-0.2,0.3c-0.1,0.2-0.2,0.2-0.2,0.4c0,0.1-0.1,0.2-0.1,0.2
	c-0.4,0.7-0.8,1.3-1.2,1.9c-2.8,3.6-8.3,4.3-12.1,2.1c-3.8-2.1-5-5.8-4.8-9.9l0,0c0-0.4,0.1-0.8,0.1-1.2c0-0.1,0-0.2,0-0.2
	c0.1-0.3,0.1-0.7,0.2-1c0-0.1,0-0.2,0.1-0.3c0.1-0.3,0.2-0.7,0.2-1c0-0.1,0-0.2,0.1-0.2c0.1-0.4,0.2-0.8,0.3-1.2
	c0.2-1,0.7-1.9,1-2.8c1.9-1.4,3.7-3.8,4.5-7.9c0.2,0.1,0.5,0.2,0.7,0.2c1,0.3,2.7,0.7,4.4,0.1c0.2-0.1,0.3-0.2,0.5-0.3l0,0l0,0
	c2-1.6,2.4-7.4,0.8-12.3c-0.5-1.5-1-2.9-1.6-4.1c5.6,1,13.1-0.1,18.1-7.9c0.6-0.2,4.3-1.7,5.8-5c0.6-1.3,0.8-2.1,0.7-2.6
	c-0.1-0.2-0.2-0.3-0.3-0.4c-0.3-0.2-0.9,0-1.4,0.2c-0.1-0.2-0.2-0.5-0.2-0.9C153.1,247.7,154.3,244.8,154.6,242.8z M113.2,256.7
	c-0.4,0.5-0.7,1.1-1.1,1.6c-0.1-1-0.2-1.9-0.3-2.9C112.3,255.7,112.7,256.2,113.2,256.7z M110,221.7c-0.1,0.1-0.2,0.2-0.2,0.2
	c-0.2,0.2-0.3,0.3-0.5,0.6l0,0c0-0.2,0-0.5,0-0.7C109.5,221.8,109.7,221.8,110,221.7z M108.1,250.9c0,0.2,0,0.4,0.1,0.6
	c-0.1-0.3-0.2-0.7-0.3-1C107.9,250.7,108,250.8,108.1,250.9z"/>
<path class="st2" d="M111.1,188.2l41.7-66.2c0,0,3.3-2.8,1.3,1S117,182.9,117,182.9L111.1,188.2z"/>
<path class="st2" d="M139.6,142.1l41.7-66.2c0,0,3.3-2.8,1.3,1s-37.1,59.9-37.1,59.9L139.6,142.1z"/>
<path class="st0" d="M-316.8,533.5h1999.5"/>
<g>
	<path class="st3" d="M1118.3,212.5c0,0,0.7-3.5,2.3-5.8c1.6-2.4,2.5-3.6,2.9-3.1s0.2,1.8,0.3,2.2c0.1,0.5,0.9,0.4,1.6-0.2
		c0.7-0.7,1.6-1.7,2.6-1.8c1-0.1,1.8,0.4,2,0.2c0.2-0.1,0.7-0.2,0.9,0c0.2,0.2-0.8,0.5-1.1,1.3c-0.3,0.8-0.3,1.5-0.3,1.5
		s1-1.6,1.9-0.6s1.2,1.7,2.6,3c1.3,1.3,8.3,9.4,9.5,11.4s-0.8,0.7-1.5,0.1c-0.7-0.6-6.9-0.5-10.4-4.7c-1.3-1.6-4.9,0.9-6.3,0.3
		c-1.4-0.5-2.7-0.9-3.1-1s-2.8,3.8-3.3,5.7s-2.7-0.1-3-2.9c-0.4-2.8-0.1-3.3,0.2-3.3c0.4-0.1,2.2-0.6,3.2-1.3c1-0.7,0.4-1.2,0.2-1
		C1119.2,212.5,1118.4,213.1,1118.3,212.5z"/>
	<path class="st3" d="M1216.1,276c0,0,0.4-3,1.6-5.2c1.2-2.1,1.9-3.3,2.2-3c0.4,0.4,0.2,1.5,0.4,1.9c0.1,0.4,0.8,0.2,1.4-0.4
		c0.5-0.7,1.3-1.6,2.1-1.8c0.8-0.2,1.5,0.1,1.7,0s0.5-0.3,0.7-0.1s-0.7,0.5-0.9,1.2c-0.2,0.7-0.2,1.2-0.2,1.2s0.8-1.5,1.6-0.7
		c0.9,0.7,1.1,1.3,2.3,2.2c1.2,1,7.5,7,8.6,8.5c1.1,1.6-0.6,0.6-1.2,0.2s-5.8,0.4-9-2.9c-1.2-1.2-4,1.3-5.2,1s-2.4-0.4-2.7-0.5
		c-0.3-0.1-2.2,3.5-2.4,5.2c-0.3,1.6-2.2,0.2-2.7-2.1c-0.4-2.3-0.2-2.8,0.1-2.9s1.8-0.8,2.6-1.5c0.8-0.7,0.3-1,0.1-0.9
		C1216.8,276,1216.3,276.5,1216.1,276z"/>
	<path class="st3" d="M1079.2,249.5c0,0,0.2-2,1.1-3.5c0.8-1.5,1.3-2.2,1.5-2c0.2,0.3,0.2,1,0.2,1.3c0.1,0.2,0.5,0.2,0.9-0.2
		s0.9-1.1,1.4-1.2s1,0.1,1.2,0c0.1-0.1,0.4-0.2,0.5-0.1s-0.4,0.4-0.6,0.8c-0.1,0.5-0.1,0.9-0.1,0.9s0.5-1,1.1-0.5s0.7,0.9,1.6,1.5
		c0.8,0.7,5,4.7,5.8,5.8c0.7,1-0.4,0.4-0.9,0.1s-3.9,0.2-6.1-1.9c-0.8-0.8-2.7,0.9-3.5,0.7s-1.6-0.3-1.8-0.3c-0.2,0-1.5,2.4-1.6,3.5
		c-0.2,1.1-1.5,0.2-1.8-1.4s-0.2-1.9,0.1-1.9c0.2-0.1,1.3-0.5,1.8-1s0.2-0.7,0.1-0.5C1079.7,249.3,1079.3,249.8,1079.2,249.5z"/>
	<path class="st3" d="M1091.3,280.8c0,0,3.7-3.4,5.4-3.6c1.7-0.2,2.9-0.1,2.7,0.9c-0.2,1-0.5,3.9,0.1,4.9c0.5,1,0.5,1.6,1.3,0.4
		s1.1-3,1.7-2.2c0.6,0.9,0.3,1.9,1,1.6c0.7-0.3,0.7-0.3,1-0.3c0.3,0.1,0.5-0.2,0.9-0.3c0.3-0.1-0.4,0.5-0.5,0.8s-0.4,1.9-0.7,2.7
		c-0.4,0.7-0.5,1.6-0.5,1.6s0.6,2.2,1.5,5.3s1.3,4.7,0,3.1c-1.3-1.6-0.8-1.8-1.9-2.6c-1.2-0.9-2-2.1-2.2-2.8c0,0-2.1,1.6-3,1.3
		c-0.9-0.2-1.2,1.3-1.9,2.2c-0.8,0.9-1.7,1.2-2.9-0.6c-1.2-1.8-0.4-3.3-0.1-3.6c0.4-0.2,1.8-0.2,2.5-0.6c0.7-0.4,1.4-1.6,0.5-1.5
		c-0.9,0.2-1.9-2.9-1.6-3.8c0.4-1,1.1-3,0.2-3C1093.8,280.6,1091.8,281.6,1091.3,280.8z"/>
	<path class="st3" d="M1210.6,175.6c0,0,1.7-1.3,2.5-1.3c0.7,0,1.3,0.1,1.2,0.5s-0.3,1.7-0.1,2.2c0.2,0.5,0.2,0.7,0.5,0.2
		c0.4-0.5,0.5-1.3,0.8-0.9c0.2,0.4,0.1,0.9,0.4,0.8s0.3-0.1,0.4-0.1s0.2-0.1,0.4-0.1c0.1,0-0.2,0.2-0.2,0.3
		c-0.1,0.1-0.2,0.9-0.4,1.2c-0.2,0.3-0.3,0.7-0.3,0.7s0.2,1,0.5,2.4s0.5,2.1-0.1,1.3s-0.3-0.8-0.8-1.3s-0.9-1-0.9-1.3
		c0,0-1,0.6-1.3,0.4s-0.5,0.5-0.9,0.9c-0.4,0.3-0.8,0.4-1.2-0.4c-0.4-0.9-0.1-1.5,0.1-1.6s0.8,0,1.1-0.1c0.3-0.1,0.7-0.6,0.3-0.6
		c-0.4,0-0.8-1.3-0.6-1.8s0.5-1.2,0.1-1.3C1211.7,175.8,1210.7,176,1210.6,175.6z"/>
	<path class="st3" d="M1144.3,164c0-0.2-0.2-6.6-1.2-8.7s-4.6-8-6.5-11.1c-1.8-3-4.1-6-4.4-5.6c-0.4,0.4,1.9,3.9,2,6.3
		c0.1,2.3,0.6,4.8,1,6.6c0.4,1.8,1.6,3.2,1.5,4.7s0.1,4.4,1.1,8.9c1,4.4,1.6,7.3,1.7,9.5s0.1,3.1-1.5,2.6s-3.9-1.9-4.4-1.3
		c-0.5,0.5-0.8,5.6,0.5,7c1.3,1.5,4.4,1.9,5.7,1.7c1.3-0.2,0.7-3.8,1.3-3.9c0.7-0.1,3.3,0.3,6.5-1.9c3.2-2.3,3.6-4,3.9-4.3
		c0.4-0.4,0.7-0.8,0.4-0.9c-0.2,0-0.2,0.2-1.1-0.4c-0.8-0.7-1.9-0.7-2.4-0.7c-0.4,0.1-0.9-1,0.1-2.8s2.8-4.1,2.4-6.7s-1-7.5-1.5-9.7
		s-1.6-3.8-1.9-3.3c-0.4,0.5,0.6,2.2,0.2,4.9c-0.4,2.6-2.6,6.4-3,8.3C1144.7,164.8,1144.3,165.4,1144.3,164z"/>
	<path class="st3" d="M1126.8,267.8c0.3-0.2,1.2-0.9,1.8-0.9s0.9,0.2,1.2,0.5c0.3,0.2,0.5,0.3,0.7,0.3s0,0.2-0.3,0.4s-0.5,1.1-1,1.7
		c-0.5,0.6-1.8,3.5-3,4.3c-1.2,0.9-2.7,1.1-3.5,1.8s-1.5,2.6-1.9,2.7c-0.4,0.2-1.4-1.8-1.8-2.6c-0.4-0.7,0.7-1.5,1.4-1.5
		c0.7-0.1,1.5-1,1.1-1.3c-0.4-0.2-3-5.8-3.4-7.5s-1-8.1-1.8-10.1s-0.5-6.4-0.2-6.5c0.3-0.2,2.1,3.7,2.7,5c0.7,1.3,1,2.1,1.2,2.1
		c0.1,0.1,0.4-1,0.4-1.9c0-1-0.2-2.4,1.5,0.7c1.7,3.2,3.6,4.8,3.5,6.5s-0.1,3.2,0,4.4s0.3,2.4,0.3,2.4S1126.4,268.1,1126.8,267.8z"
		/>
	<path class="st3" d="M1286.2,269c0.2-0.2,0.9-0.7,1.4-0.7s0.7,0.2,0.9,0.4c0.2,0.2,0.4,0.2,0.5,0.2s0,0.2-0.2,0.3
		c-0.2,0.2-0.4,0.9-0.8,1.3c-0.4,0.4-1.3,2.6-2.2,3.3c-0.9,0.7-2.1,0.9-2.7,1.3c-0.6,0.5-1.2,1.9-1.5,2.1c-0.3,0.2-1-1.4-1.3-1.9
		c-0.2-0.5,0.5-1.1,1-1.2c0.5-0.1,1.2-0.8,0.9-1c-0.3-0.2-2.2-4.4-2.6-5.6c-0.4-1.3-0.7-6.1-1.3-7.7c-0.6-1.5-0.4-4.8-0.1-4.9
		c0.2-0.1,1.5,2.8,2.1,3.8c0.5,1,0.8,1.6,0.9,1.6s0.2-0.7,0.2-1.5s-0.1-1.8,1.2,0.5c1.3,2.4,2.7,3.6,2.7,4.9c-0.1,1.3-0.1,2.4,0,3.3
		c0.1,0.9,0.2,1.8,0.2,1.8S1285.9,269.1,1286.2,269z"/>
	<path class="st3" d="M1278.4,136.3c0.3-0.1,1.3-0.4,1.9-0.2s0.9,0.6,1.1,0.9s0.4,0.5,0.7,0.5c0.2,0.1-0.1,0.2-0.4,0.3
		c-0.3,0.1-0.7,0.9-1.3,1.3c-0.5,0.4-2.2,2.7-3.6,3.2c-1.3,0.4-2.9,0.1-3.7,0.4c-0.9,0.4-1.9,1.9-2.3,1.9c-0.4,0.1-1-2.3-1.3-3.1
		c-0.2-0.9,0.9-1.2,1.6-1s1.6-0.5,1.3-0.9c-0.4-0.4-1.9-6.7-2.1-8.4c-0.1-1.8,0.4-8.2,0-10.4c-0.4-2.2,0.6-6.3,0.9-6.4
		s1.3,4.3,1.8,5.8s0.7,2.4,0.8,2.5c0.1,0.1,0.5-0.8,0.7-1.8s0.2-2.4,1.3,1.3c1.1,3.7,2.7,6,2.3,7.5c-0.4,1.6-0.6,3-0.7,4.3
		c-0.1,1.2-0.1,2.4-0.1,2.4S1278.1,136.4,1278.4,136.3z"/>
	<path class="st3" d="M1131.8,126.1c-0.1-0.1-0.2-0.2-0.4-0.4c-0.1-0.2-0.3-0.5-0.7-0.7c-0.4-0.2-1.1-0.1-1.3-0.1
		c-0.2,0.1-0.7-0.1-0.7-0.1s0.1-0.8,0.2-1.6c0.1-0.8,0.4-1.7,0.7-2.7c0.4-1-0.6-2.7-1.2-5.2c-0.5-2.6-0.7-1.6-0.9-1
		s-0.4,1.2-0.5,1.1s-0.2-0.7-0.4-1.7c-0.2-1.1-0.7-4.1-0.9-4.1s-1.1,2.6-0.9,4.1s-0.5,5.6-0.5,6.9s0.7,5.5,1,5.8
		c0.2,0.3-0.4,0.7-0.9,0.5s-1.2-0.1-1.1,0.5c0.1,0.5,0.4,2.2,0.7,2.2s1-0.9,1.6-1.1c0.6-0.1,1.6,0.2,2.5,0.1s2.1-1.5,2.6-1.7
		c0.4-0.2,0.7-0.7,0.9-0.7C1131.7,126.3,1131.8,126.3,1131.8,126.1z"/>
	<path class="st3" d="M1233.2,134.8c0,0,2.9-1.6,4.2-1.1c1.3,0.5,1.2,1.7,1.7,1.8c0.5,0.1,1.2,0.5,0.9,0.7c-0.4,0.2-0.9,0.2-1.2,0.7
		s-1.6,2.9-2.6,3.5c-1,0.7-1.6,0.8-1.3,1.4c0.4,0.6,2.1,3.6,3.8,3.9c1.8,0.3,3.7,0.7,4.4,2.7s1.3,7.3,2,10.8s1.4,13.7,1.2,17.1
		c-0.2,3.5-0.1,4.7-0.9,5.2s-3.5-4.3-3.9-7.6s-1.2-8.9-2.8-11.5c-1.6-2.5-8.4-9.4-9.9-10.8c-1.5-1.5-2-3.3-2-3.3s-2.1,1.1-3.3,1.6
		c-0.7,0.3-3,3.3-3.4,4.4c-0.4,1-0.7,1.6-1.3,1c-0.6-0.7-1.3-1.6-1.9-2.7c-0.5-1-1.5-3.2-0.8-3.6c0.6-0.4,1.6-0.7,2.8-1.4
		c1.1-0.6,2.1-1.8,3-3c0.8-1.2,1.3-2.7,1.3-2.9s-2-5.8-2.2-10.1c-0.2-4.4-1.5-9.7-1.9-10.9c-0.5-1.2-5.6-7.1-6.9-9.4
		c-1.4-2.3-3.2-4.9-0.6-4.7s9.5,3.8,12.1,6c2.7,2.1,5.2,3.6,5.2,6.4c0.1,2.8-0.7,6.6,0,9.2C1229.3,130.8,1231.4,135,1233.2,134.8z"
		/>
	<path class="st3" d="M1122.3,320.1c0,0,1.6-1.8,2.5-1.9c0.9,0,1,0.7,1.3,0.7s0.9,0,0.6,0.2c-0.2,0.2-0.5,0.4-0.6,0.7
		c-0.1,0.4-0.6,2.2-1.2,3s-0.9,1-0.6,1.2s1.8,1.6,2.9,1.4c1.2-0.3,2.4-0.6,3.1,0.5s1.8,4.3,2.7,6.2s2.7,8.1,3,10.3s0.5,3,0.1,3.5
		s-2.7-1.8-3.5-3.6s-1.9-5.2-3.3-6.4c-1.3-1.1-6.6-3.5-7.7-3.9c-1.1-0.5-1.7-1.5-1.7-1.5s-1.2,1.3-1.9,1.9c-0.4,0.4-1.5,3-1.6,3.7
		c-0.1,0.8-0.2,1.2-0.7,1s-1-0.7-1.5-1.2s-1.3-1.6-1-2.1c0.3-0.4,0.9-0.9,1.5-1.6c0.6-0.7,1-1.8,1.5-2.7c0.4-1,0.4-2.1,0.4-2.2
		s-2-3-2.7-5.7s-2.2-5.6-2.6-6.3c-0.4-0.6-4.4-2.9-5.6-3.9s-2.6-2.2-1-2.8s6.4-0.3,8.4,0.3c1.9,0.5,3.7,0.8,4.1,2.6s0.4,4.3,1.2,5.8
		C1119.3,318.8,1121.3,320.8,1122.3,320.1z"/>
	<path class="st3" d="M1170.8,296.5c0,0-0.1-2.6-2.9-5.2c-2.9-2.7-7.7-9.5-8.1-11.2s-1.9-4.6-2-5.3c-0.2-0.7-0.9,1.2-0.1,3.7
		s1.8,5.2,2,6.7c0.2,1.6,1.6,7.1,4.9,9.5s4.8,3.8,4.7,4.4c-0.2,0.6-0.9,1.4-1.6,1.1c-0.7-0.3-2.7-1.6-2.9-1c-0.2,0.6,0.7,6.4,3,7.8
		c2.4,1.4,5.1,0.4,5.5-0.1c0.4-0.4-1.7-1.2-1.3-2.2c0.4-1.1,1.4-0.4,2.1-1.1c0.7-0.7,2.4-0.1,2.8,0s-0.2-0.6-0.2-0.6s3.6,0.9,5,1.3
		s5.1-0.1,6.1,0.5s9.7,0.6,10.1-0.4c0.2-0.6-1.3-0.3-2.7-0.3s-5.8-0.7-7.5-1.8s-4-2.6-5.1-2.9c-1.1-0.4-4.4,0.3-5.6,0.4
		c-1.3,0-2-0.1-2-0.1s-0.7-1.5-1.4-2.1C1172.7,296.8,1170.8,296.5,1170.8,296.5z"/>
	<path class="st3" d="M1160.3,147.4c0,0-0.1-1.4-1.6-2.9c-1.6-1.5-4.3-5.3-4.5-6.2c-0.2-1-1-2.6-1.2-2.9c-0.1-0.4-0.5,0.7-0.1,2.1
		s1,2.9,1.1,3.8s0.9,3.9,2.7,5.3c1.8,1.3,2.7,2.1,2.6,2.4c-0.1,0.4-0.5,0.8-0.9,0.6s-1.5-0.9-1.6-0.5s0.4,3.5,1.7,4.3
		c1.3,0.8,2.9,0.2,3,0c0.2-0.2-0.9-0.7-0.7-1.3c0.2-0.6,0.8-0.2,1.2-0.6c0.4-0.4,1.3-0.1,1.5,0s-0.1-0.3-0.1-0.3s1.9,0.5,2.8,0.7
		c0.8,0.2,2.8,0,3.4,0.3c0.5,0.3,5.4,0.3,5.6-0.2c0.1-0.4-0.7-0.2-1.5-0.2s-3.2-0.4-4.1-1c-0.9-0.7-2.2-1.4-2.9-1.6
		c-0.6-0.2-2.4,0.2-3.2,0.2s-1.1-0.1-1.1-0.1s-0.4-0.9-0.8-1.2C1161.4,147.8,1160.3,147.4,1160.3,147.4z"/>
	<path class="st3" d="M1128.6,183.4c-0.4,0.1-1.7,0.1-2.2-0.1s-1.2-0.5-1.5-0.5c-0.3-0.1-1.2,0.4-1.6,0.4c-0.4,0.1-0.5,0.1-0.5,0.1
		s-0.2-0.4-0.4-0.5c-0.2-0.1-0.8-0.1-0.8-0.1s-0.1-0.7-1-1.3c-0.9-0.6-2.4-2.2-2.6-2.7s-0.7-1.2-0.7-1.4c-0.1-0.2-0.2,0.4,0.1,1.1
		c0.3,0.7,0.6,1.4,0.7,1.8s0.7,1.9,1.6,2.4c1,0.5,1.5,0.8,1.5,1s-0.2,0.4-0.4,0.4c-0.2-0.1-0.8-0.3-0.9-0.1c-0.1,0.2,0.4,1.8,1.1,2
		s1.5-0.2,1.6-0.3c0.1-0.1-0.5-0.2-0.4-0.5s0.4-0.2,0.5-0.4c0.2-0.2,0.7-0.2,0.8-0.2s-0.1-0.2-0.1-0.2s1,0.1,1.5,0.1
		c0.4,0.1,1.5-0.3,1.8-0.2s2.8-0.4,2.9-0.7C1129.3,183.3,1128.9,183.4,1128.6,183.4z"/>
	<path class="st3" d="M1288.9,176.3c-1.2-0.3-4.7-1.7-5.9-3c-1.2-1.3-3-2.9-3.9-3.3c-0.8-0.5-3.6-0.6-4.6-0.9
		c-1-0.2-1.6-0.5-1.6-0.5s-0.4-1.3-0.9-2c-0.5-0.6-2.1-1.3-2.1-1.3s0.2-2.1-1.9-4.8c-2.1-2.7-5.3-9.2-5.5-10.7s-1.1-4.1-1.2-4.7
		c-0.1-0.7-0.8,0.8-0.4,3s0.9,4.6,1,5.9s0.7,6.1,3.1,8.7s3.6,4,3.3,4.4c-0.2,0.5-0.9,1-1.5,0.5c-0.6-0.4-2.1-1.8-2.2-1.4
		c-0.2,0.4-0.1,5.3,1.8,6.9c1.8,1.6,4.1,1.3,4.4,1c0.4-0.2-1.3-1.3-0.8-2.1s1.2-0.1,1.8-0.5s1.9,0.4,2.2,0.5
		c0.4,0.1-0.1-0.5-0.1-0.5s2.8,1.4,3.9,2c1.2,0.6,4.1,1,4.9,1.6c0.8,0.7,7.8,2.4,8.3,1.7C1291.3,176.6,1289.9,176.5,1288.9,176.3z"
		/>
	<path class="st3" d="M1220.7,207.4c0,0-3.3-4.2-3.9-8s-1.8-7.9-3.6-9.5c-1.8-1.7-6.4-6.7-9.4-8.4c-3-1.7-3.2-0.4-1.8,1.2
		c2.9,3.5,3.3,6.3,3.9,9.4c0.5,3,1.1,11.2,3.7,15s4.6,6,4.6,7.5c0.1,1.5-0.8,2.1-0.8,2.1s-3,2-3.9,2.1s-1,1.3-0.3,4.3
		s1.9,4.4,4.1,3.9c2.1-0.5,1.9,0.2,2.3-2.1c0.4-2.2-0.2-3.6,0.8-4.3s1.7-1.5,2.5-1c0.9,0.5,7,8.7,10,9.4s2.7,0,4.4,1.5
		c1.8,1.5,5.1,8,6.2,7.4s-1.3-5.6-2.9-9.5s-4-9.5-5.3-10.3c-1.3-0.9-6.1-2.4-6.7-4.5c0,0,0.5-1.1,1.3-1.5s1.5-0.2,2.2-0.8
		s1.6-0.4,1.6-0.4s-0.5-0.8-1-0.9s-1.2-3-3.3-2.7c-2.1,0.2-2.8,0.5-3.4,0.5C1221.7,207.9,1220.7,207.4,1220.7,207.4z"/>
	<path class="st3" d="M1058.3,190.3c0,0-2-2.6-2.4-5s-1.1-4.9-2.2-6c-1.1-1-4-4.2-5.8-5.2c-1.9-1-2-0.2-1.2,0.8
		c1.8,2.1,2.1,3.9,2.4,5.8c0.4,1.9,0.7,7,2.3,9.4c1.6,2.3,2.9,3.7,2.9,4.7c0.1,1-0.5,1.3-0.5,1.3s-1.9,1.2-2.4,1.3
		c-0.5,0.1-0.7,0.8-0.2,2.7c0.5,1.9,1.2,2.8,2.6,2.5c1.3-0.3,1.2,0.1,1.5-1.3s-0.1-2.2,0.5-2.7c0.6-0.4,1-0.9,1.6-0.6
		c0.5,0.3,4.4,5.5,6.3,5.9s1.7,0,2.8,1c1.1,1,3.2,5,3.9,4.6c0.7-0.4-0.8-3.5-1.8-6s-2.5-5.9-3.3-6.4s-3.8-1.5-4.1-2.8
		c0,0,0.3-0.7,0.8-0.9c0.5-0.2,1-0.1,1.4-0.5c0.5-0.4,1-0.2,1-0.2s-0.3-0.5-0.6-0.5c-0.3-0.1-0.7-1.9-2.1-1.7
		c-1.3,0.1-1.8,0.3-2.1,0.3C1058.9,190.6,1058.3,190.3,1058.3,190.3z"/>
	<path class="st3" d="M1187.7,174.5c0,0-0.9-2.1-0.6-5.5s0.6-6.4-0.1-8.6s-2.7-7.6-3.4-11.9c-0.7-4.3-1.4-8.1-1.9-8.3
		c-0.5-0.2-3,8.7-2.6,14.6s1,6.9,1.2,8.6s-0.5,3.1-0.4,6.7s1,7.5,1,8.3c0.1,0.7-0.5,1.6-1.2,2.2c-0.6,0.7-2.2,1.3-2.9,1.7
		c-0.7,0.3-1.4,0.3-1.3,0.9s0.2,2.2,0.9,3s1.5,1,2.1,1.1c0.5,0.1,1-2.4,1.6-2.6c0.6-0.1,3.5-1.1,4-1s1.8,1.6,3.8,1s2.6-0.4,3.8,0.2
		c1.2,0.5,3.8,2.5,4,2.4c0.3-0.1-0.3-1.9-0.9-2.7c-0.9-1.2-1.1-1.3-1.6-2.2c-0.5-0.9-1.9-2.4-2.6-2.3c0,0,0.7-1.9,1.5-2.6
		c0.9-0.7,1.6-1.8,2.1-2c0.4-0.1,1.2-0.1,1.3-0.3c0.1-0.2-1.5-0.7-1.5-0.7s-0.4-1.6-2.4-1.8C1189.7,172.8,1188.3,174.3,1187.7,174.5
		z"/>
	<path class="st3" d="M1261.1,305c0,0-0.8-1.9-0.5-4.9c0.2-3,0.5-5.7-0.1-7.5c-0.6-1.9-2.4-6.7-3-10.5s-1.2-7.2-1.6-7.3
		c-0.4-0.2-2.6,7.7-2.2,12.9s0.9,6.1,1.1,7.6s-0.4,2.7-0.3,6c0.1,3.2,0.8,6.7,0.9,7.3s-0.5,1.5-1,2s-1.9,1.2-2.6,1.5
		s-1.2,0.2-1.2,0.8c0.1,0.5,0.2,2,0.7,2.7s1.3,0.9,1.8,1c0.4,0.1,0.9-2.2,1.5-2.3c0.5-0.1,3-0.9,3.5-0.9c0.5,0.1,1.6,1.5,3.4,0.9
		c1.8-0.5,2.3-0.4,3.4,0.2c1,0.5,3.3,2.2,3.6,2.1c0.2-0.1-0.2-1.6-0.8-2.4c-0.7-1-1-1.2-1.5-2c-0.5-0.9-1.8-2.1-2.2-2.1
		c0,0,0.6-1.6,1.3-2.2s1.5-1.6,1.8-1.8c0.4-0.1,1-0.1,1.2-0.3c0.1-0.2-1.3-0.5-1.3-0.5s-0.4-1.4-2.2-1.6
		C1262.8,303.5,1261.6,304.8,1261.1,305z"/>
	<path class="st3" d="M1097.1,181.6c0,0-0.5-0.9-0.5-2.6s0-3.1-0.4-4s-1.6-3.3-2.1-5.3s-1-3.7-1.2-3.8c-0.2-0.1-1,4.4-0.5,7.1
		s0.8,3.2,1,3.9s-0.1,1.5,0.1,3.2s0.8,3.5,0.9,3.8s-0.2,0.9-0.4,1.2c-0.2,0.4-1,0.9-1.3,1c-0.4,0.2-0.7,0.3-0.6,0.5s0.2,1,0.5,1.3
		s0.8,0.4,1,0.3c0.2,0,0.4-1.3,0.7-1.4s1.6-0.9,1.8-0.8c0.2,0,0.9,0.6,1.9,0.1c0.9-0.5,1.2-0.4,1.8-0.2s1.9,0.9,2,0.8
		s-0.2-0.9-0.5-1.2c-0.4-0.5-0.6-0.5-0.9-0.9s-1-1-1.3-0.9c0,0,0.2-1,0.6-1.3c0.4-0.4,0.7-1,0.9-1.2c0.2-0.1,0.5-0.2,0.6-0.2
		c0.1-0.1-0.7-0.2-0.7-0.2s-0.2-0.7-1.2-0.6C1098.1,180.5,1097.3,181.4,1097.1,181.6z"/>
	<path class="st3" d="M1226.8,316.5c-0.3-0.2-0.4-0.2-0.5-0.4c-0.2-0.2-0.7-0.4-0.8-0.3c0,0,0.1-0.5,0.2-0.9
		c0.2-0.3,0.3-0.7,0.4-0.8s0.3-0.2,0.3-0.2h-0.4c0,0-0.2-0.4-0.7-0.1c-0.5,0.2-0.8,0.8-1,0.9c0,0-0.4-0.4-0.5-1.3s-0.2-1.8-0.5-2.2
		c-0.3-0.5-1.2-1.6-1.6-2.7c-0.4-1-0.9-1.9-1-1.9s-0.2,2.6,0.2,4.1c0.5,1.5,0.7,1.6,0.9,2.1c0.1,0.4,0.1,0.9,0.3,1.8
		c0.2,0.9,0.7,1.8,0.8,2c0.1,0.2-0.1,0.5-0.2,0.7s-0.5,0.6-0.7,0.8s-0.4,0.2-0.3,0.4c0.1,0.1,0.2,0.5,0.4,0.7c0.2,0.1,0.5,0.1,0.6,0
		s0.1-0.8,0.3-0.9s0.9-0.7,1-0.7c0.1-0.1,0.5,0.2,1-0.2s0.7-0.4,1-0.4s1.1,0.2,1.2,0.1C1227.3,317.1,1227.1,316.8,1226.8,316.5z"/>
	<path class="st3" d="M1162.2,231.8c-0.7-0.4-0.9-0.4-1.3-0.9c-0.5-0.4-1.5-0.9-1.9-0.6c0,0,0.1-1.3,0.5-2s0.7-1.6,0.9-1.8
		c0.2-0.2,0.7-0.4,0.7-0.6c0.1-0.2-1,0.1-1,0.1s-0.5-0.8-1.8-0.3s-1.9,1.9-2.2,2.2c0,0-0.9-1-1.2-3.1c-0.4-2.1-0.6-4.1-1.3-5.1
		c-0.7-1-2.7-3.7-3.8-6.1c-1.1-2.4-2.1-4.4-2.4-4.4s-0.5,6.2,0.7,9.6c1.2,3.4,1.7,3.8,2.1,4.8s0.2,2,0.8,4.1
		c0.6,2.1,1.8,4.3,1.9,4.6c0.1,0.4-0.1,1.2-0.4,1.8c-0.2,0.6-1.1,1.5-1.5,1.9s-0.8,0.6-0.7,1c0.1,0.3,0.5,1.3,1,1.6s1.1,0.1,1.4,0
		s0.2-1.8,0.6-2.1s1.9-1.8,2.2-1.8c0.3-0.1,1.3,0.4,2.4-0.6s1.5-1.1,2.3-1.1c0.8-0.1,2.6,0.3,2.8,0.2
		C1163.3,233.1,1162.7,232.1,1162.2,231.8z"/>
	<path class="st3" d="M1200.7,244.5c0,0-0.6-1.2-1.4-0.9s-1.3,0.7-1.8,0.6c-0.5-0.1-2.4-0.6-3-3.4c-0.6-2.8,0.2-7.1-1.3-8
		c-1.6-1-6-2.2-11-1.5s-5.5,0.5-3.8,2.2c1.6,1.7,4.1,2.2,5,2.2s2.7,0.3,3.5,1.2c0.7,0.9,1.2,3,2.3,6c1.2,3,2.6,6.3,2.4,7.3
		c-0.1,1-1,2.2-2,2.8c-1,0.5-1.9,0.8-1.7,1.3c0.2,0.5,1.3,1.2,1.8,1.7s1.1,1.3,1.3,0.8c0.2-0.5,0.9-2.4,2.1-2.9s1.8-0.3,3.7-1.9
		s3.1-4.1,3.3-4.6c0.2-0.4,1,0.3,1.4,1s0.9,2.5,2,3.7s1.5,3.3,2.2,3.6c0.8,0.4,0.5-4.8,0.5-7.3c-0.1-2.6-0.2-3.8-0.8-5
		c-0.6-1.3-1.2-1.5-1.8-1C1203.2,243,1201.3,244.5,1200.7,244.5z"/>
	<path class="st3" d="M1119.1,141.8c0,0-0.1-0.2-0.3-0.2c-0.2,0.1-0.3,0.2-0.4,0.1c-0.1,0-0.5-0.1-0.7-0.8c-0.1-0.6,0.1-1.6-0.3-1.8
		c-0.4-0.2-1.3-0.5-2.4-0.3s-1.2,0.1-0.9,0.5c0.4,0.4,0.9,0.5,1.1,0.5s0.6,0.1,0.8,0.2c0.2,0.2,0.2,0.7,0.5,1.3
		c0.2,0.7,0.5,1.4,0.5,1.6s-0.2,0.5-0.4,0.6c-0.2,0.1-0.4,0.2-0.4,0.3c0.1,0.1,0.3,0.2,0.4,0.4c0.1,0.1,0.2,0.3,0.3,0.2
		c0.1-0.1,0.2-0.5,0.5-0.7c0.2-0.1,0.4-0.1,0.9-0.4s0.7-0.9,0.7-1c0.1-0.1,0.2,0.1,0.3,0.2c0.1,0.1,0.2,0.5,0.4,0.9
		c0.2,0.2,0.3,0.7,0.5,0.8c0.2,0.1,0.1-1.1,0.1-1.6s-0.1-0.9-0.2-1.2c-0.1-0.3-0.3-0.4-0.4-0.2
		C1119.7,141.3,1119.2,141.8,1119.1,141.8z"/>
	<path class="st3" d="M1283.4,203.5c0,0-0.2-0.4-0.4-0.3c-0.2,0.1-0.4,0.2-0.5,0.2s-0.8-0.2-1-1.1s0.1-2.3-0.4-2.6
		c-0.5-0.3-1.9-0.7-3.6-0.5c-1.6,0.2-1.8,0.2-1.2,0.7c0.5,0.5,1.3,0.7,1.6,0.7s0.9,0.1,1.1,0.4s0.4,1,0.7,1.9c0.4,1,0.8,2.1,0.8,2.4
		s-0.3,0.7-0.7,0.9c-0.3,0.2-0.6,0.2-0.5,0.4c0.1,0.2,0.4,0.4,0.5,0.5c0.1,0.2,0.4,0.4,0.4,0.2c0.1-0.2,0.3-0.8,0.7-0.9
		c0.4-0.2,0.6-0.1,1.2-0.6s1-1.3,1.1-1.5c0.1-0.1,0.3,0.1,0.4,0.3c0.1,0.2,0.3,0.8,0.7,1.2c0.4,0.4,0.5,1.1,0.7,1.2s0.2-1.6,0.1-2.4
		c0-0.9-0.1-1.2-0.2-1.6c-0.2-0.4-0.4-0.5-0.5-0.3C1284.3,202.9,1283.7,203.4,1283.4,203.5z"/>
</g>
</svg>
